<svg width="48" height="48" viewBox="0 0 48 48" fill="none" xmlns="http://www.w3.org/2000/svg">
<path d="M42 23H40.7C40.4533 18.9167 38.72 15.0651 35.8274 12.1726C32.9349 9.28 29.0833 7.5467 25 7.3V6C25 5.73478 24.8946 5.48043 24.7071 5.2929C24.5196 5.10536 24.2652 5 24 5C23.7348 5 23.4804 5.10536 23.2929 5.2929C23.1054 5.48043 23 5.73478 23 6V7.3C18.9167 7.5467 15.0651 9.28 12.1726 12.1726C9.27999 15.0651 7.5467 18.9167 7.3 23H6C5.73478 23 5.48043 23.1054 5.29289 23.2929C5.10536 23.4804 5 23.7348 5 24C5 24.2652 5.10536 24.5196 5.29289 24.7071C5.48043 24.8946 5.73478 25 6 25H7.3C7.54905 29.0815 9.28339 32.9307 12.1757 35.8212C15.0681 38.7117 18.9184 40.4435 23 40.69V42C23 42.2652 23.1054 42.5196 23.2929 42.7071C23.4804 42.8946 23.7348 43 24 43C24.2652 43 24.5196 42.8946 24.7071 42.7071C24.8946 42.5196 25 42.2652 25 42V40.69C29.0816 40.4435 32.9319 38.7117 35.8243 35.8212C38.7166 32.9307 40.4509 29.0815 40.7 25H42C42.2652 25 42.5196 24.8946 42.7071 24.7071C42.8946 24.5196 43 24.2652 43 24C43 23.7348 42.8946 23.4804 42.7071 23.2929C42.5196 23.1054 42.2652 23 42 23ZM25 38.69V37.5C25 37.2348 24.8946 36.9804 24.7071 36.7929C24.5196 36.6054 24.2652 36.5 24 36.5C23.7348 36.5 23.4804 36.6054 23.2929 36.7929C23.1054 36.9804 23 37.2348 23 37.5V38.69C19.4482 38.4473 16.1043 36.9273 13.586 34.4109C11.0677 31.8944 9.54532 28.5516 9.3 25H10.5C10.7652 25 11.0196 24.8946 11.2071 24.7071C11.3946 24.5196 11.5 24.2652 11.5 24C11.5 23.7348 11.3946 23.4804 11.2071 23.2929C11.0196 23.1054 10.7652 23 10.5 23H9.3C9.54506 19.4473 11.0671 16.1033 13.5852 13.5852C16.1033 11.0671 19.4473 9.54506 23 9.3V10.5C23 10.7652 23.1054 11.0196 23.2929 11.2071C23.4804 11.3946 23.7348 11.5 24 11.5C24.2652 11.5 24.5196 11.3946 24.7071 11.2071C24.8946 11.0196 25 10.7652 25 10.5V9.3C28.5527 9.54506 31.8967 11.0671 34.4148 13.5852C36.9329 16.1033 38.4549 19.4473 38.7 23H37.5C37.2348 23 36.9804 23.1054 36.7929 23.2929C36.6054 23.4804 36.5 23.7348 36.5 24C36.5 24.2652 36.6054 24.5196 36.7929 24.7071C36.9804 24.8946 37.2348 25 37.5 25H38.7C38.4526 28.5509 36.9295 31.8925 34.4117 34.4086C31.8938 36.9246 28.5511 38.4452 25 38.69V38.69Z" fill="white"/>
<path d="M20.9999 21.21L20.5399 21.67C20.2621 21.9509 20.1062 22.33 20.1062 22.725C20.1062 23.1201 20.2621 23.4992 20.5399 23.78L24.2299 27.46C24.3676 27.6 24.5318 27.7112 24.713 27.7871C24.8941 27.863 25.0885 27.9021 25.2849 27.9021C25.4813 27.9021 25.6757 27.863 25.8568 27.7871C26.038 27.7112 26.2022 27.6 26.3399 27.46L26.7999 27L20.9999 21.21Z" fill="#F5B83B"/>
<path d="M30.26 16L27.83 16.45C26.1446 16.7673 24.5958 17.5905 23.39 18.81L22 20.22L27.8 26.01L29.23 24.58C30.4412 23.3707 31.2571 21.8226 31.57 20.14L32.02 17.72C32.0258 17.4891 31.9839 17.2595 31.8969 17.0456C31.81 16.8317 31.6799 16.6379 31.5147 16.4765C31.3496 16.3151 31.1529 16.1895 30.937 16.1075C30.7211 16.0255 30.4907 15.9889 30.26 16Z" fill="#F5B83B"/>
<path d="M17.2899 31.69C17.1575 31.6895 17.0267 31.6627 16.9048 31.6112C16.7829 31.5597 16.6725 31.4845 16.5799 31.39C16.3936 31.2027 16.2891 30.9492 16.2891 30.685C16.2891 30.4208 16.3936 30.1674 16.5799 29.98L19.8099 26.76C19.9972 26.5738 20.2507 26.4692 20.5149 26.4692C20.779 26.4692 21.0325 26.5738 21.2199 26.76C21.4061 26.9474 21.5107 27.2008 21.5107 27.465C21.5107 27.7292 21.4061 27.9827 21.2199 28.17L17.9999 31.39C17.9072 31.4845 17.7968 31.5597 17.6749 31.6112C17.553 31.6627 17.4222 31.6895 17.2899 31.69Z" fill="#F5B83B"/>
<path d="M16.7999 27.98C16.5361 27.9762 16.2845 27.8684 16.0999 27.68C15.9136 27.4926 15.8091 27.2392 15.8091 26.975C15.8091 26.7108 15.9136 26.4574 16.0999 26.27L17.7099 24.66C17.8972 24.4737 18.1507 24.3692 18.4149 24.3692C18.6791 24.3692 18.9325 24.4737 19.1199 24.66C19.3061 24.8474 19.4107 25.1008 19.4107 25.365C19.4107 25.6292 19.3061 25.8826 19.1199 26.07L17.5099 27.68C17.4173 27.7745 17.3068 27.8497 17.1849 27.9012C17.0631 27.9527 16.9322 27.9794 16.7999 27.98V27.98Z" fill="#F5B83B"/>
<path d="M20.9999 32.17C20.8683 32.1708 20.7379 32.1456 20.616 32.0958C20.4942 32.046 20.3834 31.9727 20.2899 31.88C20.1962 31.7871 20.1218 31.6765 20.071 31.5546C20.0203 31.4327 19.9941 31.302 19.9941 31.17C19.9941 31.038 20.0203 30.9073 20.071 30.7854C20.1218 30.6636 20.1962 30.553 20.2899 30.46L21.8999 28.81C22.0873 28.6238 22.3408 28.5192 22.6049 28.5192C22.8691 28.5192 23.1226 28.6238 23.3099 28.81C23.4962 28.9974 23.6007 29.2508 23.6007 29.515C23.6007 29.7792 23.4962 30.0327 23.3099 30.22L21.6999 31.84C21.611 31.9388 21.5033 32.0188 21.3832 32.0755C21.263 32.1321 21.1327 32.1643 20.9999 32.17V32.17Z" fill="#F5B83B"/>
</svg>
