<svg width="18" height="18" viewBox="0 0 18 18" fill="none" xmlns="http://www.w3.org/2000/svg">
<path d="M0.600098 3.8185C0.600098 2.0401 2.0401 0.600098 3.8185 0.600098H14.1817C15.9601 0.600098 17.4001 2.0401 17.4001 3.8185V14.1817C17.4001 15.9601 15.9601 17.4001 14.1817 17.4001H3.8185C2.96493 17.4001 2.14631 17.061 1.54275 16.4575C0.939178 15.8539 0.600098 15.0353 0.600098 14.1817V3.8185ZM13.6249 6.4249C13.7376 6.31223 13.8009 6.15943 13.8009 6.0001C13.8009 5.84077 13.7376 5.68796 13.6249 5.5753C13.5122 5.46263 13.3594 5.39934 13.2001 5.39934C13.0408 5.39934 12.888 5.46263 12.7753 5.5753L7.2001 11.1517L5.2249 9.1753C5.11223 9.06263 4.95943 8.99934 4.8001 8.99934C4.64077 8.99934 4.48796 9.06263 4.3753 9.1753C4.26263 9.28796 4.19934 9.44077 4.19934 9.6001C4.19934 9.75943 4.26263 9.91223 4.3753 10.0249L6.7753 12.4249C6.83103 12.4808 6.89724 12.5251 6.97014 12.5554C7.04303 12.5856 7.12118 12.6012 7.2001 12.6012C7.27902 12.6012 7.35716 12.5856 7.43006 12.5554C7.50295 12.5251 7.56916 12.4808 7.6249 12.4249L13.6249 6.4249Z" fill="#F8F8F8"/>
</svg>
