<svg width="24" height="24" viewBox="0 0 24 24" fill="none" xmlns="http://www.w3.org/2000/svg">
<path d="M12.6138 11.7306L19.1405 5.20389C19.2647 5.07898 19.3344 4.91002 19.3344 4.73389C19.3344 4.55777 19.2647 4.3888 19.1405 4.2639C19.0785 4.20141 19.0048 4.15181 18.9236 4.11797C18.8423 4.08412 18.7552 4.0667 18.6672 4.0667C18.5792 4.0667 18.492 4.08412 18.4108 4.11797C18.3296 4.15181 18.2558 4.20141 18.1938 4.2639L11.6672 10.7906L5.14052 4.2639C5.07855 4.20141 5.0048 4.15181 4.92356 4.11797C4.84232 4.08412 4.7552 4.0667 4.6672 4.0667C4.57919 4.0667 4.49205 4.08412 4.41081 4.11797C4.32957 4.15181 4.25582 4.20141 4.19385 4.2639C4.06968 4.3888 4 4.55777 4 4.73389C4 4.91002 4.06968 5.07898 4.19385 5.20389L10.7272 11.7306L4.19385 18.2639C4.06968 18.3888 4 18.5578 4 18.7339C4 18.91 4.06968 19.079 4.19385 19.2039C4.25614 19.2657 4.33003 19.3146 4.41125 19.3477C4.49248 19.3809 4.57946 19.3977 4.6672 19.3972C4.75493 19.3977 4.84189 19.3809 4.92312 19.3477C5.00434 19.3146 5.07823 19.2657 5.14052 19.2039L11.6672 12.6772L18.1938 19.2039C18.2561 19.2657 18.33 19.3146 18.4113 19.3477C18.4925 19.3809 18.5795 19.3977 18.6672 19.3972C18.7549 19.3977 18.8419 19.3809 18.9231 19.3477C19.0043 19.3146 19.0782 19.2657 19.1405 19.2039C19.2647 19.079 19.3344 18.91 19.3344 18.7339C19.3344 18.5578 19.2647 18.3888 19.1405 18.2639L12.6138 11.7306Z" fill="white"/>
</svg>
