<svg width="48" height="48" viewBox="0 0 48 48" fill="none" xmlns="http://www.w3.org/2000/svg">
<path d="M29.6099 39.36H17.8699C16.9922 39.36 16.13 39.1289 15.3699 38.6901C14.6099 38.2513 13.9787 37.6201 13.5399 36.86L7.66988 26.69C7.23103 25.9299 7 25.0677 7 24.19C7 23.3123 7.23103 22.4501 7.66988 21.69L13.5399 11.52C13.9762 10.7562 14.6062 10.121 15.3665 9.67856C16.1267 9.23611 16.9902 9.00204 17.8699 9H29.6099C30.4875 9.00002 31.3497 9.23107 32.1098 9.66991C32.8699 10.1087 33.501 10.7399 33.9399 11.5L39.8199 21.67C40.2587 22.4301 40.4897 23.2923 40.4897 24.17C40.4897 25.0477 40.2587 25.9099 39.8199 26.67L33.9399 36.86C33.501 37.6201 32.8699 38.2513 32.1098 38.6901C31.3497 39.1289 30.4875 39.36 29.6099 39.36ZM17.8699 11C17.3429 10.9997 16.8252 11.1381 16.3688 11.4014C15.9124 11.6648 15.5333 12.0437 15.2699 12.5L9.39987 22.69C9.13657 23.1461 8.99795 23.6634 8.99795 24.19C8.99795 24.7166 9.13657 25.2339 9.39987 25.69L15.2299 35.86C15.4933 36.3163 15.8724 36.6952 16.3288 36.9586C16.7852 37.2219 17.3029 37.3603 17.8299 37.36H29.6099C30.1368 37.3603 30.6545 37.2219 31.111 36.9586C31.5674 36.6952 31.9464 36.3163 32.2099 35.86L38.0799 25.69C38.3432 25.2339 38.4818 24.7166 38.4818 24.19C38.4818 23.6634 38.3432 23.1461 38.0799 22.69L32.2299 12.52C31.9664 12.0637 31.5874 11.6848 31.131 11.4214C30.6745 11.1581 30.1568 11.0197 29.6299 11.02L17.8699 11Z" fill="white"/>
<path d="M31.1 22.43C31.0765 22.3262 31.0255 22.2306 30.9521 22.1534C30.8788 22.0763 30.786 22.0204 30.6835 21.9917C30.581 21.963 30.4726 21.9625 30.3699 21.9904C30.2672 22.0183 30.1739 22.0734 30.1 22.15L26.4699 25.8C26.3595 25.9093 26.2104 25.9706 26.0549 25.9706C25.8995 25.9706 25.7504 25.9093 25.64 25.8L22.42 22.57C22.3649 22.5168 22.3211 22.4531 22.2912 22.3827C22.2613 22.3123 22.2459 22.2365 22.2459 22.16C22.2459 22.0835 22.2613 22.0078 22.2912 21.9373C22.3211 21.8669 22.3649 21.8032 22.42 21.75L26.06 18.11C26.1365 18.0368 26.192 17.9442 26.2204 17.8421C26.2489 17.7401 26.2493 17.6322 26.2217 17.5299C26.1941 17.4276 26.1394 17.3346 26.0634 17.2607C25.9875 17.1868 25.893 17.1348 25.7899 17.11C24.4812 16.7671 23.1033 16.7911 21.8073 17.1793C20.5112 17.5676 19.3471 18.305 18.4423 19.311C17.5376 20.3169 16.9272 21.5525 16.6781 22.8823C16.429 24.2121 16.5507 25.5848 17.03 26.85L15.4799 28.4C15.3706 28.5105 15.3093 28.6596 15.3093 28.815C15.3093 28.9704 15.3706 29.1196 15.4799 29.23L18.8999 32.65C19.0104 32.7593 19.1595 32.8206 19.3149 32.8206C19.4704 32.8206 19.6195 32.7593 19.7299 32.65L21.2299 31.14C22.4964 31.6411 23.8768 31.7819 25.2183 31.5469C26.5598 31.3119 27.8102 30.7103 28.8309 29.8086C29.8516 28.9069 30.6029 27.7404 31.0016 26.4381C31.4003 25.1358 31.4309 23.7486 31.09 22.43H31.1Z" fill="#F5B83B"/>
</svg>
