<svg width="16" height="20" viewBox="0 0 16 20" fill="none" xmlns="http://www.w3.org/2000/svg">
<path fill-rule="evenodd" clip-rule="evenodd" d="M11.2647 2.1993H5.26469C5.08788 2.1993 4.91832 2.12906 4.79329 2.00404C4.66827 1.87901 4.59802 1.70944 4.59802 1.53263C4.59802 1.35582 4.66827 1.18625 4.79329 1.06123C4.91832 0.936204 5.08788 0.865967 5.26469 0.865967H11.2647C11.4415 0.865967 11.6111 0.936204 11.7361 1.06123C11.8611 1.18625 11.9314 1.35582 11.9314 1.53263C11.9314 1.70944 11.8611 1.87901 11.7361 2.00404C11.6111 2.12906 11.4415 2.1993 11.2647 2.1993ZM1.61137 3.54597H14.9447C15.0345 3.54238 15.124 3.55696 15.208 3.58885C15.292 3.62074 15.3687 3.66928 15.4334 3.73155C15.4982 3.79381 15.5497 3.86852 15.5849 3.95119C15.62 4.03386 15.6381 4.1228 15.638 4.21264C15.638 4.38945 15.5678 4.55902 15.4428 4.68404C15.3177 4.80906 15.1482 4.8793 14.9714 4.8793H14.6247V16.5393C14.6247 17.2465 14.3437 17.9248 13.8436 18.4249C13.3435 18.925 12.6653 19.206 11.958 19.206H4.62469C3.91745 19.206 3.23917 18.925 2.73907 18.4249C2.23898 17.9248 1.95803 17.2465 1.95803 16.5393V4.8793H1.61137C1.43456 4.8793 1.26498 4.80906 1.13995 4.68404C1.01493 4.55902 0.944702 4.38945 0.944702 4.21264C0.944702 4.03582 1.01493 3.86625 1.13995 3.74123C1.26498 3.61621 1.43456 3.54597 1.61137 3.54597ZM12.8742 17.4821C13.1242 17.2321 13.2647 16.8929 13.2647 16.5393V4.8793H3.26469V16.5393C3.26469 16.8929 3.40518 17.2321 3.65523 17.4821C3.90528 17.7322 4.2444 17.8726 4.59802 17.8726H11.9314C12.285 17.8726 12.6241 17.7322 12.8742 17.4821ZM6.57133 16.0393C6.74814 16.0393 6.9177 15.9691 7.04272 15.844C7.16775 15.719 7.238 15.5494 7.238 15.3726V7.37263C7.238 7.19582 7.16775 7.02625 7.04272 6.90122C6.9177 6.7762 6.74814 6.70596 6.57133 6.70596C6.39452 6.70596 6.22494 6.7762 6.09992 6.90122C5.97489 7.02625 5.90466 7.19582 5.90466 7.37263V15.3726C5.90466 15.5494 5.97489 15.719 6.09992 15.844C6.22494 15.9691 6.39452 16.0393 6.57133 16.0393ZM10.4293 15.844C10.3043 15.9691 10.1347 16.0393 9.95789 16.0393C9.78107 16.0393 9.61152 15.9691 9.48649 15.844C9.36147 15.719 9.29122 15.5494 9.29122 15.3726V7.37263C9.29122 7.19582 9.36147 7.02625 9.48649 6.90122C9.61152 6.7762 9.78107 6.70596 9.95789 6.70596C10.1347 6.70596 10.3043 6.7762 10.4293 6.90122C10.5543 7.02625 10.6246 7.19582 10.6246 7.37263V15.3726C10.6246 15.5494 10.5543 15.719 10.4293 15.844Z" fill="white"/>
</svg>
