<svg width="24" height="24" viewBox="0 0 24 24" fill="none" xmlns="http://www.w3.org/2000/svg">
<path d="M20.6133 5.33334H17.7C17.5232 5.33334 17.3536 5.40358 17.2286 5.5286C17.1036 5.65363 17.0333 5.8232 17.0333 6.00001C17.0333 6.17682 17.1036 6.34639 17.2286 6.47141C17.3536 6.59644 17.5232 6.66668 17.7 6.66668H20.6667V20H3.33333V6.66668H6.25333C6.43014 6.66668 6.59971 6.59644 6.72474 6.47141C6.84976 6.34639 6.92 6.17682 6.92 6.00001C6.92 5.8232 6.84976 5.65363 6.72474 5.5286C6.59971 5.40358 6.43014 5.33334 6.25333 5.33334H3.38667C3.20714 5.32616 3.028 5.35533 2.86003 5.41911C2.69205 5.48289 2.5387 5.57996 2.40919 5.7045C2.27967 5.82903 2.17666 5.97846 2.10635 6.1438C2.03603 6.30915 1.99986 6.487 2 6.66668V20C1.99986 20.1797 2.03603 20.3575 2.10635 20.5229C2.17666 20.6882 2.27967 20.8377 2.40919 20.9622C2.5387 21.0867 2.69205 21.1838 2.86003 21.2476C3.028 21.3114 3.20714 21.3405 3.38667 21.3333H20.6133C20.7929 21.3405 20.972 21.3114 21.14 21.2476C21.3079 21.1838 21.4613 21.0867 21.5908 20.9622C21.7203 20.8377 21.8233 20.6882 21.8937 20.5229C21.964 20.3575 22.0001 20.1797 22 20V6.66668C22.0001 6.487 21.964 6.30915 21.8937 6.1438C21.8233 5.97846 21.7203 5.82903 21.5908 5.7045C21.4613 5.57996 21.3079 5.48289 21.14 5.41911C20.972 5.35533 20.7929 5.32616 20.6133 5.33334Z" fill="white"/>
<path d="M6.86667 12.58L11.5333 17.1733C11.658 17.2955 11.8255 17.3639 12 17.3639C12.1745 17.3639 12.342 17.2955 12.4667 17.1733L17.1333 12.58C17.2598 12.4562 17.3318 12.2873 17.3337 12.1104C17.3356 11.9335 17.2671 11.7631 17.1433 11.6367C17.0196 11.5102 16.8506 11.4382 16.6737 11.4363C16.4968 11.4344 16.3264 11.5029 16.2 11.6267L12.6667 15.1V2.66667C12.6667 2.48986 12.5964 2.32029 12.4714 2.19526C12.3464 2.07024 12.1768 2 12 2C11.8232 2 11.6536 2.07024 11.5286 2.19526C11.4036 2.32029 11.3333 2.48986 11.3333 2.66667V15.1L7.8 11.6267C7.67358 11.5029 7.50317 11.4344 7.32626 11.4363C7.14935 11.4382 6.98044 11.5102 6.85667 11.6367C6.7329 11.7631 6.66442 11.9335 6.6663 12.1104C6.66817 12.2873 6.74025 12.4562 6.86667 12.58Z" fill="white"/>
</svg>
