<svg width="20" height="20" viewBox="0 0 20 20" fill="none" xmlns="http://www.w3.org/2000/svg">
<path d="M19.5914 7.79337C19.5099 7.54478 19.3571 7.32564 19.1521 7.16324C18.947 7.00084 18.6987 6.90235 18.438 6.88003L13.1847 6.43337L11.1314 1.59336C11.0293 1.35237 10.8586 1.14674 10.6404 1.00211C10.4223 0.857476 10.1664 0.780243 9.90471 0.780029C9.64299 0.780243 9.38712 0.857476 9.16899 1.00211C8.95086 1.14674 8.7801 1.35237 8.67803 1.59336L6.62472 6.43337L1.37139 6.88003C1.11075 6.90235 0.862433 7.00084 0.657357 7.16324C0.45228 7.32564 0.299474 7.54478 0.218026 7.79337C0.136785 8.04252 0.130777 8.31008 0.200732 8.56263C0.270688 8.81518 0.413523 9.04153 0.611377 9.21337L4.61138 12.6734L3.41806 17.8067C3.35725 18.0627 3.37355 18.331 3.46489 18.5777C3.55624 18.8245 3.71853 19.0387 3.93136 19.1934C4.15829 19.3577 4.43123 19.4463 4.71139 19.4467C4.94679 19.4422 5.1768 19.3755 5.37806 19.2534L9.89137 16.5267L14.4047 19.2534C14.606 19.3755 14.836 19.4422 15.0714 19.4467C15.3515 19.4463 15.6244 19.3577 15.8514 19.1934C16.0642 19.0387 16.2265 18.8245 16.3179 18.5777C16.4092 18.331 16.4255 18.0627 16.3647 17.8067L15.1714 12.6734L19.1714 9.21337C19.3739 9.04469 19.5219 8.81977 19.5966 8.56703C19.6714 8.31429 19.6695 8.04507 19.5914 7.79337Z" fill="white"/>
</svg>
