<svg width="20" height="19" viewBox="0 0 20 19" fill="none" xmlns="http://www.w3.org/2000/svg">
<path d="M16.9447 3.02598H10.7847L8.54474 1.15265C8.0659 0.752697 7.46198 0.533309 6.83807 0.532654H3.65141C2.94416 0.532654 2.26588 0.813603 1.76579 1.3137C1.26569 1.8138 0.984741 2.49208 0.984741 3.19932V15.5127C0.984741 16.2199 1.26569 16.8982 1.76579 17.3983C2.26588 17.8984 2.94416 18.1793 3.65141 18.1793H16.9447C17.652 18.1793 18.3302 17.8984 18.8303 17.3983C19.3304 16.8982 19.6114 16.2199 19.6114 15.5127V5.69265C19.6114 4.9854 19.3304 4.30712 18.8303 3.80703C18.3302 3.30693 17.652 3.02598 16.9447 3.02598ZM3.65141 1.86599H6.83807C7.15044 1.86725 7.45245 1.97814 7.69141 2.17932L9.9314 4.04598C10.1704 4.24716 10.4724 4.35805 10.7847 4.35931H16.9447C17.2984 4.35931 17.6375 4.49979 17.8876 4.74984C18.1376 4.99989 18.2781 5.33903 18.2781 5.69265V6.88599C17.8754 6.64362 17.4147 6.51463 16.9447 6.51265H3.65141C3.18143 6.51463 2.72074 6.64362 2.31807 6.88599V3.19932C2.31807 2.8457 2.45855 2.50656 2.7086 2.25651C2.95865 2.00646 3.29779 1.86599 3.65141 1.86599ZM18.2781 15.5127C18.2781 15.8663 18.1376 16.2054 17.8876 16.4555C17.6375 16.7055 17.2984 16.846 16.9447 16.846H3.65141C3.29779 16.846 2.95865 16.7055 2.7086 16.4555C2.45855 16.2054 2.31807 15.8663 2.31807 15.5127V9.17932C2.31807 8.8257 2.45855 8.48656 2.7086 8.23651C2.95865 7.98646 3.29779 7.84599 3.65141 7.84599H16.9447C17.2984 7.84599 17.6375 7.98646 17.8876 8.23651C18.1376 8.48656 18.2781 8.8257 18.2781 9.17932V15.5127Z" fill="white"/>
</svg>
