<svg width="24" height="24" viewBox="0 0 24 24" fill="none" xmlns="http://www.w3.org/2000/svg">
<path fill-rule="evenodd" clip-rule="evenodd" d="M14.0784 10.0469C13.4015 10.0469 12.8522 9.49915 12.8522 8.82385C12.8522 8.14919 13.4015 7.60172 14.0784 7.60172C14.7543 7.60172 15.3035 8.14919 15.3035 8.82385C15.3035 9.49915 14.7543 10.0469 14.0784 10.0469ZM11.9075 12.2118C11.2312 12.2118 10.6824 11.6641 10.6824 10.9898C10.6824 10.3142 11.2312 9.76675 11.9075 9.76675C12.5841 9.76675 13.1332 10.3142 13.1332 10.9898C13.1332 11.6641 12.5841 12.2118 11.9075 12.2118ZM9.73776 10.0469C9.06118 10.0469 8.51221 9.49915 8.51221 8.82385C8.51221 8.14919 9.06118 7.60172 9.73776 7.60172C10.4132 7.60172 10.9629 8.14919 10.9629 8.82385C10.9629 9.49915 10.4132 10.0469 9.73776 10.0469ZM11.9075 5.4364C12.5841 5.4364 13.1332 5.98426 13.1332 6.65917C13.1332 7.33269 12.5841 7.88093 11.9075 7.88093C11.2312 7.88093 10.6824 7.33269 10.6824 6.65917C10.6824 5.98426 11.2312 5.4364 11.9075 5.4364ZM16.0139 12.9097C17.3593 11.9439 18.1148 10.5075 18.1383 9.04725C18.1856 8.01095 17.8789 6.85685 17.029 5.91486L18.5396 4.1252L15.4004 1.88757C15.0225 2.38224 14.5505 2.97122 14.1491 3.48912C13.3703 3.20644 12.5438 3.04167 11.7415 3.04167C8.12997 3.04167 5.25 5.34974 5.25 9.00016C5.25 12.2803 7.38304 14.4475 10.7213 14.8099V14.3839C10.7213 13.733 11.2555 13.2001 11.9078 13.2001C12.5604 13.2001 13.0945 13.733 13.0945 14.3839V15.3968H14.1099C14.7623 15.3968 15.2962 15.9296 15.2962 16.5806C15.2962 17.2316 14.7623 17.7647 14.1099 17.7647H13.0945V18.7773C13.0945 19.4284 12.5604 19.9614 11.9078 19.9614C11.2555 19.9614 10.7213 19.4284 10.7213 18.7773V17.7647H9.7064C9.05362 17.7647 8.5194 17.2316 8.5194 16.5806C8.5194 16.3174 8.60782 16.0743 8.7549 15.8773H5.41526C5.17952 19.4331 7.5165 21.6001 11.6944 21.6001C15.0225 21.6001 18.3037 20.187 18.3037 16.4189C18.3037 15.783 18.1618 14.1343 16.0139 12.9097Z" fill="white"/>
</svg>
