<svg width="24" height="24" viewBox="0 0 24 24" fill="none" xmlns="http://www.w3.org/2000/svg">
<circle cx="12" cy="12" r="12" fill="#3073FF"/>
<path fill-rule="evenodd" clip-rule="evenodd" d="M17.0846 14.51C17.0846 15.8906 16.5945 17.0673 15.6136 18.0403C14.633 19.0133 13.4517 19.5 12.0694 19.5H10.4504C9.98981 19.5 9.59143 19.3357 9.25577 19.0068C8.92012 18.6782 8.7523 18.2837 8.7523 17.8234C8.7523 17.3633 8.91687 16.9687 9.246 16.6399C9.57513 16.3113 9.96998 16.147 10.4308 16.147H12.0499C12.5104 16.147 12.902 15.986 13.2247 15.6636C13.547 15.3415 13.7083 14.957 13.7083 14.51V11.1372C13.7083 10.6769 13.547 10.2859 13.2247 9.96353C12.902 9.64146 12.517 9.48042 12.0694 9.48042C11.6089 9.48042 11.214 9.64471 10.8849 9.97358C10.5557 10.3022 10.3912 10.6902 10.3912 11.1372C10.3912 11.4658 10.5359 11.834 10.8257 12.2417C11.1152 12.6493 11.2599 13.0175 11.2599 13.3464C11.2599 13.8064 11.0953 14.201 10.7665 14.5296C10.4373 14.8584 10.0425 15.0227 9.58165 15.0227C8.83132 15.0227 8.1994 14.5426 7.68615 13.5829C7.25165 12.7807 7.03467 11.9655 7.03467 11.1372C7.03467 9.7566 7.52484 8.57639 8.50545 7.59686C9.48633 6.61734 10.6676 6.12744 12.0499 6.12744C13.4319 6.12744 14.6167 6.61734 15.6038 7.59686C16.5909 8.57639 17.0846 9.7566 17.0846 11.1372V14.51Z" fill="white"/>
<path fill-rule="evenodd" clip-rule="evenodd" d="M6.07827 7.25958C5.81567 6.38352 5.70488 5.46863 5.70488 5.46863C5.6693 5.22232 5.84039 5.06075 6.08479 5.10827C6.08479 5.10827 6.97117 5.27229 7.65062 5.44148C8.3298 5.61066 9.00897 5.86158 9.00897 5.86158C9.00897 5.86158 8.26625 6.29364 7.63134 7.00051C6.99643 7.70739 6.66947 8.70348 6.66947 8.70348C6.66947 8.70348 6.34088 8.13537 6.07827 7.25958Z" fill="white"/>
<path fill-rule="evenodd" clip-rule="evenodd" d="M18.1219 7.25958C18.3845 6.38352 18.495 5.46863 18.495 5.46863C18.5306 5.22232 18.3598 5.06075 18.1154 5.10827C18.1154 5.10827 17.229 5.27229 16.5495 5.44148C15.8701 5.61066 15.1909 5.86158 15.1909 5.86158C15.1909 5.86158 15.9336 6.29364 16.5688 7.00051C17.2037 7.70739 17.5307 8.70348 17.5307 8.70348C17.5307 8.70348 17.8593 8.13537 18.1219 7.25958Z" fill="white"/>
</svg>
