<svg t="1641982769008" class="icon" viewBox="0 0 1024 1024" version="1.1" xmlns="http://www.w3.org/2000/svg" p-id="1290" width="200" height="200"><path d="M783.264 113.792H214.368A113.76 113.76 0 0 0 100.576 227.52V668.48A113.76 113.76 0 0 0 214.4 782.208h168.64l44.672 67.424a85.344 85.344 0 0 0 71.136 37.824 85.344 85.344 0 0 0 71.104-37.824l44.672-67.424h168.64a113.792 113.792 0 0 0 113.792-113.76V227.52a113.792 113.792 0 0 0-113.76-113.76z m56.864 554.656a56.896 56.896 0 0 1-56.864 56.896h-168.672a56.896 56.896 0 0 0-47.232 25.28l-44.928 67.424a28.48 28.48 0 0 1-47.232 0l-43.52-68.8a56.896 56.896 0 0 0-47.232-25.344h-168.64a56.896 56.896 0 0 1-56.928-56.896V227.552a56.896 56.896 0 0 1 56.896-56.896h568.896a56.896 56.896 0 0 1 56.896 56.896l-1.44 440.896z m-319.68-409.6a121.472 121.472 0 0 0-138.56 89.6 28.384 28.384 0 0 0 21.056 34.4 28.448 28.448 0 0 0 34.4-20.768 62.88 62.88 0 0 1 73.12-47.2 64 64 0 0 1 50.624 50.624 63.424 63.424 0 0 1-31.84 67.424 108.608 108.608 0 0 0-58.88 95.296 28.448 28.448 0 0 0 56.864 0 52.64 52.64 0 0 1 28.48-44.96 120.608 120.608 0 0 0 60.288-127.136 121.216 121.216 0 0 0-95.584-97.28z m-51.52 348.16a43.52 43.52 0 0 1 47.392-9.536c5.28 2.24 10.048 5.44 14.08 9.536a43.52 43.52 0 0 1 0 61.728 43.52 43.52 0 0 1-30.72 12.48 44.384 44.384 0 0 1-30.72-12.48 43.84 43.84 0 0 1-12.8-31.04c0-11.52 4.608-22.56 12.8-30.72z" p-id="1291"></path></svg>