<svg width="32" height="32" viewBox="0 0 32 32" fill="none" xmlns="http://www.w3.org/2000/svg">
<path d="M16.0001 5.33344C16.7071 5.33406 17.3849 5.61542 17.8845 6.11566L25.6267 13.8579C25.9568 14.1883 26.2186 14.5806 26.397 15.0122C26.5755 15.4438 26.6671 15.9064 26.6668 16.3734V24.8623C26.6668 25.3338 26.4794 25.786 26.1461 26.1194C25.8127 26.4528 25.3605 26.6401 24.889 26.6401H7.11122C6.63973 26.6401 6.18751 26.4528 5.85411 26.1194C5.52072 25.786 5.33344 25.3338 5.33344 24.8623V16.3734C5.33308 15.9064 5.42469 15.4438 5.60314 15.0122C5.78158 14.5806 6.04335 14.1883 6.37343 13.8579L14.1068 6.11566C14.3552 5.86691 14.6504 5.66974 14.9753 5.53549C15.3002 5.40125 15.6485 5.33258 16.0001 5.33344ZM16.0001 3.55566C15.4131 3.55631 14.8322 3.67464 14.2917 3.90365C13.7512 4.13266 13.2622 4.46772 12.8534 4.889L5.11122 12.6312C4.114 13.6319 3.55455 14.9874 3.55567 16.4001V24.889C3.5553 25.3561 3.64691 25.8186 3.82536 26.2502C4.00381 26.6819 4.26557 27.0741 4.59565 27.4046C4.9261 27.7346 5.31832 27.9964 5.74995 28.1748C6.18157 28.3533 6.64416 28.4449 7.11122 28.4446H24.889C25.832 28.4446 26.7364 28.0699 27.4032 27.4032C28.07 26.7364 28.4446 25.832 28.4446 24.889V16.3734C28.4433 14.9594 27.8806 13.6038 26.8801 12.6046L19.1379 4.889C18.3049 4.05816 17.1766 3.59147 16.0001 3.59122V3.55566Z" fill="white"/>
</svg>
