<svg width="39" height="28" viewBox="0 0 39 28" fill="none" xmlns="http://www.w3.org/2000/svg">
<path d="M33.0121 5.07879H20.3152V2.53939H22.8545C23.1913 2.53939 23.5142 2.40562 23.7523 2.16751C23.9905 1.9294 24.1242 1.60644 24.1242 1.2697C24.1242 0.932952 23.9905 0.609999 23.7523 0.371885C23.5142 0.13377 23.1913 0 22.8545 0H19.0455C18.7087 0 18.3858 0.13377 18.1477 0.371885C17.9095 0.609999 17.7758 0.932952 17.7758 1.2697V5.07879H5.07879C3.73181 5.07879 2.44 5.61387 1.48754 6.56633C0.535081 7.51878 0 8.8106 0 10.1576V22.8545C0 24.2015 0.535081 25.4933 1.48754 26.4458C2.44 27.3982 3.73181 27.9333 5.07879 27.9333H33.0121C34.3591 27.9333 35.6509 27.3982 36.6034 26.4458C37.5558 25.4933 38.0909 24.2015 38.0909 22.8545V10.1576C38.0909 8.8106 37.5558 7.51878 36.6034 6.56633C35.6509 5.61387 34.3591 5.07879 33.0121 5.07879ZM35.5515 22.8545C35.5515 23.528 35.284 24.1739 34.8077 24.6502C34.3315 25.1264 33.6856 25.3939 33.0121 25.3939H5.07879C4.4053 25.3939 3.75939 25.1264 3.28316 24.6502C2.80693 24.1739 2.53939 23.528 2.53939 22.8545V10.1576C2.53939 9.48409 2.80693 8.83818 3.28316 8.36195C3.75939 7.88572 4.4053 7.61818 5.07879 7.61818H33.0121C33.6856 7.61818 34.3315 7.88572 34.8077 8.36195C35.284 8.83818 35.5515 9.48409 35.5515 10.1576V22.8545Z" fill="white"/>
<path d="M8.93873 17.7885H6.39934C5.6981 17.7885 5.12964 18.3569 5.12964 19.0582V21.5976C5.12964 22.2988 5.6981 22.8673 6.39934 22.8673H8.93873C9.63996 22.8673 10.2084 22.2988 10.2084 21.5976V19.0582C10.2084 18.3569 9.63996 17.7885 8.93873 17.7885Z" fill="white"/>
<path d="M31.7932 17.7885H29.2538C28.5526 17.7885 27.9841 18.3569 27.9841 19.0582V21.5976C27.9841 22.2988 28.5526 22.8673 29.2538 22.8673H31.7932C32.4945 22.8673 33.0629 22.2988 33.0629 21.5976V19.0582C33.0629 18.3569 32.4945 17.7885 31.7932 17.7885Z" fill="white"/>
<path d="M8.93873 10.1703H6.39934C5.6981 10.1703 5.12964 10.7388 5.12964 11.44V13.9794C5.12964 14.6806 5.6981 15.2491 6.39934 15.2491H8.93873C9.63996 15.2491 10.2084 14.6806 10.2084 13.9794V11.44C10.2084 10.7388 9.63996 10.1703 8.93873 10.1703Z" fill="white"/>
<path d="M31.7932 10.1703H29.2538C28.5526 10.1703 27.9841 10.7388 27.9841 11.44V13.9794C27.9841 14.6806 28.5526 15.2491 29.2538 15.2491H31.7932C32.4945 15.2491 33.0629 14.6806 33.0629 13.9794V11.44C33.0629 10.7388 32.4945 10.1703 31.7932 10.1703Z" fill="white"/>
<path d="M24.1751 10.1703H21.6357C20.9344 10.1703 20.366 10.7388 20.366 11.44V13.9794C20.366 14.6806 20.9344 15.2491 21.6357 15.2491H24.1751C24.8763 15.2491 25.4448 14.6806 25.4448 13.9794V11.44C25.4448 10.7388 24.8763 10.1703 24.1751 10.1703Z" fill="white"/>
<path d="M16.5569 10.1703H14.0175C13.3163 10.1703 12.7478 10.7388 12.7478 11.44V13.9794C12.7478 14.6806 13.3163 15.2491 14.0175 15.2491H16.5569C17.2581 15.2491 17.8266 14.6806 17.8266 13.9794V11.44C17.8266 10.7388 17.2581 10.1703 16.5569 10.1703Z" fill="white"/>
<path d="M24.1751 17.7885H14.0175C13.3163 17.7885 12.7478 18.3569 12.7478 19.0582V21.5976C12.7478 22.2988 13.3163 22.8673 14.0175 22.8673H24.1751C24.8763 22.8673 25.4448 22.2988 25.4448 21.5976V19.0582C25.4448 18.3569 24.8763 17.7885 24.1751 17.7885Z" fill="#F5B83B"/>
</svg>
