<svg width="31" height="28" viewBox="0 0 31 28" xmlns="http://www.w3.org/2000/svg">
<path d="M27.1667 0.666687H3.83333C2.94928 0.666687 2.10143 1.01788 1.47631 1.643C0.851189 2.26812 0.5 3.11597 0.5 4.00002V24C0.5 24.8841 0.851189 25.7319 1.47631 26.357C2.10143 26.9822 2.94928 27.3334 3.83333 27.3334H27.1667C29 27.3334 30.5 25.8334 30.5 24V4.00002C30.5 2.16669 29 0.666687 27.1667 0.666687ZM13.8333 19H11.3333V15.6667H8V19H5.5V9.00002H8V13.1667H11.3333V9.00002H13.8333V19ZM25.5 17.3334C25.5 18.25 24.75 19 23.8333 19H22.5833V21.5H20.0833V19H18.8333C17.9167 19 17.1667 18.25 17.1667 17.3334V10.6667C17.1667 9.75002 17.9167 9.00002 18.8333 9.00002H23.8333C24.75 9.00002 25.5 9.75002 25.5 10.6667V17.3334ZM19.6667 16.5H23V11.5H19.6667V16.5Z" />
</svg>
