<svg width="17" height="18" viewBox="0 0 17 18"  xmlns="http://www.w3.org/2000/svg">
<path d="M8.49984 2.33335C6.73173 2.33335 5.03603 3.03573 3.78579 4.28598C2.53555 5.53622 1.83317 7.23191 1.83317 9.00002C1.83317 10.7681 2.53555 12.4638 3.78579 13.7141C5.03603 14.9643 6.73173 15.6667 8.49984 15.6667C10.2679 15.6667 11.9636 14.9643 13.2139 13.7141C14.4641 12.4638 15.1665 10.7681 15.1665 9.00002C15.1665 7.23191 14.4641 5.53622 13.2139 4.28598C11.9636 3.03573 10.2679 2.33335 8.49984 2.33335V2.33335ZM0.166504 9.00002C0.166504 4.39752 3.89734 0.666687 8.49984 0.666687C13.1023 0.666687 16.8332 4.39752 16.8332 9.00002C16.8332 13.6025 13.1023 17.3334 8.49984 17.3334C3.89734 17.3334 0.166504 13.6025 0.166504 9.00002ZM8.49984 13.1667C8.72085 13.1667 8.93281 13.0789 9.08909 12.9226C9.24537 12.7663 9.33317 12.5544 9.33317 12.3334V9.00002C9.33317 8.77901 9.24537 8.56705 9.08909 8.41077C8.93281 8.25448 8.72085 8.16669 8.49984 8.16669C8.27882 8.16669 8.06686 8.25448 7.91058 8.41077C7.7543 8.56705 7.6665 8.77901 7.6665 9.00002V12.3334C7.6665 12.5544 7.7543 12.7663 7.91058 12.9226C8.06686 13.0789 8.27882 13.1667 8.49984 13.1667ZM8.49984 4.83335C8.27882 4.83335 8.06686 4.92115 7.91058 5.07743C7.7543 5.23371 7.6665 5.44567 7.6665 5.66669C7.6665 5.8877 7.7543 6.09966 7.91058 6.25594C8.06686 6.41222 8.27882 6.50002 8.49984 6.50002H8.50817C8.72918 6.50002 8.94115 6.41222 9.09743 6.25594C9.25371 6.09966 9.3415 5.8877 9.3415 5.66669C9.3415 5.44567 9.25371 5.23371 9.09743 5.07743C8.94115 4.92115 8.72918 4.83335 8.50817 4.83335H8.49984Z" />
</svg>
