<svg width="22" height="10" viewBox="0 0 22 10"  xmlns="http://www.w3.org/2000/svg">
<path d="M8.531 0.25H5C3.80653 0.25 2.66193 0.724106 1.81802 1.56802C0.974106 2.41193 0.5 3.55653 0.5 4.75C0.5 5.94347 0.974106 7.08807 1.81802 7.93198C2.66193 8.77589 3.80653 9.25 5 9.25H9.5C10.2201 9.25038 10.9298 9.07793 11.5694 8.74715C12.2091 8.41636 12.76 7.9369 13.1759 7.34904C13.5918 6.76118 13.8606 6.08209 13.9596 5.36882C14.0586 4.65555 13.985 3.92893 13.745 3.25H12.5C12.371 3.25 12.245 3.265 12.125 3.2965C12.378 3.75326 12.5074 4.26813 12.5004 4.79022C12.4934 5.31231 12.3502 5.82353 12.0851 6.27334C11.82 6.72315 11.442 7.09598 10.9886 7.35496C10.5353 7.61394 10.0221 7.75011 9.5 7.75H5C4.20435 7.75 3.44129 7.43393 2.87868 6.87132C2.31607 6.30871 2 5.54565 2 4.75C2 3.95435 2.31607 3.19129 2.87868 2.62868C3.44129 2.06607 4.20435 1.75 5 1.75H7.3025C7.6295 1.186 8.045 0.679 8.5325 0.25H8.531Z" />
<path d="M12.4999 0.250001C11.7798 0.249623 11.0701 0.42207 10.4305 0.752855C9.79083 1.08364 9.23992 1.5631 8.82401 2.15096C8.40809 2.73882 8.13934 3.41791 8.04031 4.13118C7.94128 4.84445 8.01488 5.57107 8.25492 6.25H9.90192C9.63862 5.79395 9.5 5.27662 9.5 4.75002C9.49999 4.22342 9.6386 3.70609 9.9019 3.25003C10.1652 2.79398 10.5439 2.41526 10.9999 2.15195C11.456 1.88864 11.9733 1.75001 12.4999 1.75H16.9999C17.7956 1.75 18.5586 2.06607 19.1212 2.62868C19.6838 3.19129 19.9999 3.95435 19.9999 4.75C19.9999 5.54565 19.6838 6.30871 19.1212 6.87132C18.5586 7.43393 17.7956 7.75 16.9999 7.75H14.6974C14.3711 8.3131 13.9557 8.81966 13.4674 9.25H16.9999C17.5909 9.25 18.176 9.1336 18.722 8.90746C19.268 8.68131 19.764 8.34984 20.1819 7.93198C20.5998 7.51412 20.9312 7.01804 21.1574 6.47208C21.3835 5.92611 21.4999 5.34095 21.4999 4.75C21.4999 4.15905 21.3835 3.57389 21.1574 3.02792C20.9312 2.48196 20.5998 1.98588 20.1819 1.56802C19.764 1.15016 19.268 0.818689 18.722 0.592543C18.176 0.366397 17.5909 0.250001 16.9999 0.250001H12.4999Z" />
</svg>
