<svg width="72" height="36" viewBox="0 0 72 36" fill="none" xmlns="http://www.w3.org/2000/svg">
<path d="M70.5629 7.93521C70.3974 7.5097 70.1846 7.15511 69.8773 6.8478C67.9862 4.95666 63.7075 6.02042 59.1924 9.14081C57.6558 10.2046 56.1193 11.4811 54.63 12.9704C54.3463 13.254 54.0626 13.5377 53.8026 13.8214C51.8405 15.9017 51.8405 19.1639 53.8026 21.2441C54.0626 21.5278 54.3463 21.8115 54.63 22.0952C56.1193 23.5844 57.6795 24.8846 59.1924 25.9247C63.7075 29.0451 68.0098 30.1089 69.8773 28.2177C70.1846 27.9104 70.421 27.5322 70.5629 27.1303C70.5865 27.0594 70.6101 26.9885 70.6338 26.9176C72.3358 21.7878 72.5959 12.6867 70.5629 7.93521Z" fill="#FFCC48"/>
<path d="M46.5694 4.30235C44.7729 2.31665 42.2671 0.992851 39.4067 0.709179C34.5134 0.236393 29.62 0 24.7267 0C19.8334 0 14.9164 0.236393 10.0467 0.709179C4.34963 1.25288 0 6.02802 0 11.7724V23.592C0 26.4524 1.08741 29.0763 2.884 31.062C4.68059 33.0477 7.18635 34.3715 10.0467 34.6552C19.8097 35.6008 29.6437 35.6008 39.4067 34.6552C45.1038 34.1115 49.4534 29.3364 49.4534 23.592V11.7724C49.4534 8.91201 48.366 6.26441 46.5694 4.30235ZM24.7267 29.6673C18.2495 29.6673 13.0016 24.4194 13.0016 17.9422C13.0016 11.4651 18.2495 6.21713 24.7267 6.21713C31.2039 6.21713 36.4518 11.4651 36.4518 17.9422C36.4518 24.4194 31.2039 29.6673 24.7267 29.6673Z" fill="#FFCC48"/>
<path d="M20.377 21.6536C19.0532 21.6536 17.9658 20.5662 17.9658 19.2424V16.6657C17.9658 15.3419 19.0532 14.2545 20.377 14.2545C21.7008 14.2545 22.7882 15.3419 22.7882 16.6657V19.2424C22.7882 20.5662 21.7245 21.6536 20.377 21.6536Z" fill="#FFCC48"/>
<path d="M29.0763 21.6536C27.7524 21.6536 26.665 20.5662 26.665 19.2424V16.6657C26.665 15.3419 27.7524 14.2545 29.0763 14.2545C30.4001 14.2545 31.4875 15.3419 31.4875 16.6657V19.2424C31.4875 20.5662 30.4001 21.6536 29.0763 21.6536Z" fill="#FFCC48"/>
</svg>
