<svg width="31" height="28" viewBox="0 0 31 28" xmlns="http://www.w3.org/2000/svg">
<path d="M19.6667 16.5H23V11.5H19.6667V16.5ZM25.5 17.3333C25.5 18.3333 24.8333 19 23.8333 19H22.5833V21.5H20.0833V19H18.8333C17.8333 19 17.1667 18.3333 17.1667 17.3333V10.6667C17.1667 9.66666 17.8333 8.99999 18.8333 8.99999H23.8333C24.8333 8.99999 25.5 9.66666 25.5 10.6667V17.3333ZM27.1667 0.666656H3.83333C2.94928 0.666656 2.10143 1.01785 1.47631 1.64297C0.851189 2.26809 0.5 3.11593 0.5 3.99999V24C0.5 24.884 0.851189 25.7319 1.47631 26.357C2.10143 26.9821 2.94928 27.3333 3.83333 27.3333H27.1667C28.0507 27.3333 28.8986 26.9821 29.5237 26.357C30.1488 25.7319 30.5 24.884 30.5 24V3.99999C30.5 3.11593 30.1488 2.26809 29.5237 1.64297C28.8986 1.01785 28.0507 0.666656 27.1667 0.666656ZM13.8333 16.5V19H5.5V8.99999H8V16.5H13.8333Z"/>
</svg>
