<svg width="18" height="19" viewBox="0 0 18 19" fill="none" xmlns="http://www.w3.org/2000/svg">
<path d="M11.5308 6.09401C11.821 6.09401 12.0992 6.20927 12.3044 6.41443C12.5096 6.6196 12.6248 6.89786 12.6248 7.18801V16.5254C12.6248 16.8155 12.5096 17.0938 12.3044 17.2989C12.0992 17.5041 11.821 17.6194 11.5308 17.6194H2.18801C1.89787 17.6194 1.61958 17.5041 1.41442 17.2989C1.20925 17.0938 1.09401 16.8155 1.09401 16.5254V7.18801C1.09401 6.89786 1.20925 6.6196 1.41442 6.41443C1.61958 6.20927 1.89787 6.09401 2.18801 6.09401H11.5308ZM11.5308 5H2.18801C1.60772 5 1.05118 5.23052 0.640853 5.64085C0.230521 6.05118 0 6.60772 0 7.18801V16.5254C0 17.1057 0.230521 17.6622 0.640853 18.0725C1.05118 18.4829 1.60772 18.7134 2.18801 18.7134H11.5308C12.1111 18.7134 12.6676 18.4829 13.078 18.0725C13.4883 17.6622 13.7188 17.1057 13.7188 16.5254V7.18801C13.7188 6.60772 13.4883 6.05118 13.078 5.64085C12.6676 5.23052 12.1111 5 11.5308 5Z" fill="white"/>
<path d="M15.5308 1.09401C15.821 1.09401 16.0992 1.20927 16.3044 1.41443C16.5096 1.6196 16.6248 1.89786 16.6248 2.18801V11.5254C16.6248 11.8155 16.5096 12.0938 16.3044 12.2989C16.0992 12.5041 15.821 12.6194 15.5308 12.6194H6.18801C5.89787 12.6194 5.61958 12.5041 5.41442 12.2989C5.20925 12.0938 5.09401 11.8155 5.09401 11.5254V2.18801C5.09401 1.89786 5.20925 1.6196 5.41442 1.41443C5.61958 1.20927 5.89787 1.09401 6.18801 1.09401H15.5308ZM15.5308 0H6.18801C5.60772 0 5.05118 0.230521 4.64085 0.640853C4.23052 1.05118 4 1.60772 4 2.18801V11.5254C4 12.1057 4.23052 12.6622 4.64085 13.0725C5.05118 13.4829 5.60772 13.7134 6.18801 13.7134H15.5308C16.1111 13.7134 16.6676 13.4829 17.078 13.0725C17.4883 12.6622 17.7188 12.1057 17.7188 11.5254V2.18801C17.7188 1.60772 17.4883 1.05118 17.078 0.640853C16.6676 0.230521 16.1111 0 15.5308 0Z" fill="white"/>
</svg>
