<svg width="18" height="19" viewBox="0 0 18 19" fill="none" xmlns="http://www.w3.org/2000/svg">
<g id="carbon:overflow-menu-vertical">
<path id="Vector" d="M9 5.97803C9.62132 5.97803 10.125 5.47435 10.125 4.85303C10.125 4.23171 9.62132 3.72803 9 3.72803C8.37868 3.72803 7.875 4.23171 7.875 4.85303C7.875 5.47435 8.37868 5.97803 9 5.97803Z" fill="white"/>
<path id="Vector_2" d="M9 10.478C9.62132 10.478 10.125 9.97435 10.125 9.35303C10.125 8.73171 9.62132 8.22803 9 8.22803C8.37868 8.22803 7.875 8.73171 7.875 9.35303C7.875 9.97435 8.37868 10.478 9 10.478Z" fill="white"/>
<path id="Vector_3" d="M9 14.978C9.62132 14.978 10.125 14.4743 10.125 13.853C10.125 13.2317 9.62132 12.728 9 12.728C8.37868 12.728 7.875 13.2317 7.875 13.853C7.875 14.4743 8.37868 14.978 9 14.978Z" fill="white"/>
</g>
</svg>
