<svg width="31" height="28" viewBox="0 0 31 28" xmlns="http://www.w3.org/2000/svg">
<path d="M30.5 4.00002V24C30.5 24.8841 30.1488 25.7319 29.5237 26.357C28.8986 26.9822 28.0507 27.3334 27.1667 27.3334H3.83333C2.94928 27.3334 2.10143 26.9822 1.47631 26.357C0.851189 25.7319 0.5 24.8841 0.5 24V4.00002C0.5 3.11597 0.851189 2.26812 1.47631 1.643C2.10143 1.01788 2.94928 0.666687 3.83333 0.666687H27.1667C28.0507 0.666687 28.8986 1.01788 29.5237 1.643C30.1488 2.26812 30.5 3.11597 30.5 4.00002ZM15.5 10.6667C15.5 9.83335 14.6667 9.00002 13.8333 9.00002H6.33333C5.5 9.00002 4.66667 9.83335 4.66667 10.6667V19H7.16667V11.5H8.83333V17.3334H11.3333V11.5H13V19H15.5V10.6667ZM19.6667 9.00002C19.2246 9.00002 18.8007 9.17561 18.4882 9.48818C18.1756 9.80074 18 10.2247 18 10.6667V17.3334C18 17.7754 18.1756 18.1993 18.4882 18.5119C18.8007 18.8244 19.2246 19 19.6667 19H21.3333V21.5H23.4167V19H24.6667C25.1087 19 25.5326 18.8244 25.8452 18.5119C26.1577 18.1993 26.3333 17.7754 26.3333 17.3334V10.6667C26.3333 10.2247 26.1577 9.80074 25.8452 9.48818C25.5326 9.17561 25.1087 9.00002 24.6667 9.00002H19.6667ZM20.5 11.5H23.8333V16.5H20.5V11.5Z" />
</svg>
