<svg t="1637129046192" class="icon" viewBox="0 0 1024 1024" version="1.1" xmlns="http://www.w3.org/2000/svg" p-id="1545" width="200" height="200"><path d="M512 0C229.376 0 0 229.376 0 512s229.376 512 512 512 512-229.376 512-512S794.624 0 512 0z m0 921.6c-225.792 0-409.6-183.808-409.6-409.6s183.808-409.6 409.6-409.6 409.6 183.808 409.6 409.6-183.808 409.6-409.6 409.6z m198.656-599.552a51.2 51.2 0 0 1 72.448 72.448l-339.3536 339.3536a48.2816 48.2816 0 0 1-68.3008 0l-134.5024-134.5024a51.0976 51.0976 0 0 1 72.192-72.3456L409.6 623.104l301.056-301.056z" p-id="1546"></path></svg>