<svg width="24" height="24" viewBox="0 0 24 24" fill="none" xmlns="http://www.w3.org/2000/svg">
<path d="M4 17H6.697L12.445 20.832C12.5958 20.9321 12.7708 20.9896 12.9516 20.9984C13.1324 21.0072 13.3122 20.967 13.472 20.882C13.6316 20.7965 13.765 20.6693 13.858 20.514C13.951 20.3587 14.0001 20.181 14 20V3.99997C13.9999 3.81909 13.9508 3.64162 13.8578 3.48646C13.7648 3.3313 13.6315 3.20427 13.472 3.11889C13.3125 3.03351 13.1329 2.99299 12.9522 3.00163C12.7715 3.01027 12.5966 3.06776 12.446 3.16797L6.697 6.99997H4C2.897 6.99997 2 7.89697 2 8.99997V15C2 16.103 2.897 17 4 17ZM4 8.99997H7C7.033 8.99997 7.061 8.98397 7.093 8.98097C7.22601 8.96741 7.35509 8.928 7.473 8.86497C7.499 8.84997 7.53 8.84797 7.555 8.83197L12 5.86797V18.132L7.555 15.168C7.53 15.151 7.499 15.148 7.473 15.135C7.35491 15.0707 7.22491 15.0312 7.091 15.019C7.059 15.016 7.032 15 7 15H4V8.99997Z" fill="white"/>
<path d="M15.2387 9.23871C15.3793 9.09826 15.57 9.01937 15.7687 9.01937C15.9675 9.01937 16.1581 9.09826 16.2987 9.23871L18.0187 10.9587L19.7387 9.23871C19.8074 9.16502 19.8902 9.10592 19.9822 9.06493C20.0742 9.02394 20.1735 9.00189 20.2742 9.00012C20.3749 8.99834 20.4749 9.01686 20.5683 9.05459C20.6617 9.09231 20.7465 9.14845 20.8177 9.21967C20.889 9.29089 20.9451 9.37572 20.9828 9.46911C21.0206 9.5625 21.0391 9.66253 21.0373 9.76323C21.0355 9.86393 21.0135 9.96325 20.9725 10.0552C20.9315 10.1472 20.8724 10.23 20.7987 10.2987L19.0787 12.0187L20.7987 13.7387C20.8724 13.8074 20.9315 13.8902 20.9725 13.9822C21.0135 14.0742 21.0355 14.1735 21.0373 14.2742C21.0391 14.3749 21.0206 14.4749 20.9828 14.5683C20.9451 14.6617 20.889 14.7465 20.8177 14.8177C20.7465 14.889 20.6617 14.9451 20.5683 14.9828C20.4749 15.0206 20.3749 15.0391 20.2742 15.0373C20.1735 15.0355 20.0742 15.0135 19.9822 14.9725C19.8902 14.9315 19.8074 14.8724 19.7387 14.7987L18.0187 13.0787L16.2987 14.7987C16.23 14.8724 16.1472 14.9315 16.0552 14.9725C15.9632 15.0135 15.8639 15.0355 15.7632 15.0373C15.6625 15.0391 15.5625 15.0206 15.4691 14.9828C15.3757 14.9451 15.2909 14.889 15.2197 14.8177C15.1485 14.7465 15.0923 14.6617 15.0546 14.5683C15.0169 14.4749 14.9983 14.3749 15.0001 14.2742C15.0019 14.1735 15.0239 14.0742 15.0649 13.9822C15.1059 13.8902 15.165 13.8074 15.2387 13.7387L16.9587 12.0187L15.2387 10.2987C15.0983 10.1581 15.0194 9.96746 15.0194 9.76871C15.0194 9.56996 15.0983 9.37933 15.2387 9.23871Z" fill="white"/>
</svg>
