<svg width="20" height="20" viewBox="0 0 20 20" fill="none" xmlns="http://www.w3.org/2000/svg">
<path d="M9.75335 2.1993L12.12 7.77931L18.1733 8.29263L13.5733 12.2926L14.9533 18.2126L9.75335 15.0726L4.54668 18.2126L5.92664 12.2926L1.33334 8.29263L7.38665 7.77931L9.75335 2.1993ZM9.75335 0.865967C9.49162 0.86618 9.23572 0.943413 9.01759 1.08804C8.79946 1.23267 8.62873 1.4383 8.52666 1.6793L6.47332 6.51931L1.21998 6.96597C0.959339 6.98829 0.711026 7.08677 0.505949 7.24918C0.300872 7.41158 0.148107 7.63071 0.0666586 7.8793C-0.0145825 8.12845 -0.0205903 8.39602 0.0493653 8.64857C0.119321 8.90112 0.262156 9.12746 0.46001 9.29931L4.46001 12.7593L3.25998 17.8926C3.19988 18.1493 3.21723 18.418 3.30978 18.6648C3.40234 18.9116 3.56596 19.1255 3.78 19.2793C4.00693 19.4436 4.27983 19.5322 4.55999 19.5326C4.79538 19.5282 5.0254 19.4615 5.22665 19.3393L9.74 16.6126L14.2533 19.3393C14.4546 19.4615 14.6846 19.5282 14.92 19.5326C15.2024 19.5336 15.4779 19.4449 15.7067 19.2793C15.9195 19.1246 16.0818 18.9104 16.1731 18.6636C16.2645 18.4169 16.2808 18.1486 16.22 17.8926L15.0267 12.7593L19.0267 9.29931C19.2245 9.12746 19.3673 8.90112 19.4373 8.64857C19.5073 8.39602 19.5013 8.12845 19.42 7.8793C19.3386 7.63071 19.1858 7.41158 18.9807 7.24918C18.7756 7.08677 18.5273 6.98829 18.2667 6.96597L13.0133 6.51931L10.96 1.6793C10.8579 1.4383 10.6872 1.23267 10.469 1.08804C10.2509 0.943413 9.99505 0.86618 9.73333 0.865967H9.75335Z" fill="white"/>
</svg>
