<svg width="24" height="24" viewBox="0 0 24 24" fill="none" xmlns="http://www.w3.org/2000/svg">
<path d="M17.3866 4.73337C17.7402 4.73337 18.0793 4.87385 18.3294 5.1239C18.5794 5.37394 18.7199 5.71308 18.7199 6.06671V17.4467C18.7199 17.8003 18.5794 18.1395 18.3294 18.3895C18.0793 18.6396 17.7402 18.78 17.3866 18.78H5.99992C5.6463 18.78 5.30714 18.6396 5.05709 18.3895C4.80704 18.1395 4.66659 17.8003 4.66659 17.4467V6.06671C4.66659 5.71308 4.80704 5.37394 5.05709 5.1239C5.30714 4.87385 5.6463 4.73337 5.99992 4.73337H17.3866ZM17.3866 3.40004H5.99992C5.29267 3.40004 4.6144 3.68099 4.1143 4.18109C3.6142 4.68118 3.33325 5.35946 3.33325 6.06671V17.4467C3.33325 18.1539 3.6142 18.8322 4.1143 19.3323C4.6144 19.8324 5.29267 20.1134 5.99992 20.1134H17.3866C18.0938 20.1134 18.7721 19.8324 19.2722 19.3323C19.7723 18.8322 20.0532 18.1539 20.0532 17.4467V6.06671C20.0532 5.35946 19.7723 4.68118 19.2722 4.18109C18.7721 3.68099 18.0938 3.40004 17.3866 3.40004Z" fill="white"/>
</svg>
