<svg width="240" height="240" viewBox="0 0 240 240" fill="none" xmlns="http://www.w3.org/2000/svg">
<path d="M17.5156 1H222.484C231.606 1 239 8.39431 239 17.5156V222.484C239 231.606 231.606 239 222.484 239H17.5157C8.39431 239 1 231.606 1 222.484V17.5157C1 8.39431 8.39431 1 17.5156 1Z" fill="#1C275D" stroke="white" stroke-width="2"/>
<path d="M90.8083 15.2032C90.8083 14.5863 90.591 14.0609 90.1557 13.6257C89.7211 13.1904 89.1951 12.9731 88.5782 12.9731H86.5518C85.9356 12.9731 85.4096 13.1904 84.9743 13.6257C84.5391 14.0609 84.3218 14.5863 84.3218 15.2032V17.2302C84.3218 17.264 84.3257 17.3146 84.3341 17.382H84.3218V19.4596H90.8083V17.382H90.7959C90.8044 17.3146 90.8083 17.264 90.8083 17.2302V15.2032Z" fill="#B9BFDF"/>
<path d="M103.782 15.2032V12.9731H99.526C98.9097 12.9731 98.3837 13.1904 97.9484 13.6257C97.5132 14.0609 97.2959 14.5863 97.2959 15.2032V19.4596H103.782V15.2032Z" fill="#B9BFDF"/>
<path d="M110.268 12.9731H103.781V19.4596H110.268V12.9731Z" fill="#B9BFDF"/>
<path d="M116.757 12.9731H110.27V19.4596H116.757V12.9731Z" fill="#B9BFDF"/>
<path d="M121.011 12.9731H116.754V19.4596H121.011C121.627 19.4596 122.153 19.2423 122.588 18.8071C123.024 18.3725 123.241 17.8465 123.241 17.2296V15.2032C123.241 14.5863 123.024 14.0609 122.588 13.6257C122.154 13.1904 121.628 12.9731 121.011 12.9731Z" fill="#B9BFDF"/>
<path d="M136.216 15.2032V12.9731H131.959C131.343 12.9731 130.817 13.1904 130.382 13.6257C129.947 14.0609 129.729 14.5863 129.729 15.2032V19.4596H136.216V15.2032Z" fill="#B9BFDF"/>
<path d="M142.7 15.2032C142.7 14.5863 142.482 14.0609 142.047 13.6257C141.612 13.1904 141.086 12.9731 140.47 12.9731H136.213V19.4596H142.7V15.2032Z" fill="#B9BFDF"/>
<path d="M162.165 15.2032C162.165 14.5863 161.948 14.0609 161.512 13.6257C161.078 13.1904 160.552 12.9731 159.935 12.9731H157.908C157.292 12.9731 156.766 13.1904 156.331 13.6257C155.896 14.0609 155.678 14.5863 155.678 15.2032V17.2302C155.678 17.264 155.682 17.3146 155.691 17.382H155.678V19.4596H162.165V17.382H162.153C162.161 17.3146 162.165 17.264 162.165 17.2302V15.2032Z" fill="#B9BFDF"/>
<path d="M175.133 15.2032C175.133 14.5863 174.916 14.0609 174.48 13.6257C174.046 13.1904 173.52 12.9731 172.903 12.9731H170.877C170.26 12.9731 169.734 13.1904 169.299 13.6257C168.864 14.0609 168.646 14.5863 168.646 15.2032V17.2302C168.646 17.264 168.65 17.3146 168.659 17.382H168.646V19.4596H175.133V17.382H175.121C175.129 17.3146 175.133 17.264 175.133 17.2302V15.2032Z" fill="#B9BFDF"/>
<path d="M84.3231 21.6895V19.4595H80.0667C79.4505 19.4595 78.9244 19.6768 78.4892 20.112C78.054 20.5473 77.8367 21.0727 77.8367 21.6895V25.9459H84.3231V21.6895Z" fill="#B9BFDF"/>
<path d="M90.8083 19.4595H84.3218V25.9459H90.8083V19.4595Z" fill="#B9BFDF"/>
<path d="M97.2961 19.46H90.8096V25.9464H97.2961V19.46Z" fill="#B9BFDF"/>
<path d="M103.782 19.4595H97.2959V25.9459H103.782V19.4595Z" fill="#B9BFDF"/>
<path d="M110.268 19.4595H103.781V25.9459H110.268V19.4595Z" fill="#B9BFDF"/>
<path d="M116.757 19.46H110.27V25.9464H116.757V19.46Z" fill="#B9BFDF"/>
<path d="M136.216 19.4595H129.729V23.7159C129.729 24.3321 129.947 24.8582 130.382 25.2934C130.817 25.7286 131.342 25.9459 131.959 25.9459H136.216V19.4595Z" fill="#B9BFDF"/>
<path d="M142.7 19.4595H136.213V25.9459H142.7V19.4595Z" fill="#B9BFDF"/>
<path d="M146.958 19.4595H142.702V25.9459H146.958C147.574 25.9459 148.1 25.7286 148.536 25.2934C148.971 24.8588 149.188 24.3328 149.188 23.7159V21.6895C149.188 21.0727 148.971 20.5473 148.536 20.112C148.101 19.6768 147.575 19.4595 146.958 19.4595Z" fill="#B9BFDF"/>
<path d="M162.153 21.5376H162.165V19.46H155.678V21.5376H155.691C155.682 21.605 155.678 21.6556 155.678 21.69V23.717C155.678 24.3332 155.896 24.8593 156.331 25.2945C156.766 25.7298 157.292 25.9464 157.908 25.9464H159.935C160.552 25.9464 161.078 25.7291 161.513 25.2939C161.948 24.8593 162.165 24.3332 162.165 23.7164V21.69C162.165 21.6556 162.161 21.605 162.153 21.5376Z" fill="#B9BFDF"/>
<path d="M175.133 19.4595H168.646V25.9459H175.133V19.4595Z" fill="#B9BFDF"/>
<path d="M71.35 28.1763V25.9463H67.0936C66.4774 25.9463 65.9513 26.1636 65.5161 26.5988C65.0808 27.0341 64.8635 27.5595 64.8635 28.1763V32.4328H71.35V28.1763Z" fill="#B9BFDF"/>
<path d="M77.8364 25.9463H71.3499V32.4328H77.8364V25.9463Z" fill="#B9BFDF"/>
<path d="M84.3231 25.9463H77.8367V32.4328H82.0931C82.7093 32.4328 83.2353 32.2155 83.6706 31.7802C84.1058 31.3456 84.3231 30.8196 84.3231 30.2027V25.9463Z" fill="#B9BFDF"/>
<path d="M103.782 25.9463H97.2959V32.4328H103.782V25.9463Z" fill="#B9BFDF"/>
<path d="M110.268 25.9463H103.781V32.4328H110.268V25.9463Z" fill="#B9BFDF"/>
<path d="M116.757 25.9463H110.27V32.4328H116.757V25.9463Z" fill="#B9BFDF"/>
<path d="M129.73 28.1763C129.73 27.5595 129.513 27.0341 129.077 26.5988C128.643 26.1636 128.117 25.9463 127.5 25.9463H125.473C124.857 25.9463 124.331 26.1636 123.896 26.5988C123.461 27.0341 123.243 27.5595 123.243 28.1763V30.2034C123.243 30.2371 123.247 30.2877 123.256 30.3552H123.243V32.4328H129.73V30.3552H129.718C129.726 30.2877 129.73 30.2371 129.73 30.2034V28.1763Z" fill="#B9BFDF"/>
<path d="M142.687 28.0239H142.7V25.9463H136.213V28.0239H136.225C136.217 28.0914 136.213 28.142 136.213 28.1763V30.2034C136.213 30.8196 136.43 31.3456 136.866 31.7809C137.301 32.2161 137.826 32.4328 138.443 32.4328H140.47C141.086 32.4328 141.612 32.2155 142.048 31.7802C142.482 31.3456 142.7 30.8196 142.7 30.2027V28.1763C142.7 28.142 142.696 28.0914 142.687 28.0239Z" fill="#B9BFDF"/>
<path d="M155.673 28.1763C155.673 27.5595 155.456 27.0341 155.021 26.5988C154.586 26.1636 154.06 25.9463 153.443 25.9463H151.417C150.801 25.9463 150.275 26.1636 149.839 26.5988C149.404 27.0341 149.187 27.5595 149.187 28.1763V30.2034C149.187 30.2371 149.191 30.2877 149.199 30.3552H149.187V32.4328H155.673V30.3552H155.661C155.669 30.2877 155.673 30.2371 155.673 30.2034V28.1763Z" fill="#B9BFDF"/>
<path d="M168.649 28.1763V25.9463H164.393C163.777 25.9463 163.251 26.1636 162.815 26.5988C162.38 27.0341 162.163 27.5595 162.163 28.1763V32.4328H168.649V28.1763Z" fill="#B9BFDF"/>
<path d="M175.133 25.9463H168.646V32.4328H175.133V25.9463Z" fill="#B9BFDF"/>
<path d="M71.3377 34.5102H71.35V32.4326H64.8635V34.5102H64.8758C64.8674 34.5777 64.8635 34.6283 64.8635 34.6627V36.6897C64.8635 37.3059 65.0808 37.832 65.5161 38.2672C65.9513 38.7025 66.4767 38.9191 67.0936 38.9191H69.1206C69.7368 38.9191 70.2629 38.7018 70.6981 38.2666C71.1327 37.832 71.35 37.3059 71.35 36.6891V34.6627C71.35 34.6283 71.3461 34.5777 71.3377 34.5102Z" fill="#B9BFDF"/>
<path d="M103.782 32.4326H97.2959V38.9191H103.782V32.4326Z" fill="#B9BFDF"/>
<path d="M116.757 32.4326H110.27V38.9191H116.757V32.4326Z" fill="#B9BFDF"/>
<path d="M129.718 34.5102H129.73V32.4326H123.243V34.5102H123.256C123.247 34.5777 123.243 34.6283 123.243 34.6627V36.6897C123.243 37.3059 123.461 37.832 123.896 38.2672C124.331 38.7025 124.857 38.9191 125.473 38.9191H127.5C128.117 38.9191 128.643 38.7018 129.078 38.2666C129.513 37.832 129.73 37.3059 129.73 36.6891V34.6627C129.73 34.6283 129.726 34.5777 129.718 34.5102Z" fill="#B9BFDF"/>
<path d="M155.661 34.5102H155.673V32.4326H149.187V34.5102H149.199C149.191 34.5777 149.187 34.6283 149.187 34.6627V36.6897C149.187 37.3059 149.404 37.832 149.839 38.2672C150.275 38.7025 150.8 38.9191 151.417 38.9191H153.444C154.06 38.9191 154.586 38.7018 155.021 38.2666C155.456 37.832 155.673 37.3059 155.673 36.6891V34.6627C155.673 34.6283 155.669 34.5777 155.661 34.5102Z" fill="#B9BFDF"/>
<path d="M168.649 32.4326H162.163V38.9191H168.649V32.4326Z" fill="#B9BFDF"/>
<path d="M175.133 32.4326H168.646V38.9191H172.903C173.519 38.9191 174.045 38.7018 174.48 38.2666C174.916 37.832 175.133 37.3059 175.133 36.6891V32.4326Z" fill="#B9BFDF"/>
<path d="M77.8364 43.1758C77.8364 43.7927 77.6185 44.3181 77.1839 44.7534C76.7493 45.1879 76.2232 45.4059 75.6063 45.4059H73.5799C72.9637 45.4059 72.4376 45.1879 72.0024 44.7534C71.5672 44.3188 71.3499 43.7927 71.3499 43.1758V41.1495C71.3499 40.5333 71.5672 40.0072 72.0024 39.572C72.4376 39.1367 72.9631 38.9194 73.5799 38.9194H75.607C76.2238 38.9194 76.7493 39.1367 77.1845 39.572C77.6191 40.0072 77.8364 40.5326 77.8364 41.1495V43.1758Z" fill="#B9BFDF"/>
<path d="M90.8083 41.1495V38.9194H86.5518C85.9356 38.9194 85.4096 39.1367 84.9743 39.572C84.5391 40.0072 84.3218 40.5326 84.3218 41.1495V43.1765C84.3218 43.7927 84.5391 44.3188 84.9743 44.754C85.4096 45.1892 85.935 45.4059 86.5518 45.4059H90.8083V41.1495Z" fill="#B9BFDF"/>
<path d="M97.2961 38.9194H90.8096V45.4059H97.2961V38.9194Z" fill="#B9BFDF"/>
<path d="M103.782 38.9194H97.2959V45.4059H103.782V38.9194Z" fill="#B9BFDF"/>
<path d="M116.757 38.9194H110.27V45.4059H116.757V38.9194Z" fill="#B9BFDF"/>
<path d="M142.7 41.1495C142.7 40.5326 142.482 40.0072 142.047 39.572C141.612 39.1367 141.086 38.9194 140.47 38.9194H138.443C137.827 38.9194 137.301 39.1367 136.866 39.572C136.43 40.0072 136.213 40.5326 136.213 41.1495V43.1765C136.213 43.2102 136.217 43.2608 136.225 43.3283H136.213V45.4059H142.7V43.3283H142.687C142.696 43.2608 142.7 43.2102 142.7 43.1765V41.1495Z" fill="#B9BFDF"/>
<path d="M168.637 40.997H168.649V38.9194H162.163V40.997H162.175C162.167 41.0645 162.163 41.1151 162.163 41.1495V43.1765C162.163 43.7927 162.38 44.3188 162.815 44.754C163.251 45.1892 163.776 45.4059 164.393 45.4059H166.42C167.036 45.4059 167.562 45.1886 167.997 44.7534C168.432 44.3188 168.649 43.7927 168.649 43.1758V41.1495C168.649 41.1151 168.645 41.0645 168.637 40.997Z" fill="#B9BFDF"/>
<path d="M84.3231 47.6358C84.3231 47.019 84.1058 46.4935 83.6706 46.0583C83.236 45.6231 82.7099 45.4058 82.0931 45.4058H80.0667C79.4505 45.4058 78.9244 45.6231 78.4892 46.0583C78.054 46.4935 77.8367 47.019 77.8367 47.6358V49.6628C77.8367 49.6966 77.8406 49.7472 77.849 49.8146H77.8367V51.8922H84.3231V49.8146H84.3108C84.3192 49.7472 84.3231 49.6966 84.3231 49.6628V47.6358Z" fill="#B9BFDF"/>
<path d="M97.2961 45.4058H90.8096V51.8922H97.2961V45.4058Z" fill="#B9BFDF"/>
<path d="M103.782 45.4058H97.2959V51.8922H103.782V45.4058Z" fill="#B9BFDF"/>
<path d="M110.268 45.4058H103.781V51.8922H110.268V45.4058Z" fill="#B9BFDF"/>
<path d="M116.757 45.4058H110.27V51.8922H116.757V45.4058Z" fill="#B9BFDF"/>
<path d="M123.241 47.6358C123.241 47.019 123.024 46.4935 122.588 46.0583C122.154 45.6231 121.628 45.4058 121.011 45.4058H116.754V51.8922H123.241V47.6358Z" fill="#B9BFDF"/>
<path d="M136.216 47.6358V45.4058H131.959C131.343 45.4058 130.817 45.6231 130.382 46.0583C129.947 46.4935 129.729 47.019 129.729 47.6358V51.8922H136.216V47.6358Z" fill="#B9BFDF"/>
<path d="M142.7 45.4058H136.213V51.8922H140.47C141.086 51.8922 141.612 51.6749 142.047 51.2397C142.482 50.8051 142.7 50.2791 142.7 49.6622V45.4058Z" fill="#B9BFDF"/>
<path d="M162.165 47.6358C162.165 47.019 161.948 46.4935 161.512 46.0583C161.078 45.6231 160.552 45.4058 159.935 45.4058H157.908C157.292 45.4058 156.766 45.6231 156.331 46.0583C155.896 46.4935 155.678 47.019 155.678 47.6358V49.6628C155.678 49.6966 155.682 49.7472 155.691 49.8146H155.678V51.8922H162.165V49.8146H162.153C162.161 49.7472 162.165 49.6966 162.165 49.6628V47.6358Z" fill="#B9BFDF"/>
<path d="M175.133 47.6358C175.133 47.019 174.916 46.4935 174.48 46.0583C174.046 45.6231 173.52 45.4058 172.903 45.4058H170.877C170.26 45.4058 169.734 45.6231 169.299 46.0583C168.864 46.4935 168.646 47.019 168.646 47.6358V49.6628C168.646 49.6966 168.65 49.7472 168.659 49.8146H168.646V51.8922H175.133V49.8146H175.121C175.129 49.7472 175.133 49.6966 175.133 49.6628V47.6358Z" fill="#B9BFDF"/>
<path d="M71.35 56.1485C71.35 56.7654 71.1321 57.2908 70.6975 57.726C70.2629 58.1606 69.7368 58.3786 69.12 58.3786H67.0936C66.4774 58.3786 65.9513 58.1606 65.5161 57.726C65.0808 57.2914 64.8635 56.7654 64.8635 56.1485V54.1221C64.8635 53.5059 65.0808 52.9799 65.5161 52.5446C65.9513 52.1094 66.4767 51.8921 67.0936 51.8921H69.1206C69.7375 51.8921 70.2629 52.1094 70.6981 52.5446C71.1327 52.9799 71.35 53.5053 71.35 54.1221V56.1485Z" fill="#B9BFDF"/>
<path d="M84.3231 51.8921H77.8367V58.3786H84.3231V51.8921Z" fill="#B9BFDF"/>
<path d="M97.2837 53.9697H97.2961V51.8921H90.8096V53.9697H90.8219C90.8135 54.0372 90.8096 54.0878 90.8096 54.1221V56.1492C90.8096 56.7654 91.0269 57.2914 91.4621 57.7267C91.8974 58.1619 92.4228 58.3786 93.0396 58.3786H95.0666C95.6829 58.3786 96.2089 58.1613 96.6442 57.726C97.0788 57.2914 97.2961 56.7654 97.2961 56.1485V54.1221C97.2961 54.0878 97.2922 54.0372 97.2837 53.9697Z" fill="#B9BFDF"/>
<path d="M110.256 53.9697H110.268V51.8921H103.781V53.9697H103.794C103.785 54.0372 103.781 54.0878 103.781 54.1221V56.1492C103.781 56.7654 103.999 57.2914 104.434 57.7267C104.869 58.1619 105.395 58.3786 106.012 58.3786H108.039C108.655 58.3786 109.181 58.1613 109.616 57.726C110.051 57.2914 110.268 56.7654 110.268 56.1485V54.1221C110.268 54.0878 110.264 54.0372 110.256 53.9697Z" fill="#B9BFDF"/>
<path d="M123.241 51.8921H116.754V58.3786H123.241V51.8921Z" fill="#B9BFDF"/>
<path d="M136.203 53.9697H136.216V51.8921H129.729V53.9697H129.742C129.733 54.0372 129.729 54.0878 129.729 54.1221V56.1492C129.729 56.7654 129.947 57.2914 130.382 57.7267C130.817 58.1619 131.342 58.3786 131.959 58.3786H133.986C134.603 58.3786 135.129 58.1613 135.564 57.726C135.998 57.2914 136.216 56.7654 136.216 56.1485V54.1221C136.216 54.0878 136.212 54.0372 136.203 53.9697Z" fill="#B9BFDF"/>
<path d="M149.188 54.1221C149.188 53.5053 148.971 52.9799 148.536 52.5446C148.101 52.1094 147.575 51.8921 146.958 51.8921H144.932C144.315 51.8921 143.789 52.1094 143.354 52.5446C142.919 52.9799 142.702 53.5053 142.702 54.1221V56.1492C142.702 56.1829 142.706 56.2335 142.714 56.301H142.702V58.3786H149.188V56.301H149.176C149.184 56.2335 149.188 56.1829 149.188 56.1492V54.1221Z" fill="#B9BFDF"/>
<path d="M162.165 51.8921H155.678V58.3786H162.165V51.8921Z" fill="#B9BFDF"/>
<path d="M175.121 53.9697H175.133V51.8921H168.646V53.9697H168.659C168.65 54.0372 168.646 54.0878 168.646 54.1221V56.1492C168.646 56.7654 168.864 57.2914 169.299 57.7267C169.734 58.1619 170.26 58.3786 170.877 58.3786H172.904C173.52 58.3786 174.046 58.1613 174.481 57.726C174.916 57.2914 175.133 56.7654 175.133 56.1485V54.1221C175.133 54.0878 175.129 54.0372 175.121 53.9697Z" fill="#B9BFDF"/>
<path d="M77.8364 60.6085V58.3784H73.5799C72.9637 58.3784 72.4376 58.5957 72.0024 59.031C71.5672 59.4662 71.3499 59.9916 71.3499 60.6085V62.6355C71.3499 63.2517 71.5672 63.7778 72.0024 64.213C72.4376 64.6482 72.9631 64.8649 73.5799 64.8649H77.8364V60.6085Z" fill="#B9BFDF"/>
<path d="M84.3231 58.3784H77.8367V64.8649H84.3231V58.3784Z" fill="#B9BFDF"/>
<path d="M90.8083 60.6085C90.8083 59.9916 90.591 59.4662 90.1557 59.031C89.7211 58.5957 89.1951 58.3784 88.5782 58.3784H84.3218V64.8649H90.8083V60.6085Z" fill="#B9BFDF"/>
<path d="M103.782 60.6085C103.782 59.9916 103.565 59.4662 103.13 59.031C102.695 58.5957 102.169 58.3784 101.552 58.3784H99.526C98.9097 58.3784 98.3837 58.5957 97.9484 59.031C97.5132 59.4662 97.2959 59.9916 97.2959 60.6085V62.6355C97.2959 62.6692 97.2998 62.7198 97.3082 62.7873H97.2959V64.8649H103.782V62.7873H103.77C103.778 62.7198 103.782 62.6692 103.782 62.6355V60.6085Z" fill="#B9BFDF"/>
<path d="M123.229 60.456H123.241V58.3784H116.754V60.456H116.767C116.758 60.5235 116.754 60.5741 116.754 60.6085V62.6355C116.754 63.2517 116.972 63.7778 117.407 64.213C117.842 64.6482 118.368 64.8649 118.984 64.8649H121.011C121.628 64.8649 122.154 64.6476 122.589 64.2124C123.024 63.7778 123.241 63.2517 123.241 62.6348V60.6085C123.241 60.5741 123.237 60.5235 123.229 60.456Z" fill="#B9BFDF"/>
<path d="M149.188 58.3784H142.702V64.8649H149.188V58.3784Z" fill="#B9BFDF"/>
<path d="M162.165 58.3789H155.678V62.6353C155.678 63.2516 155.896 63.7776 156.331 64.2128C156.766 64.6481 157.292 64.8654 157.908 64.8654H162.165V58.3789Z" fill="#B9BFDF"/>
<path d="M168.649 60.6085C168.649 59.9916 168.432 59.4662 167.997 59.031C167.562 58.5957 167.036 58.3784 166.419 58.3784H162.163V64.8649H168.649V60.6085Z" fill="#B9BFDF"/>
<path d="M38.9157 67.0953V64.8652H34.6593C34.043 64.8652 33.517 65.0825 33.0817 65.5178C32.6465 65.953 32.4292 66.4784 32.4292 67.0953V71.3517H38.9157V67.0953Z" fill="#B9BFDF"/>
<path d="M45.4047 67.0953C45.4047 66.4784 45.1874 65.953 44.7521 65.5178C44.3175 65.0825 43.7915 64.8652 43.1746 64.8652H38.9182V71.3517H45.4047V67.0953Z" fill="#B9BFDF"/>
<path d="M58.3776 67.0953V64.8652H54.1212C53.505 64.8652 52.9789 65.0825 52.5437 65.5178C52.1084 65.953 51.8911 66.4784 51.8911 67.0953V69.1223C51.8911 69.7385 52.1084 70.2646 52.5437 70.6998C52.9789 71.1351 53.5043 71.3517 54.1212 71.3517H58.3776V67.0953Z" fill="#B9BFDF"/>
<path d="M62.6322 64.8652H58.3757V71.3517H62.6322C63.2484 71.3517 63.7744 71.1344 64.2097 70.6992C64.6449 70.2646 64.8622 69.7385 64.8622 69.1217V67.0953C64.8622 66.4784 64.6449 65.953 64.2097 65.5178C63.7751 65.0825 63.249 64.8652 62.6322 64.8652Z" fill="#B9BFDF"/>
<path d="M84.3231 64.8652H77.8367V71.3517H84.3231V64.8652Z" fill="#B9BFDF"/>
<path d="M90.8083 64.8652H84.3218V71.3517H90.8083V64.8652Z" fill="#B9BFDF"/>
<path d="M97.2961 64.8652H90.8096V71.3517H97.2961V64.8652Z" fill="#B9BFDF"/>
<path d="M103.782 64.8652H97.2959V71.3517H101.552C102.169 71.3517 102.695 71.1344 103.13 70.6992C103.565 70.2646 103.782 69.7385 103.782 69.1217V64.8652Z" fill="#B9BFDF"/>
<path d="M116.757 67.0953C116.757 66.4784 116.539 65.953 116.104 65.5178C115.669 65.0825 115.143 64.8652 114.526 64.8652H112.5C111.884 64.8652 111.358 65.0825 110.923 65.5178C110.487 65.953 110.27 66.4784 110.27 67.0953V69.1223C110.27 69.156 110.274 69.2066 110.282 69.2741H110.27V71.3517H116.757V69.2741H116.744C116.753 69.2066 116.757 69.156 116.757 69.1223V67.0953Z" fill="#B9BFDF"/>
<path d="M136.216 67.0953V64.8652H131.959C131.343 64.8652 130.817 65.0825 130.382 65.5178C129.947 65.953 129.729 66.4784 129.729 67.0953V69.1223C129.729 69.7385 129.947 70.2646 130.382 70.6998C130.817 71.1351 131.342 71.3517 131.959 71.3517H136.216V67.0953Z" fill="#B9BFDF"/>
<path d="M142.7 64.8652H136.213V71.3517H142.7V64.8652Z" fill="#B9BFDF"/>
<path d="M149.188 64.8652H142.702V71.3517H149.188V64.8652Z" fill="#B9BFDF"/>
<path d="M168.649 64.8652H162.163V71.3517H168.649V64.8652Z" fill="#B9BFDF"/>
<path d="M172.903 64.8652H168.646V71.3517H172.903C173.519 71.3517 174.045 71.1344 174.48 70.6992C174.916 70.2646 175.133 69.7385 175.133 69.1217V67.0953C175.133 66.4784 174.916 65.953 174.48 65.5178C174.046 65.0825 173.52 64.8652 172.903 64.8652Z" fill="#B9BFDF"/>
<path d="M207.566 67.0953V64.8652H203.31C202.694 64.8652 202.168 65.0825 201.732 65.5178C201.297 65.953 201.08 66.4784 201.08 67.0953V71.3517H207.566V67.0953Z" fill="#B9BFDF"/>
<path d="M214.052 67.0953C214.052 66.4784 213.835 65.953 213.4 65.5178C212.965 65.0825 212.439 64.8652 211.822 64.8652H207.566V71.3517H214.052V67.0953Z" fill="#B9BFDF"/>
<path d="M32.4328 73.5816V71.3516H28.1763C27.5601 71.3516 27.0341 71.5689 26.5988 72.0041C26.1636 72.4394 25.9463 72.9648 25.9463 73.5816V75.6087C25.9463 76.2249 26.1636 76.751 26.5988 77.1862C27.0341 77.6215 27.5595 77.8381 28.1763 77.8381H32.4328V73.5816Z" fill="#B9BFDF"/>
<path d="M38.9157 71.3516H32.4292V77.8381H38.9157V71.3516Z" fill="#B9BFDF"/>
<path d="M45.4047 71.3516H38.9182V77.8381H45.4047V71.3516Z" fill="#B9BFDF"/>
<path d="M49.6632 71.3516H45.4067V77.8381H49.6632C50.2794 77.8381 50.8054 77.6208 51.2407 77.1856C51.6759 76.751 51.8932 76.2249 51.8932 75.608V73.5816C51.8932 72.9648 51.6759 72.4394 51.2407 72.0041C50.8061 71.5689 50.28 71.3516 49.6632 71.3516Z" fill="#B9BFDF"/>
<path d="M71.35 73.5816C71.35 72.9648 71.1327 72.4394 70.6975 72.0041C70.2629 71.5689 69.7368 71.3516 69.12 71.3516H67.0936C66.4774 71.3516 65.9513 71.5689 65.5161 72.0041C65.0808 72.4394 64.8635 72.9648 64.8635 73.5816V75.6087C64.8635 75.6424 64.8674 75.693 64.8758 75.7605H64.8635V77.8381H71.35V75.7605H71.3377C71.3461 75.693 71.35 75.6424 71.35 75.6087V73.5816Z" fill="#B9BFDF"/>
<path d="M84.3108 73.4292H84.3231V71.3516H77.8367V73.4292H77.849C77.8406 73.4967 77.8367 73.5473 77.8367 73.5816V75.6087C77.8367 76.2249 78.054 76.751 78.4892 77.1862C78.9244 77.6215 79.4498 77.8381 80.0667 77.8381H82.0937C82.7099 77.8381 83.236 77.6208 83.6712 77.1856C84.1058 76.751 84.3231 76.2249 84.3231 75.608V73.5816C84.3231 73.5473 84.3192 73.4967 84.3108 73.4292Z" fill="#B9BFDF"/>
<path d="M110.268 73.5816V71.3516H106.012C105.395 71.3516 104.869 71.5689 104.434 72.0041C103.999 72.4394 103.781 72.9648 103.781 73.5816V77.8381H110.268V73.5816Z" fill="#B9BFDF"/>
<path d="M116.757 71.3516H110.27V77.8381H116.757V71.3516Z" fill="#B9BFDF"/>
<path d="M121.011 71.3516H116.754V77.8381H121.011C121.627 77.8381 122.153 77.6208 122.588 77.1856C123.024 76.751 123.241 76.2249 123.241 75.608V73.5816C123.241 72.9648 123.024 72.4394 122.588 72.0041C122.154 71.5689 121.628 71.3516 121.011 71.3516Z" fill="#B9BFDF"/>
<path d="M142.7 71.3516H136.213V77.8381H142.7V71.3516Z" fill="#B9BFDF"/>
<path d="M149.188 71.3516H142.702V77.8381H149.188V71.3516Z" fill="#B9BFDF"/>
<path d="M168.649 71.3516H162.163V77.8381H168.649V71.3516Z" fill="#B9BFDF"/>
<path d="M181.62 73.5816C181.62 72.9648 181.403 72.4394 180.968 72.0041C180.533 71.5689 180.007 71.3516 179.39 71.3516H177.364C176.748 71.3516 176.222 71.5689 175.786 72.0041C175.351 72.4394 175.134 72.9648 175.134 73.5816V75.6087C175.134 75.6424 175.138 75.693 175.146 75.7605H175.134V77.8381H181.62V75.7605H181.608C181.616 75.693 181.62 75.6424 181.62 75.6087V73.5816Z" fill="#B9BFDF"/>
<path d="M194.594 73.5816V71.3516H190.337C189.721 71.3516 189.195 71.5689 188.76 72.0041C188.325 72.4394 188.107 72.9648 188.107 73.5816V77.8381H194.594V73.5816Z" fill="#B9BFDF"/>
<path d="M201.08 71.3516H194.594V77.8381H201.08V71.3516Z" fill="#B9BFDF"/>
<path d="M207.566 71.3516H201.08V77.8381H207.566V71.3516Z" fill="#B9BFDF"/>
<path d="M214.052 71.3516H207.566V77.8381H214.052V71.3516Z" fill="#B9BFDF"/>
<path d="M220.54 73.5816C220.54 72.9648 220.322 72.4394 219.887 72.0041C219.453 71.5689 218.927 71.3516 218.31 71.3516H214.053V77.8381H220.54V73.5816Z" fill="#B9BFDF"/>
<path d="M19.4582 80.0684V77.8384H15.2017C14.5855 77.8384 14.0595 78.0557 13.6242 78.4909C13.189 78.9262 12.9717 79.4516 12.9717 80.0684V82.0954C12.9717 82.7116 13.189 83.2377 13.6242 83.6729C14.0595 84.1082 14.5849 84.3248 15.2017 84.3248H19.4582V80.0684Z" fill="#B9BFDF"/>
<path d="M23.7142 77.8384H19.4578V84.3248H23.7142C24.3304 84.3248 24.8565 84.1075 25.2917 83.6723C25.7269 83.2377 25.9442 82.7116 25.9442 82.0948V80.0684C25.9442 79.4516 25.7269 78.9262 25.2917 78.4909C24.8571 78.0557 24.331 77.8384 23.7142 77.8384Z" fill="#B9BFDF"/>
<path d="M45.3923 79.916H45.4047V77.8384H38.9182V79.916H38.9305C38.9221 79.9834 38.9182 80.034 38.9182 80.0684V82.0954C38.9182 82.7116 39.1355 83.2377 39.5708 83.6729C40.006 84.1082 40.5314 84.3248 41.1483 84.3248H43.1753C43.7915 84.3248 44.3175 84.1075 44.7528 83.6723C45.1874 83.2377 45.4047 82.7116 45.4047 82.0948V80.0684C45.4047 80.034 45.4008 79.9834 45.3923 79.916Z" fill="#B9BFDF"/>
<path d="M58.3776 82.0948C58.3776 82.7116 58.1597 83.237 57.7251 83.6723C57.2905 84.1069 56.7644 84.3248 56.1475 84.3248H54.1212C53.505 84.3248 52.9789 84.1069 52.5437 83.6723C52.1084 83.2377 51.8911 82.7116 51.8911 82.0948V80.0684C51.8911 79.4522 52.1084 78.9262 52.5437 78.4909C52.9789 78.0557 53.5043 77.8384 54.1212 77.8384H56.1482C56.7651 77.8384 57.2905 78.0557 57.7257 78.4909C58.1603 78.9262 58.3776 79.4516 58.3776 80.0684V82.0948Z" fill="#B9BFDF"/>
<path d="M71.35 77.8384H64.8635V84.3248H71.35V77.8384Z" fill="#B9BFDF"/>
<path d="M90.8083 82.0948C90.8083 82.7116 90.5903 83.237 90.1557 83.6723C89.7211 84.1069 89.1951 84.3248 88.5782 84.3248H86.5518C85.9356 84.3248 85.4096 84.1069 84.9743 83.6723C84.5391 83.2377 84.3218 82.7116 84.3218 82.0948V80.0684C84.3218 79.4522 84.5391 78.9262 84.9743 78.4909C85.4096 78.0557 85.935 77.8384 86.5518 77.8384H88.5789C89.1957 77.8384 89.7211 78.0557 90.1564 78.4909C90.591 78.9262 90.8083 79.4516 90.8083 80.0684V82.0948Z" fill="#B9BFDF"/>
<path d="M110.268 77.8384H103.781V82.0948C103.781 82.711 103.999 83.237 104.434 83.6723C104.869 84.1075 105.395 84.3248 106.012 84.3248H110.268V77.8384Z" fill="#B9BFDF"/>
<path d="M116.757 77.8384H110.27V84.3248H116.757V77.8384Z" fill="#B9BFDF"/>
<path d="M142.7 77.8384H136.213V82.0948C136.213 82.711 136.43 83.237 136.866 83.6723C137.301 84.1075 137.826 84.3248 138.443 84.3248H142.7V77.8384Z" fill="#B9BFDF"/>
<path d="M149.188 77.8384H142.702V84.3248H149.188V77.8384Z" fill="#B9BFDF"/>
<path d="M153.443 77.8384H149.187V84.3248H153.443C154.06 84.3248 154.586 84.1075 155.021 83.6723C155.456 83.2377 155.673 82.7116 155.673 82.0948V80.0684C155.673 79.4516 155.456 78.9262 155.021 78.4909C154.586 78.0557 154.06 77.8384 153.443 77.8384Z" fill="#B9BFDF"/>
<path d="M168.649 77.8384H162.163V84.3248H168.649V77.8384Z" fill="#B9BFDF"/>
<path d="M175.133 77.8384H168.646V84.3248H175.133V77.8384Z" fill="#B9BFDF"/>
<path d="M181.62 77.8384H175.134V84.3248H179.39C180.006 84.3248 180.533 84.1075 180.968 83.6723C181.403 83.2377 181.62 82.7116 181.62 82.0948V77.8384Z" fill="#B9BFDF"/>
<path d="M194.594 77.8384H188.107V84.3248H194.594V77.8384Z" fill="#B9BFDF"/>
<path d="M207.566 77.8384H201.08V82.0948C201.08 82.711 201.297 83.237 201.732 83.6723C202.168 84.1075 202.693 84.3248 203.31 84.3248H207.566V77.8384Z" fill="#B9BFDF"/>
<path d="M214.052 77.8384H207.566V84.3248H214.052V77.8384Z" fill="#B9BFDF"/>
<path d="M220.54 77.8384H214.053V84.3248H220.54V77.8384Z" fill="#B9BFDF"/>
<path d="M227.026 80.0684C227.026 79.4516 226.808 78.9262 226.373 78.4909C225.938 78.0557 225.412 77.8384 224.795 77.8384H220.539V84.3248H227.026V80.0684Z" fill="#B9BFDF"/>
<path d="M32.4328 86.5548V84.3247H28.1763C27.5601 84.3247 27.0341 84.542 26.5988 84.9772C26.1636 85.4125 25.9463 85.9379 25.9463 86.5548V90.8112H32.4328V86.5548Z" fill="#B9BFDF"/>
<path d="M36.6857 84.3247H32.4292V90.8112H36.6857C37.3019 90.8112 37.8279 90.5939 38.2632 90.1587C38.6984 89.7241 38.9157 89.198 38.9157 88.5811V86.5548C38.9157 85.9379 38.6984 85.4125 38.2632 84.9772C37.8286 84.542 37.3025 84.3247 36.6857 84.3247Z" fill="#B9BFDF"/>
<path d="M51.8932 86.5548C51.8932 85.9379 51.6759 85.4125 51.2407 84.9772C50.8061 84.542 50.28 84.3247 49.6632 84.3247H47.6368C47.0206 84.3247 46.4945 84.542 46.0593 84.9772C45.624 85.4125 45.4067 85.9379 45.4067 86.5548V88.5818C45.4067 88.6155 45.4106 88.6661 45.4191 88.7336H45.4067V90.8112H51.8932V88.7336H51.8809C51.8893 88.6661 51.8932 88.6155 51.8932 88.5818V86.5548Z" fill="#B9BFDF"/>
<path d="M64.8622 86.5548V84.3247H60.6058C59.9896 84.3247 59.4635 84.542 59.0283 84.9772C58.593 85.4125 58.3757 85.9379 58.3757 86.5548V90.8112H64.8622V86.5548Z" fill="#B9BFDF"/>
<path d="M71.35 84.3247H64.8635V90.8112H71.35V84.3247Z" fill="#B9BFDF"/>
<path d="M77.8364 86.5548C77.8364 85.9379 77.6191 85.4125 77.1839 84.9772C76.7493 84.542 76.2232 84.3247 75.6063 84.3247H71.3499V90.8112H77.8364V86.5548Z" fill="#B9BFDF"/>
<path d="M97.2961 88.5811C97.2961 89.198 97.0781 89.7234 96.6435 90.1587C96.2089 90.5932 95.6829 90.8112 95.066 90.8112H93.0396C92.4234 90.8112 91.8974 90.5932 91.4621 90.1587C91.0269 89.7241 90.8096 89.198 90.8096 88.5811V86.5548C90.8096 85.9385 91.0269 85.4125 91.4621 84.9772C91.8974 84.542 92.4228 84.3247 93.0396 84.3247H95.0666C95.6835 84.3247 96.2089 84.542 96.6442 84.9772C97.0788 85.4125 97.2961 85.9379 97.2961 86.5548V88.5811Z" fill="#B9BFDF"/>
<path d="M116.757 84.3247H110.27V90.8112H116.757V84.3247Z" fill="#B9BFDF"/>
<path d="M129.73 86.5548C129.73 85.9379 129.513 85.4125 129.077 84.9772C128.643 84.542 128.117 84.3247 127.5 84.3247H125.473C124.857 84.3247 124.331 84.542 123.896 84.9772C123.461 85.4125 123.243 85.9379 123.243 86.5548V88.5818C123.243 88.6155 123.247 88.6661 123.256 88.7336H123.243V90.8112H129.73V88.7336H129.718C129.726 88.6661 129.73 88.6155 129.73 88.5818V86.5548Z" fill="#B9BFDF"/>
<path d="M168.649 84.3247H162.163V90.8112H168.649V84.3247Z" fill="#B9BFDF"/>
<path d="M188.108 86.5548V84.3247H183.852C183.235 84.3247 182.709 84.542 182.274 84.9772C181.839 85.4125 181.622 85.9379 181.622 86.5548V90.8112H188.108V86.5548Z" fill="#B9BFDF"/>
<path d="M194.594 84.3247H188.107V90.8112H194.594V84.3247Z" fill="#B9BFDF"/>
<path d="M201.08 86.5548C201.08 85.9379 200.863 85.4125 200.427 84.9772C199.993 84.542 199.467 84.3247 198.85 84.3247H194.594V90.8112H201.08V86.5548Z" fill="#B9BFDF"/>
<path d="M214.052 84.3247H207.566V88.5811C207.566 89.1974 207.783 89.7234 208.218 90.1587C208.654 90.5939 209.179 90.8112 209.796 90.8112H214.052V84.3247Z" fill="#B9BFDF"/>
<path d="M220.54 84.3247H214.053V90.8112H220.54V84.3247Z" fill="#B9BFDF"/>
<path d="M227.026 84.3247H220.539V90.8112H227.026V84.3247Z" fill="#B9BFDF"/>
<path d="M19.4582 93.0411V90.811H15.2017C14.5855 90.811 14.0595 91.0283 13.6242 91.4636C13.189 91.8988 12.9717 92.4242 12.9717 93.0411V97.2975H19.4582V93.0411Z" fill="#B9BFDF"/>
<path d="M25.9442 90.811H19.4578V97.2975H25.9442V90.811Z" fill="#B9BFDF"/>
<path d="M32.4328 90.811H25.9463V97.2975H32.4328V90.811Z" fill="#B9BFDF"/>
<path d="M45.4047 93.0411V90.811H41.1483C40.532 90.811 40.006 91.0283 39.5708 91.4636C39.1355 91.8988 38.9182 92.4242 38.9182 93.0411V95.0681C38.9182 95.6843 39.1355 96.2104 39.5708 96.6456C40.006 97.0809 40.5314 97.2975 41.1483 97.2975H45.4047V93.0411Z" fill="#B9BFDF"/>
<path d="M51.8932 90.811H45.4067V97.2975H51.8932V90.811Z" fill="#B9BFDF"/>
<path d="M58.3776 90.811H51.8911V97.2975H58.3776V90.811Z" fill="#B9BFDF"/>
<path d="M64.8622 90.811H58.3757V97.2975H64.8622V90.811Z" fill="#B9BFDF"/>
<path d="M71.35 90.811H64.8635V97.2975H71.35V90.811Z" fill="#B9BFDF"/>
<path d="M77.8364 90.811H71.3499V97.2975H75.6063C76.2225 97.2975 76.7486 97.0802 77.1839 96.645C77.6191 96.2104 77.8364 95.6843 77.8364 95.0675V90.811Z" fill="#B9BFDF"/>
<path d="M90.8083 93.0411C90.8083 92.4242 90.591 91.8988 90.1557 91.4636C89.7211 91.0283 89.1951 90.811 88.5782 90.811H86.5518C85.9356 90.811 85.4096 91.0283 84.9743 91.4636C84.5391 91.8988 84.3218 92.4242 84.3218 93.0411V95.0681C84.3218 95.1018 84.3257 95.1524 84.3341 95.2199H84.3218V97.2975H90.8083V95.2199H90.7959C90.8044 95.1524 90.8083 95.1018 90.8083 95.0681V93.0411Z" fill="#B9BFDF"/>
<path d="M116.757 90.811H110.27V97.2975H116.757V90.811Z" fill="#B9BFDF"/>
<path d="M123.241 90.811H116.754V97.2975H123.241V90.811Z" fill="#B9BFDF"/>
<path d="M129.73 90.811H123.243V97.2975H129.73V90.811Z" fill="#B9BFDF"/>
<path d="M136.216 93.0411C136.216 92.4242 135.998 91.8988 135.563 91.4636C135.129 91.0283 134.603 90.811 133.986 90.811H129.729V97.2975H136.216V93.0411Z" fill="#B9BFDF"/>
<path d="M149.188 93.0411V90.811H144.932C144.315 90.811 143.789 91.0283 143.354 91.4636C142.919 91.8988 142.702 92.4242 142.702 93.0411V97.2975H149.188V93.0411Z" fill="#B9BFDF"/>
<path d="M155.673 90.811H149.187V97.2975H155.673V90.811Z" fill="#B9BFDF"/>
<path d="M162.165 90.811H155.678V97.2975H162.165V90.811Z" fill="#B9BFDF"/>
<path d="M168.649 90.811H162.163V97.2975H168.649V90.811Z" fill="#B9BFDF"/>
<path d="M172.903 90.811H168.646V97.2975H172.903C173.519 97.2975 174.045 97.0802 174.48 96.645C174.916 96.2104 175.133 95.6843 175.133 95.0675V93.0411C175.133 92.4242 174.916 91.8988 174.48 91.4636C174.046 91.0283 173.52 90.811 172.903 90.811Z" fill="#B9BFDF"/>
<path d="M188.108 90.811H181.622V95.0675C181.622 95.6837 181.839 96.2097 182.274 96.645C182.709 97.0802 183.235 97.2975 183.852 97.2975H188.108V90.811Z" fill="#B9BFDF"/>
<path d="M194.594 90.811H188.107V97.2975H194.594V90.811Z" fill="#B9BFDF"/>
<path d="M201.08 90.811H194.594V97.2975H198.85C199.466 97.2975 199.992 97.0802 200.427 96.645C200.863 96.2104 201.08 95.6843 201.08 95.0675V90.811Z" fill="#B9BFDF"/>
<path d="M227.013 92.8887H227.026V90.811H220.539V92.8887H220.551C220.543 92.9561 220.539 93.0067 220.539 93.0411V95.0681C220.539 95.6843 220.756 96.2104 221.192 96.6456C221.627 97.0809 222.152 97.2975 222.769 97.2975H224.796C225.412 97.2975 225.938 97.0802 226.374 96.645C226.808 96.2104 227.026 95.6843 227.026 95.0675V93.0411C227.026 93.0067 227.022 92.9561 227.013 92.8887Z" fill="#B9BFDF"/>
<path d="M19.4459 99.375H19.4582V97.2974H12.9717V99.375H12.984C12.9756 99.4424 12.9717 99.493 12.9717 99.5274V101.554C12.9717 102.171 13.189 102.697 13.6242 103.132C14.0595 103.567 14.5849 103.784 15.2017 103.784H17.2288C17.845 103.784 18.371 103.567 18.8063 103.131C19.2409 102.697 19.4582 102.171 19.4582 101.554V99.5274C19.4582 99.493 19.4543 99.4424 19.4459 99.375Z" fill="#B9BFDF"/>
<path d="M32.4328 97.2974H25.9463V103.784H32.4328V97.2974Z" fill="#B9BFDF"/>
<path d="M71.35 97.2974H64.8635V103.784H71.35V97.2974Z" fill="#B9BFDF"/>
<path d="M84.3231 99.5274V97.2974H80.0667C79.4505 97.2974 78.9244 97.5147 78.4892 97.9499C78.054 98.3851 77.8367 98.9106 77.8367 99.5274V103.784H84.3231V99.5274Z" fill="#B9BFDF"/>
<path d="M90.8083 97.2974H84.3218V103.784H90.8083V97.2974Z" fill="#B9BFDF"/>
<path d="M97.2961 99.5274C97.2961 98.9106 97.0788 98.3851 96.6435 97.9499C96.2089 97.5147 95.6829 97.2974 95.066 97.2974H90.8096V103.784H97.2961V99.5274Z" fill="#B9BFDF"/>
<path d="M116.757 97.2974H110.27V101.554C110.27 102.17 110.487 102.696 110.923 103.131C111.358 103.567 111.883 103.784 112.5 103.784H116.757V97.2974Z" fill="#B9BFDF"/>
<path d="M123.241 97.2974H116.754V103.784H123.241V97.2974Z" fill="#B9BFDF"/>
<path d="M136.216 97.2974H129.729V103.784H136.216V97.2974Z" fill="#B9BFDF"/>
<path d="M149.188 97.2974H142.702V103.784H149.188V97.2974Z" fill="#B9BFDF"/>
<path d="M155.673 97.2974H149.187V103.784H155.673V97.2974Z" fill="#B9BFDF"/>
<path d="M162.165 97.2974H155.678V103.784H162.165V97.2974Z" fill="#B9BFDF"/>
<path d="M168.649 97.2974H162.163V103.784H166.419C167.035 103.784 167.562 103.567 167.997 103.131C168.432 102.697 168.649 102.171 168.649 101.554V97.2974Z" fill="#B9BFDF"/>
<path d="M181.62 101.554C181.62 102.171 181.402 102.696 180.968 103.131C180.533 103.566 180.007 103.784 179.39 103.784H177.364C176.748 103.784 176.222 103.566 175.786 103.131C175.351 102.697 175.134 102.171 175.134 101.554V99.5274C175.134 98.9112 175.351 98.3851 175.786 97.9499C176.222 97.5147 176.747 97.2974 177.364 97.2974H179.391C180.008 97.2974 180.533 97.5147 180.968 97.9499C181.403 98.3851 181.62 98.9106 181.62 99.5274V101.554Z" fill="#B9BFDF"/>
<path d="M194.582 99.375H194.594V97.2974H188.107V99.375H188.12C188.111 99.4424 188.107 99.493 188.107 99.5274V101.554C188.107 102.171 188.325 102.697 188.76 103.132C189.195 103.567 189.721 103.784 190.337 103.784H192.364C192.981 103.784 193.507 103.567 193.942 103.131C194.377 102.697 194.594 102.171 194.594 101.554V99.5274C194.594 99.493 194.59 99.4424 194.582 99.375Z" fill="#B9BFDF"/>
<path d="M207.566 99.5274V97.2974H203.31C202.694 97.2974 202.168 97.5147 201.732 97.9499C201.297 98.3851 201.08 98.9106 201.08 99.5274V101.554C201.08 102.171 201.297 102.697 201.732 103.132C202.168 103.567 202.693 103.784 203.31 103.784H207.566V99.5274Z" fill="#B9BFDF"/>
<path d="M214.052 97.2974H207.566V103.784H214.052V97.2974Z" fill="#B9BFDF"/>
<path d="M218.31 97.2974H214.053V103.784H218.31C218.926 103.784 219.452 103.567 219.887 103.131C220.322 102.697 220.54 102.171 220.54 101.554V99.5274C220.54 98.9106 220.322 98.3851 219.887 97.9499C219.453 97.5147 218.927 97.2974 218.31 97.2974Z" fill="#B9BFDF"/>
<path d="M32.4328 103.784H25.9463V110.271H32.4328V103.784Z" fill="#B9BFDF"/>
<path d="M38.9157 103.784H32.4292V110.271H38.9157V103.784Z" fill="#B9BFDF"/>
<path d="M45.4047 103.784H38.9182V110.271H45.4047V103.784Z" fill="#B9BFDF"/>
<path d="M51.8932 103.784H45.4067V110.271H51.8932V103.784Z" fill="#B9BFDF"/>
<path d="M56.1475 103.784H51.8911V110.271H56.1475C56.7638 110.271 57.2898 110.053 57.7251 109.618C58.1603 109.184 58.3776 108.657 58.3776 108.041V106.014C58.3776 105.397 58.1603 104.872 57.7251 104.437C57.2905 104.001 56.7644 103.784 56.1475 103.784Z" fill="#B9BFDF"/>
<path d="M71.3377 105.862H71.35V103.784H64.8635V105.862H64.8758C64.8674 105.929 64.8635 105.98 64.8635 106.014V108.041C64.8635 108.657 65.0808 109.184 65.5161 109.619C65.9513 110.054 66.4767 110.271 67.0936 110.271H69.1206C69.7368 110.271 70.2629 110.053 70.6981 109.618C71.1327 109.184 71.35 108.657 71.35 108.041V106.014C71.35 105.98 71.3461 105.929 71.3377 105.862Z" fill="#B9BFDF"/>
<path d="M84.3231 103.784H77.8367V108.041C77.8367 108.657 78.054 109.183 78.4892 109.618C78.9244 110.053 79.4498 110.271 80.0667 110.271H84.3231V103.784Z" fill="#B9BFDF"/>
<path d="M90.8083 103.784H84.3218V110.271H90.8083V103.784Z" fill="#B9BFDF"/>
<path d="M97.2961 103.784H90.8096V110.271H97.2961V103.784Z" fill="#B9BFDF"/>
<path d="M110.268 108.041C110.268 108.657 110.05 109.183 109.615 109.618C109.181 110.053 108.655 110.271 108.038 110.271H106.012C105.395 110.271 104.869 110.053 104.434 109.618C103.999 109.184 103.781 108.657 103.781 108.041V106.014C103.781 105.398 103.999 104.872 104.434 104.437C104.869 104.001 105.395 103.784 106.012 103.784H108.039C108.655 103.784 109.181 104.001 109.616 104.437C110.051 104.872 110.268 105.397 110.268 106.014V108.041Z" fill="#B9BFDF"/>
<path d="M123.229 105.862H123.241V103.784H116.754V105.862H116.767C116.758 105.929 116.754 105.98 116.754 106.014V108.041C116.754 108.657 116.972 109.184 117.407 109.619C117.842 110.054 118.368 110.271 118.984 110.271H121.011C121.628 110.271 122.154 110.053 122.589 109.618C123.024 109.184 123.241 108.657 123.241 108.041V106.014C123.241 105.98 123.237 105.929 123.229 105.862Z" fill="#B9BFDF"/>
<path d="M136.203 105.862H136.216V103.784H129.729V105.862H129.742C129.733 105.929 129.729 105.98 129.729 106.014V108.041C129.729 108.657 129.947 109.184 130.382 109.619C130.817 110.054 131.342 110.271 131.959 110.271H133.986C134.603 110.271 135.129 110.053 135.564 109.618C135.998 109.184 136.216 108.657 136.216 108.041V106.014C136.216 105.98 136.212 105.929 136.203 105.862Z" fill="#B9BFDF"/>
<path d="M149.188 103.784H142.702V110.271H149.188V103.784Z" fill="#B9BFDF"/>
<path d="M214.052 103.784H207.566V110.271H214.052V103.784Z" fill="#B9BFDF"/>
<path d="M32.4328 110.271H25.9463V114.527C25.9463 115.143 26.1636 115.669 26.5988 116.104C27.0341 116.54 27.5595 116.757 28.1763 116.757H32.4328V110.271Z" fill="#B9BFDF"/>
<path d="M38.9157 110.271H32.4292V116.757H38.9157V110.271Z" fill="#B9BFDF"/>
<path d="M90.8083 110.271H84.3218V116.757H90.8083V110.271Z" fill="#B9BFDF"/>
<path d="M97.2961 110.271H90.8096V116.757H97.2961V110.271Z" fill="#B9BFDF"/>
<path d="M101.552 110.271H97.2959V116.757H101.552C102.169 116.757 102.695 116.54 103.13 116.104C103.565 115.67 103.782 115.144 103.782 114.527V112.501C103.782 111.884 103.565 111.358 103.13 110.923C102.695 110.488 102.169 110.271 101.552 110.271Z" fill="#B9BFDF"/>
<path d="M129.73 112.501C129.73 111.884 129.513 111.358 129.077 110.923C128.643 110.488 128.117 110.271 127.5 110.271H125.473C124.857 110.271 124.331 110.488 123.896 110.923C123.461 111.358 123.243 111.884 123.243 112.501V114.528C123.243 114.561 123.247 114.612 123.256 114.679H123.243V116.757H129.73V114.679H129.718C129.726 114.612 129.73 114.561 129.73 114.528V112.501Z" fill="#B9BFDF"/>
<path d="M149.188 110.271H142.702V116.757H149.188V110.271Z" fill="#B9BFDF"/>
<path d="M175.133 114.527C175.133 115.144 174.915 115.669 174.48 116.104C174.046 116.539 173.52 116.757 172.903 116.757H170.877C170.26 116.757 169.734 116.539 169.299 116.104C168.864 115.67 168.646 115.144 168.646 114.527V112.501C168.646 111.884 168.864 111.358 169.299 110.923C169.734 110.488 170.26 110.271 170.877 110.271H172.904C173.52 110.271 174.046 110.488 174.481 110.923C174.916 111.358 175.133 111.884 175.133 112.501V114.527Z" fill="#B9BFDF"/>
<path d="M188.108 112.501C188.108 111.884 187.891 111.358 187.456 110.923C187.021 110.488 186.495 110.271 185.878 110.271H183.852C183.235 110.271 182.709 110.488 182.274 110.923C181.839 111.358 181.622 111.884 181.622 112.501V114.528C181.622 114.561 181.625 114.612 181.634 114.679H181.622V116.757H188.108V114.679H188.096C188.104 114.612 188.108 114.561 188.108 114.528V112.501Z" fill="#B9BFDF"/>
<path d="M207.566 112.501V110.271H203.31C202.694 110.271 202.168 110.488 201.732 110.923C201.297 111.358 201.08 111.884 201.08 112.501V116.757H207.566V112.501Z" fill="#B9BFDF"/>
<path d="M214.052 110.271H207.566V116.757H214.052V110.271Z" fill="#B9BFDF"/>
<path d="M220.54 112.501C220.54 111.884 220.322 111.358 219.887 110.923C219.453 110.488 218.927 110.271 218.31 110.271H214.053V116.757H220.54V112.501Z" fill="#B9BFDF"/>
<path d="M38.9157 116.757H32.4292V123.243H38.9157V116.757Z" fill="#B9BFDF"/>
<path d="M51.8932 118.987V116.757H47.6368C47.0206 116.757 46.4945 116.974 46.0593 117.409C45.624 117.845 45.4067 118.37 45.4067 118.987V121.014C45.4067 121.63 45.624 122.156 46.0593 122.591C46.4945 123.027 47.0199 123.243 47.6368 123.243H51.8932V118.987Z" fill="#B9BFDF"/>
<path d="M58.3776 116.757H51.8911V123.243H58.3776V116.757Z" fill="#B9BFDF"/>
<path d="M64.8622 116.757H58.3757V123.243H64.8622V116.757Z" fill="#B9BFDF"/>
<path d="M71.35 118.987C71.35 118.37 71.1327 117.845 70.6975 117.409C70.2629 116.974 69.7368 116.757 69.12 116.757H64.8635V123.243H71.35V118.987Z" fill="#B9BFDF"/>
<path d="M90.8083 116.757H84.3218V123.243H90.8083V116.757Z" fill="#B9BFDF"/>
<path d="M97.2961 116.757H90.8096V123.243H97.2961V116.757Z" fill="#B9BFDF"/>
<path d="M110.268 118.987C110.268 118.37 110.051 117.845 109.615 117.409C109.181 116.974 108.655 116.757 108.038 116.757H106.012C105.395 116.757 104.869 116.974 104.434 117.409C103.999 117.845 103.781 118.37 103.781 118.987V121.014C103.781 121.048 103.785 121.098 103.794 121.166H103.781V123.243H110.268V121.166H110.256C110.264 121.098 110.268 121.048 110.268 121.014V118.987Z" fill="#B9BFDF"/>
<path d="M129.718 118.834H129.73V116.757H123.243V118.834H123.256C123.247 118.902 123.243 118.953 123.243 118.987V121.014C123.243 121.63 123.461 122.156 123.896 122.591C124.331 123.027 124.857 123.243 125.473 123.243H127.5C128.117 123.243 128.643 123.026 129.078 122.591C129.513 122.156 129.73 121.63 129.73 121.013V118.987C129.73 118.953 129.726 118.902 129.718 118.834Z" fill="#B9BFDF"/>
<path d="M149.188 116.757H142.702V123.243H149.188V116.757Z" fill="#B9BFDF"/>
<path d="M168.649 121.013C168.649 121.63 168.431 122.156 167.997 122.591C167.562 123.025 167.036 123.243 166.419 123.243H164.393C163.777 123.243 163.251 123.025 162.815 122.591C162.38 122.156 162.163 121.63 162.163 121.013V118.987C162.163 118.371 162.38 117.845 162.815 117.409C163.251 116.974 163.776 116.757 164.393 116.757H166.42C167.037 116.757 167.562 116.974 167.997 117.409C168.432 117.845 168.649 118.37 168.649 118.987V121.013Z" fill="#B9BFDF"/>
<path d="M188.108 116.757H181.622V123.243H188.108V116.757Z" fill="#B9BFDF"/>
<path d="M201.08 118.987V116.757H196.824C196.207 116.757 195.681 116.974 195.246 117.409C194.811 117.845 194.594 118.37 194.594 118.987V123.243H201.08V118.987Z" fill="#B9BFDF"/>
<path d="M207.566 116.757H201.08V123.243H207.566V116.757Z" fill="#B9BFDF"/>
<path d="M220.54 116.757H214.053V123.243H220.54V116.757Z" fill="#B9BFDF"/>
<path d="M19.4582 125.474V123.244H15.2017C14.5855 123.244 14.0595 123.461 13.6242 123.896C13.189 124.331 12.9717 124.857 12.9717 125.474V129.73H19.4582V125.474Z" fill="#B9BFDF"/>
<path d="M25.9442 125.474C25.9442 124.857 25.7269 124.331 25.2917 123.896C24.8571 123.461 24.331 123.244 23.7142 123.244H19.4578V129.73H25.9442V125.474Z" fill="#B9BFDF"/>
<path d="M38.9157 123.244H32.4292V129.73H38.9157V123.244Z" fill="#B9BFDF"/>
<path d="M64.8622 123.244H58.3757V129.73H64.8622V123.244Z" fill="#B9BFDF"/>
<path d="M71.35 123.244H64.8635V129.73H71.35V123.244Z" fill="#B9BFDF"/>
<path d="M77.8364 123.244H71.3499V129.73H77.8364V123.244Z" fill="#B9BFDF"/>
<path d="M84.3231 123.244H77.8367V129.73H84.3231V123.244Z" fill="#B9BFDF"/>
<path d="M90.8083 123.244H84.3218V129.73H90.8083V123.244Z" fill="#B9BFDF"/>
<path d="M97.2961 123.244H90.8096V129.73H97.2961V123.244Z" fill="#B9BFDF"/>
<path d="M103.782 123.244H97.2959V129.73H103.782V123.244Z" fill="#B9BFDF"/>
<path d="M110.268 123.244H103.781V129.73H110.268V123.244Z" fill="#B9BFDF"/>
<path d="M116.757 125.474C116.757 124.857 116.539 124.331 116.104 123.896C115.669 123.461 115.143 123.244 114.526 123.244H110.27V129.73H116.757V125.474Z" fill="#B9BFDF"/>
<path d="M142.7 125.474V123.244H138.443C137.827 123.244 137.301 123.461 136.866 123.896C136.43 124.331 136.213 124.857 136.213 125.474V129.73H142.7V125.474Z" fill="#B9BFDF"/>
<path d="M149.188 123.244H142.702V129.73H146.958C147.574 129.73 148.1 129.513 148.536 129.078C148.971 128.643 149.188 128.117 149.188 127.5V123.244Z" fill="#B9BFDF"/>
<path d="M162.165 127.5C162.165 128.117 161.947 128.642 161.512 129.078C161.078 129.512 160.552 129.73 159.935 129.73H157.908C157.292 129.73 156.766 129.512 156.331 129.078C155.896 128.643 155.678 128.117 155.678 127.5V125.474C155.678 124.857 155.896 124.331 156.331 123.896C156.766 123.461 157.292 123.244 157.908 123.244H159.935C160.552 123.244 161.078 123.461 161.513 123.896C161.948 124.331 162.165 124.857 162.165 125.474V127.5Z" fill="#B9BFDF"/>
<path d="M175.133 127.5C175.133 128.117 174.915 128.642 174.48 129.078C174.046 129.512 173.52 129.73 172.903 129.73H170.877C170.26 129.73 169.734 129.512 169.299 129.078C168.864 128.643 168.646 128.117 168.646 127.5V125.474C168.646 124.857 168.864 124.331 169.299 123.896C169.734 123.461 170.26 123.244 170.877 123.244H172.904C173.52 123.244 174.046 123.461 174.481 123.896C174.916 124.331 175.133 124.857 175.133 125.474V127.5Z" fill="#B9BFDF"/>
<path d="M188.108 123.244H181.622V129.73H188.108V123.244Z" fill="#B9BFDF"/>
<path d="M194.594 123.244H188.107V129.73H194.594V123.244Z" fill="#B9BFDF"/>
<path d="M201.08 123.244H194.594V129.73H201.08V123.244Z" fill="#B9BFDF"/>
<path d="M207.566 123.244H201.08V129.73H207.566V123.244Z" fill="#B9BFDF"/>
<path d="M220.54 123.244H214.053V129.73H220.54V123.244Z" fill="#B9BFDF"/>
<path d="M227.026 125.474C227.026 124.857 226.808 124.331 226.373 123.896C225.938 123.461 225.412 123.244 224.795 123.244H220.539V129.73H227.026V125.474Z" fill="#B9BFDF"/>
<path d="M19.4582 129.73H12.9717V136.216H19.4582V129.73Z" fill="#B9BFDF"/>
<path d="M25.9442 129.73H19.4578V136.216H25.9442V129.73Z" fill="#B9BFDF"/>
<path d="M32.4328 129.73H25.9463V136.216H32.4328V129.73Z" fill="#B9BFDF"/>
<path d="M38.9157 129.73H32.4292V136.216H38.9157V129.73Z" fill="#B9BFDF"/>
<path d="M51.8932 131.96V129.73H47.6368C47.0206 129.73 46.4945 129.947 46.0593 130.383C45.624 130.818 45.4067 131.343 45.4067 131.96V133.987C45.4067 134.603 45.624 135.129 46.0593 135.565C46.4945 136 47.0199 136.216 47.6368 136.216H51.8932V131.96Z" fill="#B9BFDF"/>
<path d="M58.3776 129.73H51.8911V136.216H58.3776V129.73Z" fill="#B9BFDF"/>
<path d="M64.8622 129.73H58.3757V136.216H62.6322C63.2484 136.216 63.7744 135.999 64.2097 135.564C64.6449 135.129 64.8622 134.603 64.8622 133.986V129.73Z" fill="#B9BFDF"/>
<path d="M84.3231 129.73H77.8367V136.216H84.3231V129.73Z" fill="#B9BFDF"/>
<path d="M97.2961 129.73H90.8096V136.216H97.2961V129.73Z" fill="#B9BFDF"/>
<path d="M103.782 129.73H97.2959V136.216H103.782V129.73Z" fill="#B9BFDF"/>
<path d="M110.268 129.73H103.781V136.216H110.268V129.73Z" fill="#B9BFDF"/>
<path d="M116.757 129.73H110.27V136.216H114.526C115.143 136.216 115.669 135.999 116.104 135.564C116.539 135.129 116.757 134.603 116.757 133.986V129.73Z" fill="#B9BFDF"/>
<path d="M129.73 133.986C129.73 134.603 129.512 135.129 129.077 135.564C128.643 135.999 128.117 136.216 127.5 136.216H125.473C124.857 136.216 124.331 135.999 123.896 135.564C123.461 135.129 123.243 134.603 123.243 133.986V131.96C123.243 131.344 123.461 130.818 123.896 130.383C124.331 129.947 124.857 129.73 125.473 129.73H127.5C128.117 129.73 128.643 129.947 129.078 130.383C129.513 130.818 129.73 131.343 129.73 131.96V133.986Z" fill="#B9BFDF"/>
<path d="M142.687 131.808H142.7V129.73H136.213V131.808H136.225C136.217 131.875 136.213 131.926 136.213 131.96V133.987C136.213 134.603 136.43 135.129 136.866 135.565C137.301 136 137.826 136.216 138.443 136.216H140.47C141.086 136.216 141.612 135.999 142.048 135.564C142.482 135.129 142.7 134.603 142.7 133.986V131.96C142.7 131.926 142.696 131.875 142.687 131.808Z" fill="#B9BFDF"/>
<path d="M155.673 133.986C155.673 134.603 155.455 135.129 155.021 135.564C154.586 135.999 154.06 136.216 153.443 136.216H151.417C150.801 136.216 150.275 135.999 149.839 135.564C149.404 135.129 149.187 134.603 149.187 133.986V131.96C149.187 131.344 149.404 130.818 149.839 130.383C150.275 129.947 150.8 129.73 151.417 129.73H153.444C154.061 129.73 154.586 129.947 155.021 130.383C155.456 130.818 155.673 131.343 155.673 131.96V133.986Z" fill="#B9BFDF"/>
<path d="M168.649 131.96C168.649 131.343 168.432 130.818 167.997 130.383C167.562 129.947 167.036 129.73 166.419 129.73H164.393C163.777 129.73 163.251 129.947 162.815 130.383C162.38 130.818 162.163 131.343 162.163 131.96V133.987C162.163 134.021 162.167 134.071 162.175 134.139H162.163V136.216H168.649V134.139H168.637C168.645 134.071 168.649 134.021 168.649 133.987V131.96Z" fill="#B9BFDF"/>
<path d="M181.62 131.96V129.73H177.364C176.748 129.73 176.222 129.947 175.786 130.383C175.351 130.818 175.134 131.343 175.134 131.96V133.987C175.134 134.603 175.351 135.129 175.786 135.565C176.222 136 176.747 136.216 177.364 136.216H181.62V131.96Z" fill="#B9BFDF"/>
<path d="M188.108 129.73H181.622V136.216H188.108V129.73Z" fill="#B9BFDF"/>
<path d="M207.566 129.73H201.08V136.216H207.566V129.73Z" fill="#B9BFDF"/>
<path d="M214.052 129.73H207.566V136.216H214.052V129.73Z" fill="#B9BFDF"/>
<path d="M220.54 129.73H214.053V136.216H220.54V129.73Z" fill="#B9BFDF"/>
<path d="M227.026 129.73H220.539V136.216H227.026V129.73Z" fill="#B9BFDF"/>
<path d="M19.4582 136.216H12.9717V142.703H19.4582V136.216Z" fill="#B9BFDF"/>
<path d="M38.9157 136.216H32.4292V142.703H38.9157V136.216Z" fill="#B9BFDF"/>
<path d="M77.8364 138.446V136.216H73.5799C72.9637 136.216 72.4376 136.434 72.0024 136.869C71.5672 137.304 71.3499 137.829 71.3499 138.446V140.473C71.3499 141.09 71.5672 141.616 72.0024 142.051C72.4376 142.486 72.9631 142.703 73.5799 142.703H77.8364V138.446Z" fill="#B9BFDF"/>
<path d="M84.3231 136.216H77.8367V142.703H84.3231V136.216Z" fill="#B9BFDF"/>
<path d="M90.8083 136.216H84.3218V142.703H90.8083V136.216Z" fill="#B9BFDF"/>
<path d="M97.2961 136.216H90.8096V142.703H95.066C95.6822 142.703 96.2083 142.485 96.6435 142.05C97.0788 141.616 97.2961 141.09 97.2961 140.473V136.216Z" fill="#B9BFDF"/>
<path d="M162.165 138.446V136.216H157.908C157.292 136.216 156.766 136.434 156.331 136.869C155.896 137.304 155.678 137.829 155.678 138.446V142.703H162.165V138.446Z" fill="#B9BFDF"/>
<path d="M168.649 136.216H162.163V142.703H168.649V136.216Z" fill="#B9BFDF"/>
<path d="M175.133 138.446C175.133 137.829 174.916 137.304 174.48 136.869C174.046 136.434 173.52 136.216 172.903 136.216H168.646V142.703H175.133V138.446Z" fill="#B9BFDF"/>
<path d="M188.108 136.216H181.622V140.473C181.622 141.089 181.839 141.615 182.274 142.05C182.709 142.485 183.235 142.703 183.852 142.703H188.108V136.216Z" fill="#B9BFDF"/>
<path d="M194.594 136.216H188.107V142.703H194.594V136.216Z" fill="#B9BFDF"/>
<path d="M201.08 136.216H194.594V142.703H201.08V136.216Z" fill="#B9BFDF"/>
<path d="M207.566 136.216H201.08V142.703H207.566V136.216Z" fill="#B9BFDF"/>
<path d="M214.052 136.216H207.566V142.703H214.052V136.216Z" fill="#B9BFDF"/>
<path d="M220.54 136.216H214.053V142.703H220.54V136.216Z" fill="#B9BFDF"/>
<path d="M227.026 136.216H220.539V142.703H227.026V136.216Z" fill="#B9BFDF"/>
<path d="M19.4582 142.703H12.9717V149.189H19.4582V142.703Z" fill="#B9BFDF"/>
<path d="M32.4328 144.933V142.703H28.1763C27.5601 142.703 27.0341 142.92 26.5988 143.355C26.1636 143.79 25.9463 144.316 25.9463 144.933V146.96C25.9463 147.576 26.1636 148.102 26.5988 148.537C27.0341 148.972 27.5595 149.189 28.1763 149.189H32.4328V144.933Z" fill="#B9BFDF"/>
<path d="M38.9157 142.703H32.4292V149.189H38.9157V142.703Z" fill="#B9BFDF"/>
<path d="M58.3776 144.933V142.703H54.1212C53.505 142.703 52.9789 142.92 52.5437 143.355C52.1084 143.79 51.8911 144.316 51.8911 144.933V146.96C51.8911 147.576 52.1084 148.102 52.5437 148.537C52.9789 148.972 53.5043 149.189 54.1212 149.189H58.3776V144.933Z" fill="#B9BFDF"/>
<path d="M64.8622 142.703H58.3757V149.189H64.8622V142.703Z" fill="#B9BFDF"/>
<path d="M69.12 142.703H64.8635V149.189H69.12C69.7362 149.189 70.2622 148.972 70.6975 148.537C71.1327 148.102 71.35 147.576 71.35 146.959V144.933C71.35 144.316 71.1327 143.79 70.6975 143.355C70.2629 142.92 69.7368 142.703 69.12 142.703Z" fill="#B9BFDF"/>
<path d="M84.3231 142.703H77.8367V149.189H84.3231V142.703Z" fill="#B9BFDF"/>
<path d="M110.268 144.933V142.703H106.012C105.395 142.703 104.869 142.92 104.434 143.355C103.999 143.79 103.781 144.316 103.781 144.933V146.96C103.781 147.576 103.999 148.102 104.434 148.537C104.869 148.972 105.395 149.189 106.012 149.189H110.268V144.933Z" fill="#B9BFDF"/>
<path d="M116.757 144.933C116.757 144.316 116.539 143.79 116.104 143.355C115.669 142.92 115.143 142.703 114.526 142.703H110.27V149.189H116.757V144.933Z" fill="#B9BFDF"/>
<path d="M162.165 142.703H155.678V149.189H162.165V142.703Z" fill="#B9BFDF"/>
<path d="M175.133 142.703H168.646V149.189H175.133V142.703Z" fill="#B9BFDF"/>
<path d="M194.582 144.78H194.594V142.703H188.107V144.78H188.12C188.111 144.848 188.107 144.898 188.107 144.933V146.96C188.107 147.576 188.325 148.102 188.76 148.537C189.195 148.972 189.721 149.189 190.337 149.189H192.364C192.981 149.189 193.507 148.972 193.942 148.537C194.377 148.102 194.594 147.576 194.594 146.959V144.933C194.594 144.898 194.59 144.848 194.582 144.78Z" fill="#B9BFDF"/>
<path d="M207.566 142.703H201.08V149.189H207.566V142.703Z" fill="#B9BFDF"/>
<path d="M220.54 142.703H214.053V149.189H220.54V142.703Z" fill="#B9BFDF"/>
<path d="M227.026 142.703H220.539V149.189H224.795C225.412 149.189 225.938 148.972 226.373 148.537C226.808 148.102 227.026 147.576 227.026 146.959V142.703Z" fill="#B9BFDF"/>
<path d="M19.4582 149.189H12.9717V155.676H19.4582V149.189Z" fill="#B9BFDF"/>
<path d="M23.7142 149.189H19.4578V155.676H23.7142C24.3304 155.676 24.8565 155.459 25.2917 155.024C25.7269 154.589 25.9442 154.063 25.9442 153.446V151.42C25.9442 150.803 25.7269 150.277 25.2917 149.842C24.8571 149.407 24.331 149.189 23.7142 149.189Z" fill="#B9BFDF"/>
<path d="M38.9157 149.189H32.4292V155.676H38.9157V149.189Z" fill="#B9BFDF"/>
<path d="M43.1746 149.189H38.9182V155.676H43.1746C43.7908 155.676 44.3169 155.459 44.7521 155.024C45.1874 154.589 45.4047 154.063 45.4047 153.446V151.42C45.4047 150.803 45.1874 150.277 44.7521 149.842C44.3175 149.407 43.7915 149.189 43.1746 149.189Z" fill="#B9BFDF"/>
<path d="M64.8622 149.189H58.3757V155.676H64.8622V149.189Z" fill="#B9BFDF"/>
<path d="M84.3231 149.189H77.8367V153.446C77.8367 154.062 78.054 154.588 78.4892 155.024C78.9244 155.459 79.4498 155.676 80.0667 155.676H84.3231V149.189Z" fill="#B9BFDF"/>
<path d="M88.5782 149.189H84.3218V155.676H88.5782C89.1944 155.676 89.7205 155.459 90.1557 155.024C90.591 154.589 90.8083 154.063 90.8083 153.446V151.42C90.8083 150.803 90.591 150.277 90.1557 149.842C89.7211 149.407 89.1951 149.189 88.5782 149.189Z" fill="#B9BFDF"/>
<path d="M116.757 149.189H110.27V153.446C110.27 154.062 110.487 154.588 110.923 155.024C111.358 155.459 111.883 155.676 112.5 155.676H116.757V149.189Z" fill="#B9BFDF"/>
<path d="M123.241 151.42C123.241 150.803 123.024 150.277 122.588 149.842C122.154 149.407 121.628 149.189 121.011 149.189H116.754V155.676H123.241V151.42Z" fill="#B9BFDF"/>
<path d="M142.7 151.42V149.189H138.443C137.827 149.189 137.301 149.407 136.866 149.842C136.43 150.277 136.213 150.803 136.213 151.42V153.447C136.213 154.063 136.43 154.589 136.866 155.024C137.301 155.459 137.826 155.676 138.443 155.676H142.7V151.42Z" fill="#B9BFDF"/>
<path d="M149.188 151.42C149.188 150.803 148.971 150.277 148.536 149.842C148.101 149.407 147.575 149.189 146.958 149.189H142.702V155.676H149.188V151.42Z" fill="#B9BFDF"/>
<path d="M162.153 151.267H162.165V149.189H155.678V151.267H155.691C155.682 151.335 155.678 151.385 155.678 151.42V153.447C155.678 154.063 155.896 154.589 156.331 155.024C156.766 155.459 157.292 155.676 157.908 155.676H159.935C160.552 155.676 161.078 155.459 161.513 155.024C161.948 154.589 162.165 154.063 162.165 153.446V151.42C162.165 151.385 162.161 151.335 162.153 151.267Z" fill="#B9BFDF"/>
<path d="M175.133 149.189H168.646V153.446C168.646 154.062 168.864 154.588 169.299 155.024C169.734 155.459 170.26 155.676 170.877 155.676H175.133V149.189Z" fill="#B9BFDF"/>
<path d="M179.39 149.189H175.134V155.676H179.39C180.006 155.676 180.533 155.459 180.968 155.024C181.403 154.589 181.62 154.063 181.62 153.446V151.42C181.62 150.803 181.403 150.277 180.968 149.842C180.533 149.407 180.007 149.189 179.39 149.189Z" fill="#B9BFDF"/>
<path d="M201.08 151.42V149.189H196.824C196.207 149.189 195.681 149.407 195.246 149.842C194.811 150.277 194.594 150.803 194.594 151.42V155.676H201.08V151.42Z" fill="#B9BFDF"/>
<path d="M207.566 149.189H201.08V155.676H207.566V149.189Z" fill="#B9BFDF"/>
<path d="M214.052 149.189H207.566V155.676H214.052V149.189Z" fill="#B9BFDF"/>
<path d="M220.54 149.189H214.053V155.676H220.54V149.189Z" fill="#B9BFDF"/>
<path d="M19.4582 155.676H12.9717V162.162H19.4582V155.676Z" fill="#B9BFDF"/>
<path d="M38.9157 155.676H32.4292V162.162H38.9157V155.676Z" fill="#B9BFDF"/>
<path d="M58.3776 157.906V155.676H54.1212C53.505 155.676 52.9789 155.893 52.5437 156.328C52.1084 156.764 51.8911 157.289 51.8911 157.906V159.933C51.8911 160.549 52.1084 161.075 52.5437 161.51C52.9789 161.946 53.5043 162.162 54.1212 162.162H58.3776V157.906Z" fill="#B9BFDF"/>
<path d="M64.8622 155.676H58.3757V162.162H64.8622V155.676Z" fill="#B9BFDF"/>
<path d="M71.35 155.676H64.8635V162.162H71.35V155.676Z" fill="#B9BFDF"/>
<path d="M75.6063 155.676H71.3499V162.162H75.6063C76.2225 162.162 76.7486 161.945 77.1839 161.51C77.6191 161.075 77.8364 160.549 77.8364 159.932V157.906C77.8364 157.289 77.6191 156.764 77.1839 156.328C76.7493 155.893 76.2232 155.676 75.6063 155.676Z" fill="#B9BFDF"/>
<path d="M97.2961 157.906V155.676H93.0396C92.4234 155.676 91.8974 155.893 91.4621 156.328C91.0269 156.764 90.8096 157.289 90.8096 157.906V162.162H97.2961V157.906Z" fill="#B9BFDF"/>
<path d="M103.782 157.906C103.782 157.289 103.565 156.764 103.13 156.328C102.695 155.893 102.169 155.676 101.552 155.676H97.2959V162.162H103.782V157.906Z" fill="#B9BFDF"/>
<path d="M123.241 155.676H116.754V162.162H123.241V155.676Z" fill="#B9BFDF"/>
<path d="M136.216 157.906C136.216 157.289 135.998 156.764 135.563 156.328C135.129 155.893 134.603 155.676 133.986 155.676H131.959C131.343 155.676 130.817 155.893 130.382 156.328C129.947 156.764 129.729 157.289 129.729 157.906V159.933C129.729 159.967 129.733 160.017 129.742 160.085H129.729V162.162H136.216V160.085H136.203C136.212 160.017 136.216 159.967 136.216 159.933V157.906Z" fill="#B9BFDF"/>
<path d="M149.176 157.753H149.188V155.676H142.702V157.753H142.714C142.706 157.821 142.702 157.871 142.702 157.906V159.933C142.702 160.549 142.919 161.075 143.354 161.51C143.789 161.946 144.315 162.162 144.932 162.162H146.959C147.575 162.162 148.101 161.945 148.536 161.51C148.971 161.075 149.188 160.549 149.188 159.932V157.906C149.188 157.871 149.184 157.821 149.176 157.753Z" fill="#B9BFDF"/>
<path d="M168.649 159.932C168.649 160.549 168.431 161.074 167.997 161.51C167.562 161.944 167.036 162.162 166.419 162.162H164.393C163.777 162.162 163.251 161.944 162.815 161.51C162.38 161.075 162.163 160.549 162.163 159.932V157.906C162.163 157.29 162.38 156.764 162.815 156.328C163.251 155.893 163.776 155.676 164.393 155.676H166.42C167.037 155.676 167.562 155.893 167.997 156.328C168.432 156.764 168.649 157.289 168.649 157.906V159.932Z" fill="#B9BFDF"/>
<path d="M188.108 159.932C188.108 160.549 187.89 161.074 187.456 161.51C187.021 161.944 186.495 162.162 185.878 162.162H183.852C183.235 162.162 182.709 161.944 182.274 161.51C181.839 161.075 181.622 160.549 181.622 159.932V157.906C181.622 157.29 181.839 156.764 182.274 156.328C182.709 155.893 183.235 155.676 183.852 155.676H185.879C186.496 155.676 187.021 155.893 187.456 156.328C187.891 156.764 188.108 157.289 188.108 157.906V159.932Z" fill="#B9BFDF"/>
<path d="M201.08 155.676H194.594V162.162H201.08V155.676Z" fill="#B9BFDF"/>
<path d="M220.54 155.676H214.053V159.932C214.053 160.548 214.271 161.074 214.706 161.51C215.141 161.945 215.666 162.162 216.283 162.162H220.54V155.676Z" fill="#B9BFDF"/>
<path d="M227.026 157.906C227.026 157.289 226.808 156.764 226.373 156.328C225.938 155.893 225.412 155.676 224.795 155.676H220.539V162.162H227.026V157.906Z" fill="#B9BFDF"/>
<path d="M19.4582 162.163H12.9717V168.649H19.4582V162.163Z" fill="#B9BFDF"/>
<path d="M38.9034 164.24H38.9157V162.163H32.4292V164.24H32.4415C32.4331 164.308 32.4292 164.358 32.4292 164.393V166.42C32.4292 167.036 32.6465 167.562 33.0817 167.997C33.517 168.432 34.0424 168.649 34.6593 168.649H36.6863C37.3025 168.649 37.8286 168.432 38.2638 167.997C38.6984 167.562 38.9157 167.036 38.9157 166.419V164.393C38.9157 164.358 38.9118 164.308 38.9034 164.24Z" fill="#B9BFDF"/>
<path d="M71.35 162.163H64.8635V168.649H71.35V162.163Z" fill="#B9BFDF"/>
<path d="M90.8083 164.393V162.163H86.5518C85.9356 162.163 85.4096 162.38 84.9743 162.815C84.5391 163.25 84.3218 163.776 84.3218 164.393V168.649H90.8083V164.393Z" fill="#B9BFDF"/>
<path d="M97.2961 162.163H90.8096V168.649H97.2961V162.163Z" fill="#B9BFDF"/>
<path d="M103.782 162.163H97.2959V168.649H101.552C102.169 168.649 102.695 168.432 103.13 167.997C103.565 167.562 103.782 167.036 103.782 166.419V162.163Z" fill="#B9BFDF"/>
<path d="M116.757 164.393V162.163H112.5C111.884 162.163 111.358 162.38 110.923 162.815C110.487 163.25 110.27 163.776 110.27 164.393V166.42C110.27 167.036 110.487 167.562 110.923 167.997C111.358 168.432 111.883 168.649 112.5 168.649H116.757V164.393Z" fill="#B9BFDF"/>
<path d="M123.241 162.163H116.754V168.649H121.011C121.627 168.649 122.153 168.432 122.588 167.997C123.024 167.562 123.241 167.036 123.241 166.419V162.163Z" fill="#B9BFDF"/>
<path d="M136.216 162.163H129.729V168.649H136.216V162.163Z" fill="#B9BFDF"/>
<path d="M162.165 166.419C162.165 167.036 161.947 167.561 161.512 167.997C161.078 168.431 160.552 168.649 159.935 168.649H157.908C157.292 168.649 156.766 168.431 156.331 167.997C155.896 167.562 155.678 167.036 155.678 166.419V164.393C155.678 163.776 155.896 163.25 156.331 162.815C156.766 162.38 157.292 162.163 157.908 162.163H159.935C160.552 162.163 161.078 162.38 161.513 162.815C161.948 163.25 162.165 163.776 162.165 164.393V166.419Z" fill="#B9BFDF"/>
<path d="M194.594 164.393V162.163H190.337C189.721 162.163 189.195 162.38 188.76 162.815C188.325 163.25 188.107 163.776 188.107 164.393V168.649H194.594V164.393Z" fill="#B9BFDF"/>
<path d="M201.08 162.163H194.594V168.649H201.08V162.163Z" fill="#B9BFDF"/>
<path d="M214.052 166.419C214.052 167.036 213.834 167.561 213.4 167.997C212.965 168.431 212.439 168.649 211.822 168.649H209.796C209.18 168.649 208.654 168.431 208.218 167.997C207.783 167.562 207.566 167.036 207.566 166.419V164.393C207.566 163.776 207.783 163.25 208.218 162.815C208.654 162.38 209.179 162.163 209.796 162.163H211.823C212.44 162.163 212.965 162.38 213.401 162.815C213.835 163.25 214.052 163.776 214.052 164.393V166.419Z" fill="#B9BFDF"/>
<path d="M227.013 164.24H227.026V162.163H220.539V164.24H220.551C220.543 164.308 220.539 164.358 220.539 164.393V166.42C220.539 167.036 220.756 167.562 221.192 167.997C221.627 168.432 222.152 168.649 222.769 168.649H224.796C225.412 168.649 225.938 168.432 226.374 167.997C226.808 167.562 227.026 167.036 227.026 166.419V164.393C227.026 164.358 227.022 164.308 227.013 164.24Z" fill="#B9BFDF"/>
<path d="M19.4582 168.649H12.9717V172.905C12.9717 173.522 13.189 174.048 13.6242 174.483C14.0595 174.918 14.5849 175.135 15.2017 175.135H19.4582V168.649Z" fill="#B9BFDF"/>
<path d="M25.9442 168.649H19.4578V175.135H25.9442V168.649Z" fill="#B9BFDF"/>
<path d="M30.2027 168.649H25.9463V175.135H30.2027C30.8189 175.135 31.345 174.918 31.7802 174.483C32.2155 174.048 32.4328 173.522 32.4328 172.905V170.879C32.4328 170.262 32.2155 169.737 31.7802 169.301C31.3456 168.866 30.8196 168.649 30.2027 168.649Z" fill="#B9BFDF"/>
<path d="M45.4047 170.879V168.649H41.1483C40.532 168.649 40.006 168.866 39.5708 169.301C39.1355 169.737 38.9182 170.262 38.9182 170.879V172.906C38.9182 173.522 39.1355 174.048 39.5708 174.484C40.006 174.919 40.5314 175.135 41.1483 175.135H45.4047V170.879Z" fill="#B9BFDF"/>
<path d="M51.8932 168.649H45.4067V175.135H51.8932V168.649Z" fill="#B9BFDF"/>
<path d="M56.1475 168.649H51.8911V175.135H56.1475C56.7638 175.135 57.2898 174.918 57.7251 174.483C58.1603 174.048 58.3776 173.522 58.3776 172.905V170.879C58.3776 170.262 58.1603 169.737 57.7251 169.301C57.2905 168.866 56.7644 168.649 56.1475 168.649Z" fill="#B9BFDF"/>
<path d="M71.35 168.649H64.8635V175.135H71.35V168.649Z" fill="#B9BFDF"/>
<path d="M77.8364 170.879C77.8364 170.262 77.6191 169.737 77.1839 169.301C76.7493 168.866 76.2232 168.649 75.6063 168.649H71.3499V175.135H77.8364V170.879Z" fill="#B9BFDF"/>
<path d="M90.8083 168.649H84.3218V172.905C84.3218 173.522 84.5391 174.048 84.9743 174.483C85.4096 174.918 85.935 175.135 86.5518 175.135H90.8083V168.649Z" fill="#B9BFDF"/>
<path d="M97.2961 168.649H90.8096V175.135H95.066C95.6822 175.135 96.2083 174.918 96.6435 174.483C97.0788 174.048 97.2961 173.522 97.2961 172.905V168.649Z" fill="#B9BFDF"/>
<path d="M110.268 172.905C110.268 173.522 110.05 174.048 109.615 174.483C109.181 174.917 108.655 175.135 108.038 175.135H106.012C105.395 175.135 104.869 174.917 104.434 174.483C103.999 174.048 103.781 173.522 103.781 172.905V170.879C103.781 170.263 103.999 169.737 104.434 169.301C104.869 168.866 105.395 168.649 106.012 168.649H108.039C108.655 168.649 109.181 168.866 109.616 169.301C110.051 169.737 110.268 170.262 110.268 170.879V172.905Z" fill="#B9BFDF"/>
<path d="M136.216 168.649H129.729V175.135H136.216V168.649Z" fill="#B9BFDF"/>
<path d="M168.649 170.879V168.649H164.393C163.777 168.649 163.251 168.866 162.815 169.301C162.38 169.737 162.163 170.262 162.163 170.879V175.135H168.649V170.879Z" fill="#B9BFDF"/>
<path d="M175.133 168.649H168.646V175.135H175.133V168.649Z" fill="#B9BFDF"/>
<path d="M181.62 168.649H175.134V175.135H181.62V168.649Z" fill="#B9BFDF"/>
<path d="M188.108 168.649H181.622V175.135H188.108V168.649Z" fill="#B9BFDF"/>
<path d="M194.594 168.649H188.107V175.135H194.594V168.649Z" fill="#B9BFDF"/>
<path d="M201.08 168.649H194.594V175.135H201.08V168.649Z" fill="#B9BFDF"/>
<path d="M71.35 175.135H64.8635V181.622H71.35V175.135Z" fill="#B9BFDF"/>
<path d="M77.8364 175.135H71.3499V181.622H77.8364V175.135Z" fill="#B9BFDF"/>
<path d="M123.241 179.392C123.241 180.009 123.023 180.534 122.588 180.969C122.154 181.404 121.628 181.622 121.011 181.622H118.984C118.368 181.622 117.842 181.404 117.407 180.969C116.972 180.535 116.754 180.009 116.754 179.392V177.365C116.754 176.749 116.972 176.223 117.407 175.788C117.842 175.353 118.368 175.135 118.984 175.135H121.011C121.628 175.135 122.154 175.353 122.589 175.788C123.024 176.223 123.241 176.748 123.241 177.365V179.392Z" fill="#B9BFDF"/>
<path d="M136.216 175.135H129.729V181.622H136.216V175.135Z" fill="#B9BFDF"/>
<path d="M140.47 175.135H136.213V181.622H140.47C141.086 181.622 141.612 181.404 142.047 180.969C142.482 180.535 142.7 180.009 142.7 179.392V177.365C142.7 176.748 142.482 176.223 142.047 175.788C141.612 175.353 141.086 175.135 140.47 175.135Z" fill="#B9BFDF"/>
<path d="M155.673 177.365V175.135H151.417C150.801 175.135 150.275 175.353 149.839 175.788C149.404 176.223 149.187 176.748 149.187 177.365V179.392C149.187 180.009 149.404 180.535 149.839 180.97C150.275 181.405 150.8 181.622 151.417 181.622H155.673V177.365Z" fill="#B9BFDF"/>
<path d="M162.165 175.135H155.678V181.622H162.165V175.135Z" fill="#B9BFDF"/>
<path d="M168.649 175.135H162.163V181.622H168.649V175.135Z" fill="#B9BFDF"/>
<path d="M175.133 175.135H168.646V181.622H175.133V175.135Z" fill="#B9BFDF"/>
<path d="M201.08 175.135H194.594V181.622H201.08V175.135Z" fill="#B9BFDF"/>
<path d="M207.566 175.135H201.08V181.622H207.566V175.135Z" fill="#B9BFDF"/>
<path d="M211.822 175.135H207.566V181.622H211.822C212.439 181.622 212.965 181.404 213.4 180.969C213.835 180.535 214.052 180.009 214.052 179.392V177.365C214.052 176.748 213.835 176.223 213.4 175.788C212.965 175.353 212.439 175.135 211.822 175.135Z" fill="#B9BFDF"/>
<path d="M71.35 181.622H64.8635V185.878C64.8635 186.495 65.0808 187.021 65.5161 187.456C65.9513 187.891 66.4767 188.109 67.0936 188.109H71.35V181.622Z" fill="#B9BFDF"/>
<path d="M77.8364 181.622H71.3499V188.109H77.8364V181.622Z" fill="#B9BFDF"/>
<path d="M84.3231 181.622H77.8367V188.109H84.3231V181.622Z" fill="#B9BFDF"/>
<path d="M88.5782 181.622H84.3218V188.109H88.5782C89.1944 188.109 89.7205 187.891 90.1557 187.456C90.591 187.021 90.8083 186.495 90.8083 185.878V183.852C90.8083 183.235 90.591 182.71 90.1557 182.275C89.7211 181.839 89.1951 181.622 88.5782 181.622Z" fill="#B9BFDF"/>
<path d="M116.757 185.878C116.757 186.495 116.539 187.021 116.104 187.456C115.669 187.891 115.143 188.109 114.526 188.109H112.5C111.884 188.109 111.358 187.891 110.923 187.456C110.487 187.021 110.27 186.495 110.27 185.878V183.852C110.27 183.236 110.487 182.71 110.923 182.275C111.358 181.839 111.883 181.622 112.5 181.622H114.527C115.144 181.622 115.669 181.839 116.105 182.275C116.539 182.71 116.757 183.235 116.757 183.852V185.878Z" fill="#B9BFDF"/>
<path d="M129.73 183.852V181.622H125.473C124.857 181.622 124.331 181.839 123.896 182.275C123.461 182.71 123.243 183.235 123.243 183.852V185.879C123.243 186.495 123.461 187.021 123.896 187.457C124.331 187.892 124.857 188.109 125.473 188.109H129.73V183.852Z" fill="#B9BFDF"/>
<path d="M136.216 181.622H129.729V188.109H133.986C134.602 188.109 135.128 187.891 135.563 187.456C135.998 187.021 136.216 186.495 136.216 185.878V181.622Z" fill="#B9BFDF"/>
<path d="M149.188 183.852C149.188 183.235 148.971 182.71 148.536 182.275C148.101 181.839 147.575 181.622 146.958 181.622H144.932C144.315 181.622 143.789 181.839 143.354 182.275C142.919 182.71 142.702 183.235 142.702 183.852V185.879C142.702 185.913 142.706 185.963 142.714 186.031H142.702V188.109H149.188V186.031H149.176C149.184 185.963 149.188 185.913 149.188 185.879V183.852Z" fill="#B9BFDF"/>
<path d="M168.649 181.622H162.163V188.109H168.649V181.622Z" fill="#B9BFDF"/>
<path d="M175.133 181.622H168.646V188.109H175.133V181.622Z" fill="#B9BFDF"/>
<path d="M188.108 185.878C188.108 186.495 187.89 187.021 187.456 187.456C187.021 187.891 186.495 188.109 185.878 188.109H183.852C183.235 188.109 182.709 187.891 182.274 187.456C181.839 187.021 181.622 186.495 181.622 185.878V183.852C181.622 183.236 181.839 182.71 182.274 182.275C182.709 181.839 183.235 181.622 183.852 181.622H185.879C186.496 181.622 187.021 181.839 187.456 182.275C187.891 182.71 188.108 183.235 188.108 183.852V185.878Z" fill="#B9BFDF"/>
<path d="M201.08 181.622H194.594V188.109H201.08V181.622Z" fill="#B9BFDF"/>
<path d="M77.8364 188.108H71.3499V194.595H77.8364V188.108Z" fill="#B9BFDF"/>
<path d="M103.782 190.338V188.108H99.526C98.9097 188.108 98.3837 188.326 97.9484 188.761C97.5132 189.196 97.2959 189.722 97.2959 190.338V194.595H103.782V190.338Z" fill="#B9BFDF"/>
<path d="M110.268 190.338C110.268 189.722 110.051 189.196 109.615 188.761C109.181 188.326 108.655 188.108 108.038 188.108H103.781V194.595H110.268V190.338Z" fill="#B9BFDF"/>
<path d="M149.188 188.108H142.702V192.365C142.702 192.981 142.919 193.507 143.354 193.942C143.789 194.378 144.315 194.595 144.932 194.595H149.188V188.108Z" fill="#B9BFDF"/>
<path d="M155.673 188.108H149.187V194.595H155.673V188.108Z" fill="#B9BFDF"/>
<path d="M162.165 188.108H155.678V194.595H162.165V188.108Z" fill="#B9BFDF"/>
<path d="M168.649 188.108H162.163V194.595H168.649V188.108Z" fill="#B9BFDF"/>
<path d="M175.133 188.108H168.646V194.595H175.133V188.108Z" fill="#B9BFDF"/>
<path d="M201.08 188.108H194.594V194.595H201.08V188.108Z" fill="#B9BFDF"/>
<path d="M214.052 190.338V188.108H209.796C209.18 188.108 208.654 188.326 208.218 188.761C207.783 189.196 207.566 189.722 207.566 190.338V192.365C207.566 192.982 207.783 193.508 208.218 193.943C208.654 194.378 209.179 194.595 209.796 194.595H214.052V190.338Z" fill="#B9BFDF"/>
<path d="M220.54 190.338C220.54 189.722 220.322 189.196 219.887 188.761C219.453 188.326 218.927 188.108 218.31 188.108H214.053V194.595H220.54V190.338Z" fill="#B9BFDF"/>
<path d="M71.35 196.825V194.595H67.0936C66.4774 194.595 65.9513 194.812 65.5161 195.247C65.0808 195.683 64.8635 196.208 64.8635 196.825V201.081H71.35V196.825Z" fill="#B9BFDF"/>
<path d="M77.8364 194.595H71.3499V201.081H77.8364V194.595Z" fill="#B9BFDF"/>
<path d="M84.3231 194.595H77.8367V201.081H84.3231V194.595Z" fill="#B9BFDF"/>
<path d="M90.8083 196.825C90.8083 196.208 90.591 195.683 90.1557 195.247C89.7211 194.812 89.1951 194.595 88.5782 194.595H84.3218V201.081H90.8083V196.825Z" fill="#B9BFDF"/>
<path d="M103.782 194.595H97.2959V201.081H103.782V194.595Z" fill="#B9BFDF"/>
<path d="M110.268 194.595H103.781V201.081H110.268V194.595Z" fill="#B9BFDF"/>
<path d="M116.757 196.825C116.757 196.208 116.539 195.683 116.104 195.247C115.669 194.812 115.143 194.595 114.526 194.595H110.27V201.081H116.757V196.825Z" fill="#B9BFDF"/>
<path d="M136.216 198.851C136.216 199.468 135.998 199.993 135.563 200.429C135.129 200.863 134.603 201.081 133.986 201.081H131.959C131.343 201.081 130.817 200.863 130.382 200.429C129.947 199.994 129.729 199.468 129.729 198.851V196.825C129.729 196.209 129.947 195.683 130.382 195.247C130.817 194.812 131.342 194.595 131.959 194.595H133.986C134.603 194.595 135.129 194.812 135.564 195.247C135.998 195.683 136.216 196.208 136.216 196.825V198.851Z" fill="#B9BFDF"/>
<path d="M155.673 194.595H149.187V201.081H155.673V194.595Z" fill="#B9BFDF"/>
<path d="M162.165 194.595H155.678V201.081H162.165V194.595Z" fill="#B9BFDF"/>
<path d="M168.649 194.595H162.163V201.081H168.649V194.595Z" fill="#B9BFDF"/>
<path d="M175.133 194.595H168.646V201.081H175.133V194.595Z" fill="#B9BFDF"/>
<path d="M181.62 194.595H175.134V201.081H181.62V194.595Z" fill="#B9BFDF"/>
<path d="M188.108 194.595H181.622V201.081H188.108V194.595Z" fill="#B9BFDF"/>
<path d="M194.594 194.595H188.107V201.081H194.594V194.595Z" fill="#B9BFDF"/>
<path d="M201.08 194.595H194.594V201.081H201.08V194.595Z" fill="#B9BFDF"/>
<path d="M205.336 194.595H201.08V201.081H205.336C205.952 201.081 206.479 200.864 206.914 200.429C207.349 199.994 207.566 199.468 207.566 198.851V196.825C207.566 196.208 207.349 195.683 206.914 195.247C206.479 194.812 205.953 194.595 205.336 194.595Z" fill="#B9BFDF"/>
<path d="M220.54 194.595H214.053V201.081H220.54V194.595Z" fill="#B9BFDF"/>
<path d="M71.35 201.082H64.8635V205.338C64.8635 205.954 65.0808 206.48 65.5161 206.915C65.9513 207.351 66.4767 207.568 67.0936 207.568H71.35V201.082Z" fill="#B9BFDF"/>
<path d="M77.8364 201.082H71.3499V207.568H75.6063C76.2225 207.568 76.7486 207.351 77.1839 206.915C77.6191 206.481 77.8364 205.955 77.8364 205.338V201.082Z" fill="#B9BFDF"/>
<path d="M90.8083 201.082H84.3218V205.338C84.3218 205.954 84.5391 206.48 84.9743 206.915C85.4096 207.351 85.935 207.568 86.5518 207.568H90.8083V201.082Z" fill="#B9BFDF"/>
<path d="M97.2961 201.082H90.8096V207.568H97.2961V201.082Z" fill="#B9BFDF"/>
<path d="M103.782 201.082H97.2959V207.568H103.782V201.082Z" fill="#B9BFDF"/>
<path d="M116.744 203.159H116.757V201.081H110.27V203.159H110.282C110.274 203.226 110.27 203.277 110.27 203.311V205.338C110.27 205.954 110.487 206.48 110.923 206.916C111.358 207.351 111.883 207.568 112.5 207.568H114.527C115.143 207.568 115.669 207.35 116.105 206.915C116.539 206.48 116.757 205.954 116.757 205.337V203.311C116.757 203.277 116.753 203.226 116.744 203.159Z" fill="#B9BFDF"/>
<path d="M129.73 205.338C129.73 205.955 129.512 206.48 129.077 206.915C128.643 207.35 128.117 207.568 127.5 207.568H125.473C124.857 207.568 124.331 207.35 123.896 206.915C123.461 206.481 123.243 205.955 123.243 205.338V203.312C123.243 202.695 123.461 202.169 123.896 201.734C124.331 201.299 124.857 201.082 125.473 201.082H127.5C128.117 201.082 128.643 201.299 129.078 201.734C129.513 202.169 129.73 202.695 129.73 203.312V205.338Z" fill="#B9BFDF"/>
<path d="M142.7 203.312C142.7 202.695 142.482 202.169 142.047 201.734C141.612 201.299 141.086 201.082 140.47 201.082H138.443C137.827 201.082 137.301 201.299 136.866 201.734C136.43 202.169 136.213 202.695 136.213 203.312V205.339C136.213 205.372 136.217 205.423 136.225 205.49H136.213V207.568H142.7V205.49H142.687C142.696 205.423 142.7 205.372 142.7 205.339V203.312Z" fill="#B9BFDF"/>
<path d="M155.673 201.082H149.187V207.568H155.673V201.082Z" fill="#B9BFDF"/>
<path d="M162.165 201.081H155.678V207.568H162.165V201.081Z" fill="#B9BFDF"/>
<path d="M181.608 203.159H181.62V201.081H175.134V203.159H175.146C175.138 203.226 175.134 203.277 175.134 203.311V205.338C175.134 205.954 175.351 206.48 175.786 206.916C176.222 207.351 176.747 207.568 177.364 207.568H179.391C180.007 207.568 180.533 207.35 180.968 206.915C181.403 206.48 181.62 205.954 181.62 205.337V203.311C181.62 203.277 181.616 203.226 181.608 203.159Z" fill="#B9BFDF"/>
<path d="M194.582 203.159H194.594V201.082H188.107V203.159H188.12C188.111 203.227 188.107 203.277 188.107 203.312V205.339C188.107 205.955 188.325 206.481 188.76 206.916C189.195 207.351 189.721 207.568 190.337 207.568H192.364C192.981 207.568 193.507 207.351 193.942 206.915C194.377 206.481 194.594 205.955 194.594 205.338V203.312C194.594 203.277 194.59 203.227 194.582 203.159Z" fill="#B9BFDF"/>
<path d="M214.052 203.312V201.082H209.796C209.18 201.082 208.654 201.299 208.218 201.734C207.783 202.169 207.566 202.695 207.566 203.312V207.568H214.052V203.312Z" fill="#B9BFDF"/>
<path d="M220.54 201.082H214.053V207.568H220.54V201.082Z" fill="#B9BFDF"/>
<path d="M97.2961 207.568H90.8096V211.824C90.8096 212.441 91.0269 212.967 91.4621 213.402C91.8974 213.837 92.4228 214.054 93.0396 214.054H97.2961V207.568Z" fill="#B9BFDF"/>
<path d="M103.782 207.568H97.2959V214.054H101.552C102.169 214.054 102.695 213.837 103.13 213.402C103.565 212.967 103.782 212.441 103.782 211.824V207.568Z" fill="#B9BFDF"/>
<path d="M136.216 209.798V207.568H131.959C131.343 207.568 130.817 207.785 130.382 208.22C129.947 208.656 129.729 209.181 129.729 209.798V214.054H136.216V209.798Z" fill="#B9BFDF"/>
<path d="M142.7 207.568H136.213V214.054H142.7V207.568Z" fill="#B9BFDF"/>
<path d="M155.673 207.568H149.187V214.054H155.673V207.568Z" fill="#B9BFDF"/>
<path d="M162.165 207.568H155.678V214.054H162.165V207.568Z" fill="#B9BFDF"/>
<path d="M201.08 211.824C201.08 212.441 200.862 212.967 200.427 213.402C199.993 213.836 199.467 214.054 198.85 214.054H196.824C196.207 214.054 195.681 213.836 195.246 213.402C194.811 212.967 194.594 212.441 194.594 211.824V209.798C194.594 209.182 194.811 208.656 195.246 208.22C195.681 207.785 196.207 207.568 196.824 207.568H198.851C199.467 207.568 199.993 207.785 200.428 208.22C200.863 208.656 201.08 209.181 201.08 209.798V211.824Z" fill="#B9BFDF"/>
<path d="M214.052 207.568H207.566V214.054H214.052V207.568Z" fill="#B9BFDF"/>
<path d="M220.54 207.568H214.053V214.054H220.54V207.568Z" fill="#B9BFDF"/>
<path d="M227.026 209.798C227.026 209.181 226.808 208.656 226.373 208.22C225.938 207.785 225.412 207.568 224.795 207.568H220.539V214.054H227.026V209.798Z" fill="#B9BFDF"/>
<path d="M90.8083 216.284C90.8083 215.667 90.591 215.142 90.1557 214.707C89.7211 214.271 89.1951 214.054 88.5782 214.054H86.5518C85.9356 214.054 85.4096 214.271 84.9743 214.707C84.5391 215.142 84.3218 215.667 84.3218 216.284V218.311C84.3218 218.345 84.3257 218.396 84.3341 218.463H84.3218V220.541H90.8083V218.463H90.7959C90.8044 218.396 90.8083 218.345 90.8083 218.311V216.284Z" fill="#B9BFDF"/>
<path d="M123.241 216.284V214.054H118.984C118.368 214.054 117.842 214.271 117.407 214.707C116.972 215.142 116.754 215.667 116.754 216.284V220.541H123.241V216.284Z" fill="#B9BFDF"/>
<path d="M129.73 214.054H123.243V220.541H129.73V214.054Z" fill="#B9BFDF"/>
<path d="M136.216 214.054H129.729V220.541H136.216V214.054Z" fill="#B9BFDF"/>
<path d="M142.7 214.054H136.213V220.541H142.7V214.054Z" fill="#B9BFDF"/>
<path d="M155.673 214.054H149.187V218.311C149.187 218.927 149.404 219.453 149.839 219.888C150.275 220.323 150.8 220.541 151.417 220.541H155.673V214.054Z" fill="#B9BFDF"/>
<path d="M162.165 214.054H155.678V220.541H162.165V214.054Z" fill="#B9BFDF"/>
<path d="M188.108 216.284C188.108 215.667 187.891 215.142 187.456 214.707C187.021 214.271 186.495 214.054 185.878 214.054H183.852C183.235 214.054 182.709 214.271 182.274 214.707C181.839 215.142 181.622 215.667 181.622 216.284V218.311C181.622 218.345 181.625 218.396 181.634 218.463H181.622V220.541H188.108V218.463H188.096C188.104 218.396 188.108 218.345 188.108 218.311V216.284Z" fill="#B9BFDF"/>
<path d="M207.566 216.284V214.054H203.31C202.694 214.054 202.168 214.271 201.732 214.707C201.297 215.142 201.08 215.667 201.08 216.284V218.311C201.08 218.927 201.297 219.454 201.732 219.889C202.168 220.324 202.693 220.541 203.31 220.541H207.566V216.284Z" fill="#B9BFDF"/>
<path d="M214.052 214.054H207.566V220.541H214.052V214.054Z" fill="#B9BFDF"/>
<path d="M220.54 214.054H214.053V220.541H220.54V214.054Z" fill="#B9BFDF"/>
<path d="M227.026 214.054H220.539V220.541H224.795C225.412 220.541 225.938 220.323 226.373 219.888C226.808 219.454 227.026 218.927 227.026 218.311V214.054Z" fill="#B9BFDF"/>
<path d="M90.8083 220.541H84.3218V224.797C84.3218 225.414 84.5391 225.94 84.9743 226.375C85.4096 226.81 85.935 227.027 86.5518 227.027H90.8083V220.541Z" fill="#B9BFDF"/>
<path d="M97.2961 220.541H90.8096V227.027H97.2961V220.541Z" fill="#B9BFDF"/>
<path d="M103.782 220.541H97.2959V227.027H103.782V220.541Z" fill="#B9BFDF"/>
<path d="M110.268 220.541H103.781V227.027H110.268V220.541Z" fill="#B9BFDF"/>
<path d="M116.757 220.541H110.27V227.027H116.757V220.541Z" fill="#B9BFDF"/>
<path d="M123.241 220.541H116.754V227.027H123.241V220.541Z" fill="#B9BFDF"/>
<path d="M129.73 220.541H123.243V227.027H127.5C128.116 227.027 128.642 226.81 129.077 226.375C129.513 225.94 129.73 225.414 129.73 224.797V220.541Z" fill="#B9BFDF"/>
<path d="M142.7 220.541H136.213V224.797C136.213 225.414 136.43 225.94 136.866 226.375C137.301 226.81 137.826 227.027 138.443 227.027H142.7V220.541Z" fill="#B9BFDF"/>
<path d="M146.958 220.541H142.702V227.027H146.958C147.574 227.027 148.1 226.81 148.536 226.375C148.971 225.94 149.188 225.414 149.188 224.797V222.771C149.188 222.154 148.971 221.629 148.536 221.194C148.101 220.758 147.575 220.541 146.958 220.541Z" fill="#B9BFDF"/>
<path d="M162.165 220.541H155.678V224.797C155.678 225.414 155.896 225.94 156.331 226.375C156.766 226.81 157.292 227.027 157.908 227.027H162.165V220.541Z" fill="#B9BFDF"/>
<path d="M168.649 220.541H162.163V227.027H168.649V220.541Z" fill="#B9BFDF"/>
<path d="M172.903 220.541H168.646V227.027H172.903C173.519 227.027 174.045 226.81 174.48 226.375C174.916 225.94 175.133 225.414 175.133 224.797V222.771C175.133 222.154 174.916 221.629 174.48 221.194C174.046 220.758 173.52 220.541 172.903 220.541Z" fill="#B9BFDF"/>
<path d="M188.096 222.619H188.108V220.541H181.622V222.619H181.634C181.625 222.686 181.622 222.737 181.622 222.771V224.798C181.622 225.414 181.839 225.94 182.274 226.376C182.709 226.811 183.235 227.027 183.852 227.027H185.879C186.495 227.027 187.021 226.81 187.456 226.375C187.891 225.94 188.108 225.414 188.108 224.797V222.771C188.108 222.737 188.104 222.686 188.096 222.619Z" fill="#B9BFDF"/>
<path d="M201.08 224.797C201.08 225.414 200.862 225.94 200.427 226.375C199.993 226.81 199.467 227.027 198.85 227.027H196.824C196.207 227.027 195.681 226.81 195.246 226.375C194.811 225.94 194.594 225.414 194.594 224.797V222.771C194.594 222.155 194.811 221.629 195.246 221.194C195.681 220.758 196.207 220.541 196.824 220.541H198.851C199.467 220.541 199.993 220.758 200.428 221.194C200.863 221.629 201.08 222.154 201.08 222.771V224.797Z" fill="#B9BFDF"/>
<path d="M214.04 222.619H214.052V220.541H207.566V222.619H207.578C207.57 222.686 207.566 222.737 207.566 222.771V224.798C207.566 225.414 207.783 225.94 208.218 226.376C208.654 226.811 209.179 227.027 209.796 227.027H211.823C212.439 227.027 212.965 226.81 213.401 226.375C213.835 225.94 214.052 225.414 214.052 224.797V222.771C214.052 222.737 214.049 222.686 214.04 222.619Z" fill="#B9BFDF"/>
<path d="M42.8796 12.9795H28.477C21.4573 12.9795 15.5137 17.6154 13.6113 23.954C13.416 24.6078 13.2616 25.2844 13.1527 25.9745C13.0392 26.7328 12.9756 27.5092 12.9756 28.3038V43.047C12.9756 51.5015 19.9317 58.3758 28.477 58.3758H35.6783H42.8796C51.4249 58.3758 58.381 51.5015 58.381 43.047V28.3038C58.381 19.8539 51.4249 12.9795 42.8796 12.9795ZM51.5702 43.047C51.5702 47.7419 47.6699 51.565 42.875 51.565H35.6783H28.4815C23.6867 51.565 19.7864 47.7419 19.7864 43.047V28.3038C19.7864 26.8372 20.1678 25.4569 20.8353 24.2491C21.48 23.0867 22.3927 22.0878 23.4915 21.3341C24.9036 20.3624 26.6245 19.7903 28.477 19.7903H42.8796C47.6699 19.7903 51.5702 23.6089 51.5702 28.3038V43.047Z" fill="#B9BFDF"/>
<path d="M211.526 12.9775H197.123C190.103 12.9775 184.16 17.6134 182.257 23.952C182.062 24.6059 181.908 25.2824 181.799 25.9726C181.685 26.7308 181.622 27.5073 181.622 28.3019V43.045C181.622 51.4995 188.578 58.3739 197.123 58.3739H204.324H211.526C220.071 58.3739 227.027 51.4995 227.027 43.045V28.3019C227.027 19.8519 220.071 12.9775 211.526 12.9775ZM220.216 43.045C220.216 47.7399 216.316 51.5631 211.521 51.5631H204.324H197.128C192.333 51.5631 188.432 47.7399 188.432 43.045V28.3019C188.432 26.8353 188.814 25.455 189.481 24.2472C190.126 23.0848 191.039 22.0859 192.137 21.3321C193.55 20.3605 195.27 19.7884 197.123 19.7884H211.526C216.316 19.7884 220.216 23.6069 220.216 28.3019V43.045Z" fill="#B9BFDF"/>
<path d="M42.8757 181.626H28.4731C21.4534 181.626 15.5098 186.262 13.6074 192.601C13.4121 193.255 13.2577 193.931 13.1488 194.622C13.0352 195.38 12.9717 196.156 12.9717 196.951V211.694C12.9717 220.148 19.9278 227.023 28.4731 227.023H35.6744H42.8757C51.421 227.023 58.3771 220.148 58.3771 211.694V196.951C58.3771 188.501 51.421 181.626 42.8757 181.626ZM51.5663 211.694C51.5663 216.389 47.666 220.212 42.8711 220.212H35.6744H28.4776C23.6828 220.212 19.7825 216.389 19.7825 211.694V196.951C19.7825 195.484 20.1639 194.104 20.8314 192.896C21.4761 191.734 22.3888 190.735 23.4876 189.981C24.8997 189.009 26.6205 188.437 28.4731 188.437H42.8757C47.666 188.437 51.5663 192.256 51.5663 196.951V211.694Z" fill="#B9BFDF"/>
<path d="M35.4852 45.0242C40.7535 45.0242 45.0242 40.7535 45.0242 35.4852C45.0242 30.217 40.7535 25.9463 35.4852 25.9463C30.217 25.9463 25.9463 30.217 25.9463 35.4852C25.9463 40.7535 30.217 45.0242 35.4852 45.0242Z" fill="white"/>
<path d="M204.132 45.0242C209.401 45.0242 213.671 40.7535 213.671 35.4852C213.671 30.217 209.401 25.9463 204.132 25.9463C198.864 25.9463 194.594 30.217 194.594 35.4852C194.594 40.7535 198.864 45.0242 204.132 45.0242Z" fill="white"/>
<path d="M35.4852 213.673C40.7535 213.673 45.0242 209.402 45.0242 204.134C45.0242 198.865 40.7535 194.595 35.4852 194.595C30.217 194.595 25.9463 198.865 25.9463 204.134C25.9463 209.402 30.217 213.673 35.4852 213.673Z" fill="white"/>
<path d="M137.457 84.3247H102.538C92.4775 84.3247 84.3218 92.4804 84.3218 102.541V137.46C84.3218 147.52 92.4775 155.676 102.538 155.676H137.457C147.518 155.676 155.673 147.52 155.673 137.46V102.541C155.673 92.4804 147.518 84.3247 137.457 84.3247Z" fill="#1C275D"/>
<path fill-rule="evenodd" clip-rule="evenodd" d="M126.141 115.398C124.304 115.398 122.805 113.909 122.805 112.08C122.805 110.252 124.295 108.763 126.141 108.763C127.978 108.763 129.468 110.252 129.468 112.08C129.468 113.909 127.978 115.398 126.141 115.398ZM120.246 121.267C118.408 121.267 116.919 119.777 116.919 117.949C116.919 116.112 118.408 114.631 120.246 114.631C122.083 114.631 123.572 116.121 123.572 117.949C123.572 119.786 122.083 121.267 120.246 121.267ZM114.35 115.398C112.513 115.398 111.023 113.909 111.023 112.08C111.023 110.252 112.513 108.763 114.35 108.763C116.188 108.763 117.677 110.252 117.677 112.08C117.677 113.909 116.188 115.398 114.35 115.398ZM120.246 102.876C122.083 102.876 123.572 104.366 123.572 106.194C123.572 108.022 122.083 109.512 120.246 109.512C118.408 109.512 116.919 108.022 116.919 106.194C116.919 104.366 118.408 102.876 120.246 102.876ZM131.403 123.167C135.06 120.544 137.111 116.647 137.174 112.678C137.299 109.869 136.469 106.729 134.159 104.178L138.262 99.3174L129.735 93.2437C128.71 94.5904 127.425 96.1869 126.337 97.5872C124.223 96.8201 121.976 96.3742 119.8 96.3742C109.989 96.3742 102.167 102.644 102.167 112.553C102.167 121.454 107.964 127.341 117.035 128.322V127.162C117.035 125.396 118.489 123.951 120.255 123.951C122.029 123.951 123.474 125.396 123.474 127.162V129.909H126.23C128.005 129.909 129.45 131.354 129.45 133.12C129.45 134.886 127.996 136.331 126.23 136.331H123.474V139.078C123.474 140.844 122.02 142.289 120.255 142.289C118.48 142.289 117.035 140.844 117.035 139.078V136.331H114.279C112.504 136.331 111.05 134.886 111.05 133.12C111.05 132.407 111.291 131.747 111.692 131.211H102.604C101.971 140.871 108.312 146.757 119.666 146.757C128.71 146.757 137.62 142.922 137.62 132.692C137.62 130.962 137.236 126.493 131.403 123.167Z" fill="white"/>
</svg>
