<svg width="48" height="48" viewBox="0 0 48 48" fill="none" xmlns="http://www.w3.org/2000/svg">
<path d="M22.8199 20.08V26.08C22.8257 26.292 22.8871 26.4989 22.9979 26.6797C23.1088 26.8605 23.2653 27.0091 23.4517 27.1104C23.6381 27.2116 23.8478 27.2622 24.0599 27.2568C24.2719 27.2515 24.4789 27.1905 24.6599 27.08L29.6599 24.08C29.8379 23.9722 29.9851 23.8203 30.0873 23.639C30.1894 23.4577 30.2431 23.2531 30.2431 23.045C30.2431 22.8369 30.1894 22.6323 30.0873 22.451C29.9851 22.2697 29.8379 22.1178 29.6599 22.01L24.6599 19.01C24.4738 18.8963 24.2604 18.8351 24.0423 18.8328C23.8242 18.8304 23.6096 18.8871 23.4211 18.9967C23.2325 19.1063 23.0771 19.2649 22.9713 19.4556C22.8655 19.6463 22.8132 19.862 22.8199 20.08Z" fill="#F5B83B"/>
<path d="M21.2199 12.03C21.7105 12.0294 22.1854 12.203 22.5599 12.52L25.7499 15.18C26.1244 15.497 26.5993 15.6706 27.0899 15.67H35.9099C36.4634 15.6726 36.9935 15.8937 37.3849 16.2851C37.7762 16.6764 37.9973 17.2065 37.9999 17.76V28.91C37.9973 29.4635 37.7762 29.9936 37.3849 30.3849C36.9935 30.7763 36.4634 30.9974 35.9099 31H16.7599C16.2047 31 15.6721 30.7801 15.2785 30.3885C14.885 29.9968 14.6626 29.4652 14.6599 28.91V14.12C14.6626 13.5648 14.885 13.0332 15.2785 12.6415C15.6721 12.2499 16.2047 12.03 16.7599 12.03H21.2199ZM21.2199 10.03H16.7599C15.6743 10.03 14.6329 10.4606 13.8643 11.2273C13.0957 11.9941 12.6626 13.0343 12.6599 14.12V28.91C12.6626 29.9957 13.0957 31.0359 13.8643 31.8027C14.6329 32.5694 15.6743 33 16.7599 33H35.9099C36.9938 32.9974 38.0326 32.5656 38.7991 31.7992C39.5655 31.0327 39.9973 29.9939 39.9999 28.91V17.76C39.9973 16.6761 39.5655 15.6373 38.7991 14.8709C38.0326 14.1044 36.9938 13.6726 35.9099 13.67H27.0899H27.0299L23.8399 11C23.1099 10.3713 22.1831 10.0175 21.2199 10V10.03Z" fill="white"/>
<path d="M8 15.48V32.56C8 33.2284 8.13166 33.8903 8.38745 34.5078C8.64325 35.1254 9.01818 35.6865 9.49083 36.1592C9.96348 36.6318 10.5246 37.0067 11.1421 37.2625C11.7597 37.5183 12.4216 37.65 13.09 37.65H34C34.2652 37.65 34.5196 37.5446 34.7071 37.3571C34.8946 37.1695 35 36.9152 35 36.65C35 36.3848 34.8946 36.1304 34.7071 35.9429C34.5196 35.7553 34.2652 35.65 34 35.65H13.09C12.2705 35.65 11.4845 35.3244 10.905 34.7449C10.3256 34.1655 10 33.3795 10 32.56V15.48C10 15.2148 9.89464 14.9604 9.70711 14.7729C9.51957 14.5853 9.26522 14.48 9 14.48C8.73478 14.48 8.48043 14.5853 8.29289 14.7729C8.10536 14.9604 8 15.2148 8 15.48Z" fill="white"/>
</svg>
