<svg width="16" height="16" viewBox="0 0 16 16" fill="none" xmlns="http://www.w3.org/2000/svg">
<g id="Icon / 16px / Search">
<path id="Shape" fill-rule="evenodd" clip-rule="evenodd" d="M6.23588 12.4034C7.74015 12.4034 9.10768 11.8701 10.1743 10.9675L14.9607 15.7538L15.7538 14.9607L10.9675 10.1743C11.8564 9.10768 12.4034 7.72648 12.4034 6.23588C12.4034 2.83075 9.64101 0.0683594 6.23588 0.0683594C2.84443 0.0683594 0.0683594 2.84443 0.0683594 6.23588C0.0683594 9.64101 2.84443 12.4034 6.23588 12.4034ZM11.282 6.23588C11.282 3.45981 9.02562 1.18973 6.23588 1.18973C3.45981 1.18973 1.18973 3.45981 1.18973 6.23588C1.18973 9.01195 3.44614 11.282 6.23588 11.282C9.02562 11.282 11.282 9.02562 11.282 6.23588Z" fill="white"/>
</g>
</svg>
