<svg width="32" height="32" viewBox="0 0 32 32" fill="none" xmlns="http://www.w3.org/2000/svg">
<path fill-rule="evenodd" clip-rule="evenodd" d="M26.2255 17.6179L27.2566 18.3734C27.5834 18.5965 27.8263 18.9222 27.9471 19.299C28.0678 19.6757 28.0595 20.082 27.9233 20.4534C27.4348 21.7187 26.7477 22.898 25.8877 23.9468C25.7214 24.1491 25.5125 24.3121 25.2759 24.4243C25.0393 24.5365 24.7808 24.595 24.5189 24.5957C24.2712 24.5935 24.0265 24.5422 23.7989 24.4445L22.6344 23.929C22.3903 23.8234 22.1271 23.7689 21.8611 23.769H21.7455C21.4319 23.7839 21.1267 23.8754 20.8567 24.0357C20.5958 24.1871 20.3736 24.397 20.2078 24.649C20.0342 24.916 19.9274 25.2209 19.8966 25.5379L19.7544 26.809C19.7117 27.1923 19.5456 27.5513 19.2811 27.8319C19.0165 28.1125 18.6679 28.2994 18.2878 28.3645C17.6153 28.4789 16.9343 28.5354 16.2522 28.5334C15.5731 28.535 14.895 28.4785 14.2255 28.3645C13.8438 28.3012 13.4932 28.115 13.2269 27.8342C12.9606 27.5535 12.7931 27.1935 12.75 26.809L12.6078 25.5379C12.5787 25.2219 12.4751 24.9173 12.3055 24.649C12.1367 24.394 11.9117 24.1812 11.6478 24.0268C11.3759 23.8719 11.0714 23.7836 10.7589 23.769H10.6522C10.3861 23.7679 10.1227 23.8224 9.87887 23.929L8.70553 24.4445C8.46325 24.5568 8.19924 24.6145 7.93221 24.6134C7.66811 24.613 7.40743 24.5538 7.1691 24.44C6.93078 24.3262 6.72079 24.1608 6.55441 23.9557C5.69223 22.91 5.00757 21.7298 4.52775 20.4623C4.38965 20.0997 4.37399 19.7019 4.48312 19.3296C4.59226 18.9572 4.82022 18.6308 5.13221 18.4001L6.1722 17.6357C6.41762 17.4542 6.61578 17.2164 6.74997 16.9423C6.89365 16.6683 6.96698 16.3628 6.96332 16.0534C6.96735 15.744 6.894 15.4385 6.74997 15.1646C6.61578 14.8904 6.41762 14.6526 6.1722 14.4712L5.13221 13.7157C4.81831 13.4845 4.58911 13.1565 4.47989 12.7823C4.37068 12.408 4.38747 12.0083 4.52775 11.6446C5.0113 10.3769 5.6989 9.19692 6.56331 8.15122C6.7296 7.94891 6.93854 7.78584 7.17518 7.67367C7.41182 7.5615 7.67033 7.50299 7.93221 7.50233C8.17699 7.50443 8.41883 7.55582 8.64331 7.65344L9.80775 8.16011C10.0528 8.27367 10.3199 8.33136 10.59 8.329H10.6966C11.0103 8.31413 11.3155 8.22257 11.5855 8.06233C11.8495 7.90793 12.0745 7.69507 12.2433 7.44011C12.4117 7.17127 12.5151 6.86695 12.5455 6.55122L12.6878 5.289C12.7314 4.90318 12.9001 4.54226 13.1682 4.26136C13.4362 3.98047 13.7888 3.79505 14.1722 3.73344C14.8449 3.61996 15.5256 3.56051 16.2078 3.55566C16.2878 3.55566 17.5411 3.62677 18.2167 3.73344C18.6 3.79505 18.9526 3.98047 19.2207 4.26136C19.4888 4.54226 19.6575 4.90318 19.7011 5.289L19.8433 6.55122C19.8651 6.86875 19.9692 7.17511 20.1455 7.44011C20.312 7.69699 20.5376 7.91033 20.8033 8.06233C21.0751 8.21719 21.3797 8.30553 21.6922 8.32011H21.8077C22.0772 8.31708 22.3433 8.25964 22.59 8.15122L23.7455 7.64455C23.97 7.54693 24.2119 7.49554 24.4566 7.49344C24.72 7.49279 24.9802 7.55066 25.2185 7.66288C25.4568 7.7751 25.6672 7.93886 25.8344 8.14233C26.6966 9.18801 27.3813 10.3682 27.8611 11.6357C27.9992 11.9983 28.0149 12.3961 27.9057 12.7684C27.7966 13.1408 27.5686 13.4672 27.2566 13.6979L26.2255 14.4623C25.9821 14.6446 25.7818 14.8783 25.6389 15.1468C25.5041 15.4237 25.4342 15.7277 25.4344 16.0357C25.4322 16.3439 25.5022 16.6483 25.6389 16.9246C25.7764 17.1991 25.9776 17.4368 26.2255 17.6179ZM23.2922 22.3023L24.4655 22.8179V22.809C25.2259 21.9152 25.8354 20.9034 26.27 19.8134L25.2389 19.0579C24.7696 18.7111 24.3864 18.2609 24.1189 17.7423C23.8541 17.2188 23.717 16.6401 23.7189 16.0534C23.7181 15.4698 23.8551 14.8941 24.1189 14.3734C24.3839 13.8532 24.7676 13.4026 25.2389 13.0579L26.2611 12.2934C25.8366 11.2043 25.236 10.1922 24.4833 9.29788L23.3278 9.80455C22.8583 10.0157 22.3492 10.1248 21.8344 10.1246H21.6211C21.0389 10.0888 20.4729 9.91841 19.9678 9.62677C19.4629 9.33661 19.0336 8.9316 18.7144 8.44455C18.3933 7.95295 18.1923 7.39266 18.1278 6.809L17.9855 5.54677C17.4166 5.45789 16.2611 5.39566 16.2611 5.39566C15.6655 5.40087 15.0712 5.45139 14.4833 5.54677L14.3411 6.809C14.2779 7.39296 14.0768 7.95355 13.7544 8.44455C13.4245 8.93512 12.9827 9.34031 12.4655 9.62677C11.9571 9.91692 11.3879 10.0843 10.8033 10.1157H10.5989C10.085 10.1156 9.57668 10.0097 9.10555 9.80455L7.9411 9.289C7.19135 10.1855 6.59105 11.197 6.16333 12.2846L7.19441 13.049C7.6637 13.3958 8.04692 13.8459 8.31442 14.3646C8.57388 14.8868 8.7107 15.4614 8.71443 16.0446C8.71174 16.6307 8.5749 17.2084 8.31442 17.7334C8.04692 18.2521 7.6637 18.7022 7.19441 19.049L6.16333 19.8134C6.58777 20.9026 7.18837 21.9146 7.9411 22.809L9.10555 22.3023C9.57668 22.0972 10.085 21.9913 10.5989 21.9912H10.8122C11.3944 22.027 11.9604 22.1974 12.4655 22.489C12.9704 22.7792 13.3998 23.1842 13.7189 23.6712C14.0361 24.1615 14.2368 24.718 14.3055 25.2979L14.4477 26.569C15.0205 26.6653 15.6003 26.7128 16.1811 26.7112C16.7767 26.7148 17.3714 26.6673 17.9589 26.569L18.1011 25.2979C18.1627 24.7177 18.3606 24.1603 18.6789 23.6712C19.0002 23.1837 19.4289 22.7762 19.9322 22.4801C20.4389 22.1859 21.0091 22.0182 21.5944 21.9912H21.8077C22.3186 21.9923 22.8239 22.0981 23.2922 22.3023ZM12.7623 12.5902C13.6786 11.6738 14.9207 11.158 16.2166 11.1556C17.5125 11.158 18.7547 11.6738 19.671 12.5902C20.5873 13.5065 21.1032 14.7486 21.1055 16.0445C21.1055 17.3412 20.5904 18.5847 19.6736 19.5015C18.7567 20.4184 17.5132 20.9334 16.2166 20.9334C14.92 20.9334 13.6765 20.4184 12.7597 19.5015C11.8428 18.5847 11.3277 17.3412 11.3277 16.0445C11.3301 14.7486 11.8459 13.5065 12.7623 12.5902ZM14.0167 18.2444C14.6002 18.8279 15.3915 19.1556 16.2166 19.1556C17.0418 19.1556 17.8331 18.8279 18.4165 18.2444C19 17.661 19.3277 16.8697 19.3277 16.0445C19.3277 15.2194 19 14.4281 18.4165 13.8447C17.8331 13.2612 17.0418 12.9334 16.2166 12.9334C15.3915 12.9334 14.6002 13.2612 14.0167 13.8447C13.4333 14.4281 13.1055 15.2194 13.1055 16.0445C13.1055 16.8697 13.4333 17.661 14.0167 18.2444Z" fill="white"/>
</svg>
