<svg width="48" height="48" viewBox="0 0 48 48" fill="none" xmlns="http://www.w3.org/2000/svg">
<path d="M30.9376 28.125C30.3919 28.1251 29.8536 28.2507 29.3642 28.4921C28.8748 28.7335 28.4475 29.0843 28.1153 29.5172L20.4315 25.1561C20.6896 24.407 20.6896 23.593 20.4315 22.8439L28.1153 18.4828C28.6517 19.1787 29.4264 19.6516 30.2905 19.8106C31.1546 19.9696 32.0469 19.8034 32.7959 19.344C33.5448 18.8846 34.0973 18.1645 34.3472 17.3222C34.5971 16.4799 34.5266 15.5749 34.1494 14.7815C33.7721 13.988 33.1148 13.3621 32.3038 13.0241C31.4928 12.6862 30.5855 12.6601 29.7564 12.9509C28.9274 13.2417 28.2351 13.8289 27.813 14.5994C27.3908 15.3699 27.2685 16.2693 27.4696 17.1246L19.6548 21.56C19.1658 21.0398 18.5317 20.6785 17.8349 20.523C17.138 20.3675 16.4106 20.425 15.7468 20.688C15.083 20.951 14.5136 21.4074 14.1124 21.998C13.7111 22.5885 13.4966 23.286 13.4966 24C13.4966 24.714 13.7111 25.4115 14.1124 26.0021C14.5136 26.5926 15.083 27.049 15.7468 27.312C16.4106 27.575 17.138 27.6325 17.8349 27.477C18.5317 27.3215 19.1658 26.9603 19.6548 26.44L27.4696 30.8755C27.3012 31.5955 27.3609 32.3501 27.6406 33.0345C27.9204 33.719 28.4061 34.2995 29.0306 34.6955C29.6551 35.0914 30.3874 35.2832 31.1258 35.2442C31.8642 35.2052 32.5722 34.9374 33.1515 34.478C33.7308 34.0185 34.1528 33.3901 34.3589 32.6799C34.565 31.9698 34.545 31.2131 34.3017 30.5149C34.0584 29.8166 33.6038 29.2114 33.001 28.7832C32.3982 28.3549 31.677 28.1249 30.9376 28.125ZM30.9376 14.25C31.3455 14.25 31.7443 14.371 32.0835 14.5976C32.4226 14.8242 32.687 15.1464 32.8431 15.5232C32.9992 15.9001 33.04 16.3148 32.9605 16.7149C32.8809 17.115 32.6844 17.4825 32.396 17.7709C32.1076 18.0594 31.7401 18.2558 31.34 18.3354C30.9399 18.415 30.5252 18.3741 30.1483 18.218C29.7714 18.0619 29.4493 17.7976 29.2227 17.4584C28.9961 17.1192 28.8751 16.7204 28.8751 16.3125C28.8757 15.7657 29.0932 15.2414 29.4799 14.8548C29.8665 14.4681 30.3908 14.2506 30.9376 14.25ZM17.0626 26.0625C16.6547 26.0625 16.2559 25.9415 15.9167 25.7149C15.5776 25.4883 15.3132 25.1662 15.1571 24.7893C15.001 24.4124 14.9601 23.9977 15.0397 23.5976C15.1193 23.1976 15.3157 22.83 15.6042 22.5416C15.8926 22.2532 16.2601 22.0567 16.6602 21.9771C17.0603 21.8976 17.475 21.9384 17.8519 22.0945C18.2288 22.2506 18.5509 22.515 18.7775 22.8541C19.0041 23.1933 19.1251 23.5921 19.1251 24C19.1245 24.5468 18.907 25.0711 18.5203 25.4577C18.1337 25.8444 17.6094 26.0619 17.0626 26.0625ZM30.9376 33.75C30.5297 33.75 30.1309 33.629 29.7917 33.4024C29.4526 33.1758 29.1882 32.8537 29.0321 32.4768C28.876 32.0999 28.8351 31.6852 28.9147 31.2851C28.9943 30.8851 29.1907 30.5175 29.4792 30.2291C29.7676 29.9407 30.1351 29.7442 30.5352 29.6646C30.9353 29.5851 31.35 29.6259 31.7269 29.782C32.1038 29.9381 32.4259 30.2025 32.6525 30.5416C32.8791 30.8808 33.0001 31.2796 33.0001 31.6875C32.9995 32.2343 32.782 32.7586 32.3953 33.1452C32.0087 33.5319 31.4844 33.7494 30.9376 33.75Z" fill="white"/>
<rect x="0.5" y="0.5" width="47" height="47" rx="7.5" stroke="#E5E5E5"/>
</svg>
