<svg width="48" height="48" viewBox="0 0 48 48" fill="none" xmlns="http://www.w3.org/2000/svg">
<path d="M17.4802 39.8399C16.5982 39.8386 15.7323 39.604 14.9702 39.1599C14.2135 38.7206 13.5852 38.0905 13.1483 37.3324C12.7113 36.5743 12.481 35.7149 12.4802 34.8399V13.9999C12.4792 13.1232 12.7088 12.2617 13.1458 11.5017C13.5828 10.7417 14.212 10.11 14.9702 9.66987C15.7303 9.23103 16.5925 9 17.4702 9C18.3479 9 19.2101 9.23103 19.9702 9.66987L38.2702 20.0699C39.043 20.5017 39.6856 21.1333 40.1306 21.8986C40.5757 22.6638 40.807 23.5346 40.8002 24.4199C40.8073 25.3039 40.5761 26.1734 40.1309 26.9371C39.6857 27.7008 39.0429 28.3305 38.2702 28.7599L19.9502 39.2299C19.1933 39.6428 18.3424 39.8529 17.4802 39.8399V39.8399ZM17.4802 10.9899C16.9495 10.9906 16.4284 11.132 15.9702 11.3999C15.5158 11.6646 15.1389 12.0442 14.8773 12.5005C14.6158 12.9568 14.4789 13.4739 14.4802 13.9999V34.8399C14.4806 35.3641 14.6184 35.8791 14.8798 36.3336C15.1413 36.788 15.5172 37.166 15.9702 37.4299C16.4263 37.6932 16.9436 37.8318 17.4702 37.8318C17.9968 37.8318 18.5142 37.6932 18.9702 37.4299L37.3002 27.0099C37.7584 26.7477 38.1393 26.3692 38.4045 25.9127C38.6696 25.4562 38.8096 24.9378 38.8102 24.4099C38.8113 23.8803 38.6722 23.3598 38.407 22.9014C38.1417 22.443 37.7599 22.0629 37.3002 21.7999L18.9602 11.3899C18.5115 11.1266 18.0004 10.9885 17.4802 10.9899V10.9899Z" fill="white"/>
<path d="M28.9002 23.3298L20.7002 16.9098C20.4971 16.7509 20.2533 16.6525 19.9968 16.626C19.7403 16.5995 19.4815 16.6458 19.2502 16.7598C19.0181 16.8703 18.8223 17.0447 18.6859 17.2626C18.5495 17.4805 18.4781 17.7328 18.4802 17.9898V21.2298C11.9902 23.0298 8.18021 27.4399 8.00021 33.3799C7.99688 33.4941 8.03278 33.606 8.10192 33.697C8.17106 33.7879 8.26928 33.8525 8.38021 33.8799H8.50021C8.59265 33.8799 8.68334 33.8547 8.76261 33.8072C8.84187 33.7596 8.90671 33.6914 8.95021 33.6098C11.1502 29.3198 14.6002 26.6898 18.4802 26.3198V30.8698C18.4781 31.1269 18.5495 31.3792 18.6859 31.5971C18.8223 31.815 19.0181 31.9894 19.2502 32.0999C19.4809 32.2162 19.7402 32.264 19.9972 32.2374C20.2542 32.2108 20.4982 32.111 20.7002 31.9499L28.9002 25.5299C29.066 25.4031 29.2002 25.2395 29.2922 25.0522C29.3841 24.8648 29.4314 24.6586 29.4302 24.4499C29.4361 24.2347 29.3911 24.0211 29.2991 23.8265C29.207 23.6319 29.0703 23.4618 28.9002 23.3298Z" fill="#F5B83B"/>
</svg>
