<svg width="22" height="17" viewBox="0 0 22 17"  xmlns="http://www.w3.org/2000/svg">
<path d="M16.25 0L16.15 0.00699997C15.9701 0.0312051 15.805 0.119846 15.6855 0.256479C15.566 0.393112 15.5 0.568462 15.5 0.75V13.442L12.28 10.224L12.196 10.152C12.0438 10.0389 11.8544 9.98759 11.6659 10.0085C11.4774 10.0294 11.3038 10.1209 11.1801 10.2647C11.0564 10.4084 10.9917 10.5937 10.9991 10.7832C11.0065 10.9727 11.0854 11.1523 11.22 11.286L15.724 15.786L15.808 15.858C15.9524 15.9647 16.1304 16.016 16.3095 16.0026C16.4886 15.9892 16.657 15.912 16.784 15.785L21.281 11.285L21.353 11.201C21.46 11.0564 21.5114 10.8783 21.498 10.6989C21.4846 10.5196 21.4073 10.351 21.28 10.224L21.196 10.152C21.0514 10.045 20.8732 9.99353 20.6939 10.0069C20.5146 10.0203 20.346 10.0977 20.219 10.225L17 13.446V0.75L16.994 0.648C16.9693 0.468446 16.8805 0.303892 16.7439 0.184767C16.6073 0.0656429 16.4322 7.6429e-06 16.251 0H16.25ZM5.21398 0.22L0.719977 4.715L0.646977 4.799C0.540263 4.94347 0.488938 5.12144 0.502334 5.30055C0.515731 5.47966 0.592959 5.64801 0.719977 5.775L0.803977 5.848C0.948447 5.95471 1.12642 6.00604 1.30553 5.99264C1.48463 5.97925 1.65299 5.90202 1.77998 5.775L4.99698 2.557V15.255L5.00498 15.357C5.02963 15.5366 5.11846 15.7011 5.25505 15.8202C5.39163 15.9394 5.56674 16.005 5.74798 16.005L5.84898 15.998C6.02871 15.9736 6.19351 15.8848 6.31283 15.7482C6.43216 15.6116 6.49794 15.4364 6.49798 15.255L6.49698 2.559L9.71998 5.776L9.80398 5.848C9.95628 5.95971 10.1451 6.00985 10.3328 5.98838C10.5205 5.96691 10.6931 5.87543 10.8163 5.7322C10.9394 5.58897 11.004 5.40456 10.9971 5.2158C10.9901 5.02704 10.9123 4.84784 10.779 4.714L6.27498 0.22L6.18998 0.148C6.04551 0.0412859 5.86754 -0.0100386 5.68843 0.00335789C5.50932 0.0167544 5.34097 0.0939825 5.21398 0.221V0.22Z" />
</svg>
