<svg width="36" height="36" viewBox="0 0 36 36" fill="none" xmlns="http://www.w3.org/2000/svg">
<path d="M10.8076 12.54C10.2546 12.5415 9.71448 12.7068 9.25542 13.0151C8.79636 13.3234 8.43897 13.7608 8.22838 14.2721C8.01779 14.7834 7.96346 15.3457 8.07225 15.8879C8.18104 16.43 8.44806 16.9278 8.8396 17.3183C9.23113 17.7088 9.72961 17.9745 10.2721 18.0818C10.8145 18.1891 11.3766 18.1333 11.8874 17.9213C12.3981 17.7094 12.8346 17.3508 13.1416 16.8909C13.4487 16.431 13.6126 15.8905 13.6126 15.3375C13.6126 14.9695 13.54 14.6051 13.3989 14.2652C13.2579 13.9253 13.0511 13.6166 12.7906 13.3567C12.53 13.0969 12.2207 12.8909 11.8804 12.7508C11.5402 12.6106 11.1756 12.539 10.8076 12.54Z" fill="#FFCC48"/>
<path d="M30.1875 11.28C29.9136 11.1661 29.6121 11.1359 29.3211 11.1933C29.0301 11.2507 28.7626 11.3931 28.5525 11.6025L24.105 16.035V12.75C24.105 11.7554 23.7099 10.8016 23.0067 10.0983C22.3034 9.39509 21.3496 9 20.355 9H8.25C7.25544 9 6.30161 9.39509 5.59835 10.0983C4.89509 10.8016 4.5 11.7554 4.5 12.75V23.5425C4.5 24.5371 4.89509 25.4909 5.59835 26.1941C6.30161 26.8974 7.25544 27.2925 8.25 27.2925H20.355C21.3496 27.2925 22.3034 26.8974 23.0067 26.1941C23.7099 25.4909 24.105 24.5371 24.105 23.5425V20.2575L28.5525 24.6825C28.8325 24.9642 29.2128 25.1233 29.61 25.125C29.8088 25.1257 30.0055 25.0848 30.1875 25.005C30.46 24.8913 30.6929 24.6997 30.857 24.4542C31.0211 24.2087 31.1091 23.9203 31.11 23.625V12.6675C31.1106 12.3709 31.0233 12.0809 30.8591 11.8339C30.6949 11.5869 30.4612 11.3942 30.1875 11.28ZM22.605 23.5425C22.605 24.1392 22.368 24.7115 21.946 25.1335C21.524 25.5555 20.9517 25.7925 20.355 25.7925H8.25C7.65326 25.7925 7.08097 25.5555 6.65901 25.1335C6.23705 24.7115 6 24.1392 6 23.5425V12.75C6 12.1533 6.23705 11.581 6.65901 11.159C7.08097 10.7371 7.65326 10.5 8.25 10.5H20.355C20.9517 10.5 21.524 10.7371 21.946 11.159C22.368 11.581 22.605 12.1533 22.605 12.75V23.5425ZM29.61 23.625L24.1125 18.1425L29.61 12.6675V23.625Z" fill="#FFCC48"/>
</svg>
