<svg width="36" height="36" viewBox="0 0 36 36" fill="none" xmlns="http://www.w3.org/2000/svg">
<path d="M18.2026 14.8125L13.1326 19.8825L10.8826 17.6325C10.8154 17.554 10.7327 17.4902 10.6396 17.4452C10.5466 17.4002 10.4452 17.3749 10.3419 17.3709C10.2386 17.3669 10.1356 17.3843 10.0394 17.422C9.94316 17.4597 9.85575 17.5169 9.78266 17.59C9.70956 17.6631 9.65237 17.7505 9.61467 17.8468C9.57696 17.943 9.55956 18.046 9.56355 18.1493C9.56754 18.2526 9.59282 18.3539 9.63784 18.447C9.68286 18.54 9.74662 18.6228 9.82514 18.69L12.6226 21.495C12.6927 21.5645 12.7758 21.6195 12.8672 21.6568C12.9586 21.6942 13.0564 21.7131 13.1551 21.7125C13.2538 21.7131 13.3517 21.6942 13.4431 21.6568C13.5344 21.6195 13.6176 21.5645 13.6876 21.495L19.2901 15.8925C19.4298 15.752 19.5082 15.5619 19.5082 15.3638C19.5082 15.1656 19.4298 14.9755 19.2901 14.835C19.2216 14.7598 19.1385 14.6993 19.0458 14.6572C18.9532 14.6151 18.853 14.5924 18.7512 14.5902C18.6495 14.5881 18.5484 14.6068 18.4541 14.645C18.3598 14.6832 18.2742 14.7402 18.2026 14.8125Z" fill="#FFCC48"/>
<path d="M30.1875 11.28C29.9136 11.1661 29.6121 11.1359 29.3211 11.1933C29.0301 11.2507 28.7626 11.3931 28.5525 11.6025L24.105 16.0275V12.75C24.105 11.7554 23.7099 10.8016 23.0067 10.0984C22.3034 9.3951 21.3496 9 20.355 9H8.25C7.25544 9 6.30161 9.3951 5.59835 10.0984C4.89509 10.8016 4.5 11.7554 4.5 12.75V23.535C4.5 24.5296 4.89509 25.4834 5.59835 26.1867C6.30161 26.8899 7.25544 27.285 8.25 27.285H20.355C21.3496 27.285 22.3034 26.8899 23.0067 26.1867C23.7099 25.4834 24.105 24.5296 24.105 23.535V20.25L28.5525 24.6825C28.8337 24.9614 29.2139 25.1178 29.61 25.1175C29.8079 25.1172 30.0039 25.079 30.1875 25.005C30.4612 24.8908 30.6949 24.6981 30.8591 24.4511C31.0233 24.2042 31.1106 23.9141 31.11 23.6175V12.6375C31.1048 12.3461 31.0147 12.0625 30.8509 11.8214C30.6871 11.5803 30.4565 11.3922 30.1875 11.28ZM22.605 23.535C22.605 24.1317 22.368 24.704 21.946 25.126C21.524 25.548 20.9517 25.785 20.355 25.785H8.25C7.65326 25.785 7.08097 25.548 6.65901 25.126C6.23705 24.704 6 24.1317 6 23.535V12.75C6 12.1533 6.23705 11.581 6.65901 11.159C7.08097 10.7371 7.65326 10.5 8.25 10.5H20.355C20.9517 10.5 21.524 10.7371 21.946 11.159C22.368 11.581 22.605 12.1533 22.605 12.75V23.535ZM29.61 23.6175L24.1125 18.1425L29.61 12.66V23.6175Z" fill="#FFCC48"/>
</svg>
