<svg width="24" height="24" viewBox="0 0 24 24" fill="none" xmlns="http://www.w3.org/2000/svg">
<circle cx="11.9999" cy="12" r="9.6" fill="white"/>
<path d="M12 0C18.627 0 24 5.373 24 12C24 18.627 18.627 24 12 24C5.373 24 0 18.627 0 12C0 5.373 5.373 0 12 0ZM15.193 7C13.607 7 12.321 8.243 12.321 9.777C12.321 9.994 12.346 10.207 12.395 10.41C11.2617 10.3592 10.1511 10.0753 9.13255 9.57599C8.11396 9.07668 7.20927 8.37269 6.475 7.508C6.228 7.918 6.086 8.395 6.086 8.905C6.086 9.868 6.593 10.718 7.364 11.216C6.90925 11.2022 6.4639 11.0831 6.063 10.868V10.904C6.063 12.249 7.053 13.371 8.367 13.627C7.94305 13.7379 7.49986 13.754 7.069 13.674C7.435 14.777 8.496 15.58 9.752 15.602C8.72499 16.3778 7.4721 16.7958 6.185 16.792C5.954 16.792 5.725 16.778 5.5 16.752C6.82241 17.5708 8.34762 18.0031 9.903 18C15.186 18 18.075 13.769 18.075 10.099C18.075 9.979 18.073 9.859 18.067 9.739C18.6266 9.34934 19.1119 8.86267 19.5 8.302C18.9742 8.52729 18.4184 8.67452 17.85 8.739C18.4448 8.39878 18.8941 7.85229 19.113 7.203C18.5467 7.52751 17.9302 7.7553 17.289 7.877C17.0161 7.59795 16.69 7.37653 16.33 7.22588C15.9699 7.07523 15.5833 6.99842 15.193 7V7Z" fill="#1DA1F2"/>
</svg>
