<svg width="32" height="32" viewBox="0 0 32 32" fill="none" xmlns="http://www.w3.org/2000/svg">
<path fill-rule="evenodd" clip-rule="evenodd" d="M24.8534 3.55566H11.0756C10.1326 3.55566 9.22826 3.93027 8.56147 4.59706C7.89467 5.26386 7.52007 6.16823 7.52007 7.11122V20.889C7.52007 21.832 7.89467 22.7364 8.56147 23.4032C9.22826 24.07 10.1326 24.4446 11.0756 24.4446H24.8534C25.7964 24.4446 26.7008 24.07 27.3676 23.4032C28.0344 22.7364 28.409 21.832 28.409 20.889V7.11122C28.409 6.16823 28.0344 5.26386 27.3676 4.59706C26.7008 3.93027 25.7964 3.55566 24.8534 3.55566ZM26.6312 20.889C26.6312 21.3605 26.4439 21.8127 26.1105 22.1461C25.7771 22.4795 25.3249 22.6668 24.8534 22.6668H11.0756C10.6041 22.6668 10.1519 22.4795 9.81852 22.1461C9.48512 21.8127 9.29785 21.3605 9.29785 20.889V7.11122C9.29785 6.63972 9.48512 6.18754 9.81852 5.85414C10.1519 5.52074 10.6041 5.33344 11.0756 5.33344H24.8534C25.3249 5.33344 25.7771 5.52074 26.1105 5.85414C26.4439 6.18754 26.6312 6.63972 26.6312 7.11122V20.889ZM24.409 26.4623H7.11122C6.63972 26.4623 6.18757 26.275 5.85417 25.9416C5.52077 25.6082 5.33344 25.156 5.33344 24.6846V7.55566C5.33344 7.31992 5.23978 7.09382 5.07308 6.92713C4.90638 6.76043 4.6803 6.66678 4.44455 6.66678C4.20881 6.66678 3.98273 6.76043 3.81603 6.92713C3.64933 7.09382 3.55566 7.31992 3.55566 7.55566V24.6846C3.55566 25.6275 3.93026 26.5319 4.59706 27.1987C5.26386 27.8655 6.16823 28.2401 7.11122 28.2401H24.409C24.6448 28.2401 24.8708 28.1465 25.0375 27.9798C25.2042 27.8131 25.2979 27.587 25.2979 27.3512C25.2979 27.1155 25.2042 26.8894 25.0375 26.7227C24.8708 26.556 24.6448 26.4623 24.409 26.4623ZM15.3513 9.289L22.009 13.289C22.148 13.3659 22.2638 13.4786 22.3444 13.6153C22.4251 13.7521 22.4676 13.908 22.4676 14.0668C22.4676 14.2256 22.4251 14.3814 22.3444 14.5182C22.2638 14.655 22.148 14.7677 22.009 14.8446L15.3513 18.8712C15.2161 18.9535 15.0614 18.9982 14.9032 19.0008C14.745 19.0033 14.589 18.9635 14.4513 18.8856C14.3136 18.8077 14.1992 18.6944 14.1199 18.5575C14.0406 18.4206 13.9992 18.265 14.0001 18.1068V10.0534C13.9992 9.89522 14.0406 9.73962 14.1199 9.6027C14.1992 9.46579 14.3136 9.35253 14.4513 9.27461C14.589 9.19669 14.745 9.15695 14.9032 9.15948C15.0614 9.16201 15.2161 9.20672 15.3513 9.289Z" fill="white"/>
</svg>
