<svg width="48" height="48" viewBox="0 0 48 48" fill="none" xmlns="http://www.w3.org/2000/svg">
<path d="M26 35C26 35.5304 25.7893 36.0391 25.4142 36.4142C25.0391 36.7893 24.5304 37 24 37C23.4696 37 22.9609 36.7893 22.5858 36.4142C22.2107 36.0391 22 35.5304 22 35C22 34.4696 22.2107 33.9609 22.5858 33.5858C22.9609 33.2107 23.4696 33 24 33C24.5304 33 25.0391 33.2107 25.4142 33.5858C25.7893 33.9609 26 34.4696 26 35ZM25.5 18.5C25.5 18.1022 25.342 17.7206 25.0607 17.4393C24.7794 17.158 24.3978 17 24 17C23.6022 17 23.2206 17.158 22.9393 17.4393C22.658 17.7206 22.5 18.1022 22.5 18.5V27.5C22.5 27.8978 22.658 28.2794 22.9393 28.5607C23.2206 28.842 23.6022 29 24 29C24.3978 29 24.7794 28.842 25.0607 28.5607C25.342 28.2794 25.5 27.8978 25.5 27.5V18.5Z" fill="#FFB800"/>
<path fill-rule="evenodd" clip-rule="evenodd" d="M19.6719 6.48799C21.5979 3.15799 26.4019 3.15799 28.3279 6.48799L46.2619 37.496C48.1879 40.83 45.7819 45 41.9319 45H6.06795C2.21595 45 -0.188055 40.83 1.73795 37.496L19.6719 6.48799ZM25.7319 7.98999C25.5564 7.68598 25.3039 7.43353 24.9999 7.25801C24.6959 7.08249 24.351 6.99008 23.9999 6.99008C23.6489 6.99008 23.304 7.08249 23 7.25801C22.696 7.43353 22.4435 7.68598 22.2679 7.98999L4.33595 38.998C4.15991 39.3021 4.0671 39.6472 4.06684 39.9985C4.06658 40.3499 4.1589 40.6951 4.33449 40.9995C4.51008 41.3038 4.76275 41.5565 5.06706 41.7322C5.37137 41.9078 5.71658 42.0002 6.06795 42H41.9319C42.283 42 42.6279 41.9076 42.9319 41.732C43.236 41.5565 43.4884 41.304 43.664 41C43.8395 40.6959 43.9319 40.3511 43.9319 40C43.9319 39.6489 43.8395 39.304 43.6639 39L25.7319 7.98799V7.98999Z" fill="#FFB800"/>
</svg>
