<svg width="156" height="52" viewBox="0 0 156 52" fill="none" xmlns="http://www.w3.org/2000/svg">
<rect width="156" height="52" fill="black"/>
<path d="M32.2905 25.4228C32.3045 24.3377 32.5936 23.2738 33.1307 22.3301C33.6678 21.3863 34.4356 20.5934 35.3626 20.0251C34.7737 19.1864 33.9968 18.4961 33.0936 18.0092C32.1904 17.5223 31.1858 17.2521 30.1596 17.2201C27.9704 16.991 25.8481 18.5264 24.7326 18.5264C23.5955 18.5264 21.8779 17.2428 20.0284 17.2808C18.8321 17.3193 17.6661 17.6662 16.6442 18.2877C15.6223 18.9092 14.7793 19.784 14.1973 20.827C11.676 25.18 13.5566 31.5773 15.9718 35.0959C17.1801 36.8189 18.5924 38.7435 20.4402 38.6752C22.2485 38.6004 22.9238 37.5254 25.1065 37.5254C27.2689 37.5254 27.9026 38.6752 29.7879 38.6318C31.7282 38.6004 32.9507 36.9012 34.1167 35.1619C34.9849 33.9343 35.653 32.5774 36.0962 31.1417C34.9689 30.6662 34.0069 29.8704 33.3302 28.8534C32.6534 27.8364 32.2918 26.6433 32.2905 25.4228V25.4228Z" fill="white"/>
<path d="M28.7294 14.906C29.7874 13.6395 30.3086 12.0117 30.1824 10.3682C28.5661 10.5375 27.0731 11.3078 26.0008 12.5257C25.4766 13.1206 25.0751 13.8128 24.8192 14.5626C24.5634 15.3124 24.4583 16.1051 24.5098 16.8955C25.3183 16.9038 26.1181 16.729 26.849 16.3844C27.5799 16.0398 28.2228 15.5343 28.7294 14.906Z" fill="white"/>
<path d="M55.1478 34.3132H48.9771L47.4953 38.6766H44.8816L50.7264 22.5332H53.4419L59.2867 38.6766H56.6284L55.1478 34.3132ZM49.6162 32.2997H54.5075L52.0963 25.2183H52.0288L49.6162 32.2997Z" fill="white"/>
<path d="M71.9095 32.7926C71.9095 36.4501 69.9464 38.8 66.9839 38.8C66.2334 38.8392 65.4871 38.6668 64.8303 38.3026C64.1735 37.9384 63.6329 37.3972 63.2703 36.7408H63.2142V42.5705H60.7915V26.9071H63.1366V28.8647H63.1811C63.5604 28.2115 64.1102 27.673 64.772 27.3066C65.4338 26.9402 66.1828 26.7596 66.9393 26.7839C69.9349 26.7839 71.9095 29.1452 71.9095 32.7926ZM69.4193 32.7926C69.4193 30.4097 68.1844 28.8431 66.3002 28.8431C64.4491 28.8431 63.204 30.4427 63.204 32.7926C63.204 35.1641 64.4491 36.7523 66.3002 36.7523C68.1844 36.7523 69.4193 35.1971 69.4193 32.7926Z" fill="white"/>
<path d="M84.9 32.7926C84.9 36.4501 82.9368 38.8 79.9744 38.8C79.2239 38.8392 78.4776 38.6668 77.8208 38.3026C77.164 37.9384 76.6234 37.3972 76.2607 36.7408H76.2047V42.5705H73.782V26.907H76.127V28.8647H76.1716C76.5509 28.2115 77.1007 27.673 77.7624 27.3066C78.4242 26.9402 79.1732 26.7596 79.9298 26.7839C82.9254 26.7839 84.9 29.1452 84.9 32.7926ZM82.4098 32.7926C82.4098 30.4097 81.1749 28.8431 79.2907 28.8431C77.4396 28.8431 76.1945 30.4427 76.1945 32.7926C76.1945 35.1641 77.4396 36.7523 79.2907 36.7523C81.1749 36.7523 82.4098 35.1971 82.4098 32.7926H82.4098Z" fill="white"/>
<path d="M93.4859 34.1788C93.6654 35.7797 95.225 36.8308 97.3561 36.8308C99.3982 36.8308 100.867 35.7796 100.867 34.3361C100.867 33.0831 99.9812 32.3328 97.8832 31.8187L95.7851 31.3147C92.8124 30.5986 91.4324 29.2123 91.4324 26.9627C91.4324 24.1773 93.8666 22.2642 97.323 22.2642C100.744 22.2642 103.089 24.1773 103.168 26.9627H100.722C100.576 25.3517 99.2403 24.3792 97.2886 24.3792C95.3369 24.3792 94.0015 25.3631 94.0015 26.7951C94.0015 27.9364 94.8544 28.608 96.941 29.1221L98.7246 29.5589C102.046 30.3422 103.426 31.6727 103.426 34.0339C103.426 37.0542 101.014 38.9458 97.1766 38.9458C93.5864 38.9458 91.1625 37.0986 91.0059 34.1787L93.4859 34.1788Z" fill="white"/>
<path d="M108.655 24.1216V26.9069H110.899V28.8201H108.655V35.3087C108.655 36.3167 109.104 36.7864 110.091 36.7864C110.357 36.7818 110.623 36.7631 110.888 36.7305V38.6323C110.444 38.7149 109.993 38.7524 109.542 38.744C107.152 38.744 106.221 37.849 106.221 35.5664V28.8201H104.504V26.9069H106.22V24.1216H108.655Z" fill="white"/>
<path d="M112.199 32.7925C112.199 29.0893 114.386 26.7622 117.797 26.7622C121.219 26.7622 123.396 29.0892 123.396 32.7925C123.396 36.5059 121.23 38.8227 117.797 38.8227C114.364 38.8227 112.199 36.5058 112.199 32.7925ZM120.927 32.7925C120.927 30.2521 119.76 28.7528 117.797 28.7528C115.834 28.7528 114.667 30.2636 114.667 32.7925C114.667 35.343 115.834 36.8309 117.797 36.8309C119.76 36.8309 120.927 35.343 120.927 32.7925H120.927Z" fill="white"/>
<path d="M125.393 26.9069H127.704V28.9102H127.76C127.916 28.2846 128.284 27.7316 128.801 27.3444C129.318 26.9571 129.953 26.7592 130.599 26.7838C130.878 26.7828 131.157 26.813 131.429 26.8739V29.1337C131.077 29.0263 130.709 28.977 130.341 28.9877C129.989 28.9735 129.638 29.0353 129.312 29.1691C128.986 29.3028 128.693 29.5053 128.454 29.7626C128.214 30.0198 128.033 30.3258 127.923 30.6595C127.813 30.9931 127.776 31.3466 127.816 31.6956V38.6768H125.393L125.393 26.9069Z" fill="white"/>
<path d="M142.599 35.2198C142.273 37.3564 140.187 38.8227 137.517 38.8227C134.084 38.8227 131.952 36.5287 131.952 32.8483C131.952 29.1565 134.095 26.7622 137.415 26.7622C140.681 26.7622 142.734 28.9991 142.734 32.5678V33.3955H134.398V33.5415C134.36 33.9747 134.414 34.411 134.558 34.8216C134.701 35.2322 134.931 35.6076 135.231 35.9229C135.531 36.2383 135.896 36.4862 136.299 36.6504C136.703 36.8146 137.137 36.8913 137.573 36.8753C138.146 36.9288 138.72 36.7966 139.211 36.4983C139.702 36.2 140.084 35.7516 140.299 35.2198L142.599 35.2198ZM134.409 31.707H140.31C140.332 31.3176 140.273 30.9278 140.136 30.5622C140 30.1967 139.789 29.8632 139.517 29.5827C139.245 29.3022 138.918 29.0807 138.557 28.9322C138.195 28.7838 137.806 28.7114 137.415 28.7198C137.021 28.7175 136.63 28.7931 136.265 28.9422C135.899 29.0914 135.568 29.3112 135.288 29.5889C135.009 29.8666 134.787 30.1968 134.636 30.5603C134.486 30.9239 134.408 31.3136 134.409 31.707V31.707Z" fill="white"/>
<path d="M49.3126 10.3823C49.8206 10.346 50.3302 10.4225 50.8049 10.6064C51.2796 10.7902 51.7074 11.0769 52.0576 11.4456C52.4077 11.8143 52.6714 12.2559 52.8297 12.7385C52.988 13.2212 53.0368 13.7329 52.9728 14.2366C52.9728 16.7148 51.6297 18.1392 49.3126 18.1392H46.5029V10.3823H49.3126ZM47.7111 17.0422H49.1777C49.5406 17.0639 49.9038 17.0045 50.2409 16.8685C50.5779 16.7325 50.8803 16.5233 51.1261 16.2561C51.3718 15.9888 51.5547 15.6703 51.6614 15.3237C51.7681 14.9771 51.796 14.6111 51.743 14.2524C51.7921 13.8952 51.7614 13.5315 51.6531 13.1874C51.5447 12.8433 51.3614 12.5274 51.1162 12.2623C50.871 11.9972 50.5701 11.7895 50.235 11.6539C49.8998 11.5184 49.5388 11.4585 49.1777 11.4785H47.7111V17.0422Z" fill="white"/>
<path d="M54.3376 15.2097C54.3007 14.825 54.3448 14.4368 54.4671 14.0701C54.5895 13.7034 54.7873 13.3663 55.0479 13.0803C55.3086 12.7943 55.6263 12.5658 55.9807 12.4095C56.3351 12.2531 56.7184 12.1724 57.1059 12.1724C57.4934 12.1724 57.8767 12.2531 58.2311 12.4095C58.5855 12.5658 58.9032 12.7943 59.1639 13.0803C59.4245 13.3663 59.6224 13.7034 59.7447 14.0701C59.867 14.4368 59.9112 14.825 59.8742 15.2097C59.9119 15.5947 59.8682 15.9834 59.7462 16.3507C59.6242 16.718 59.4265 17.0557 59.1658 17.3423C58.9051 17.6288 58.5871 17.8578 58.2324 18.0145C57.8776 18.1712 57.4939 18.2521 57.1059 18.2521C56.7179 18.2521 56.3342 18.1712 55.9794 18.0145C55.6247 17.8578 55.3067 17.6288 55.046 17.3423C54.7853 17.0557 54.5876 16.718 54.4656 16.3507C54.3436 15.9834 54.3 15.5947 54.3376 15.2097V15.2097ZM58.6826 15.2097C58.6826 13.9408 58.111 13.1987 57.1078 13.1987C56.1008 13.1987 55.5343 13.9408 55.5343 15.2097C55.5343 16.4887 56.1008 17.225 57.1078 17.225C58.111 17.225 58.6826 16.4836 58.6826 15.2097H58.6826Z" fill="white"/>
<path d="M67.234 18.139H66.0322L64.819 13.8276H64.7273L63.5191 18.139H62.3288L60.7107 12.2852H61.8858L62.9373 16.752H63.0239L64.2308 12.2852H65.3422L66.5491 16.752H66.6408L67.6873 12.2852H68.8458L67.234 18.139Z" fill="white"/>
<path d="M70.2068 12.2853H71.322V13.2152H71.4086C71.5555 12.8812 71.8032 12.6012 72.1172 12.4143C72.4312 12.2273 72.7959 12.1427 73.1604 12.1723C73.446 12.1509 73.7328 12.1938 73.9995 12.2979C74.2663 12.402 74.5061 12.5647 74.7012 12.7738C74.8963 12.9829 75.0418 13.2331 75.1268 13.5058C75.2118 13.7786 75.2342 14.0669 75.1922 14.3495V18.139H74.0337V14.6396C74.0337 13.6989 73.6238 13.2311 72.767 13.2311C72.5731 13.2221 72.3795 13.255 72.1995 13.3276C72.0195 13.4001 71.8574 13.5107 71.7243 13.6516C71.5911 13.7925 71.4901 13.9604 71.4282 14.1439C71.3662 14.3273 71.3448 14.522 71.3653 14.7145V18.1391H70.2068L70.2068 12.2853Z" fill="white"/>
<path d="M77.0381 10H78.1966V18.139H77.0381V10Z" fill="white"/>
<path d="M79.807 15.2098C79.7701 14.825 79.8143 14.4369 79.9367 14.0702C80.059 13.7035 80.2569 13.3663 80.5176 13.0803C80.7783 12.7944 81.096 12.5659 81.4504 12.4095C81.8048 12.2531 82.1881 12.1724 82.5757 12.1724C82.9632 12.1724 83.3465 12.2531 83.7009 12.4095C84.0554 12.5659 84.3731 12.7944 84.6338 13.0803C84.8945 13.3663 85.0923 13.7035 85.2147 14.0702C85.3371 14.4369 85.3812 14.825 85.3443 15.2098C85.3819 15.5949 85.3382 15.9835 85.2162 16.3508C85.0942 16.7181 84.8964 17.0559 84.6356 17.3424C84.3749 17.6289 84.0569 17.8579 83.7022 18.0146C83.3474 18.1713 82.9637 18.2522 82.5757 18.2522C82.1877 18.2522 81.8039 18.1713 81.4492 18.0146C81.0944 17.8579 80.7764 17.6289 80.5157 17.3424C80.2549 17.0559 80.0572 16.7181 79.9351 16.3508C79.8131 15.9835 79.7695 15.5949 79.807 15.2098V15.2098ZM84.1521 15.2098C84.1521 13.9409 83.5804 13.1988 82.5773 13.1988C81.5702 13.1988 81.0038 13.9409 81.0038 15.2098C81.0038 16.4888 81.5703 17.2252 82.5773 17.2252C83.5805 17.2251 84.1521 16.4837 84.1521 15.2098H84.1521Z" fill="white"/>
<path d="M86.564 16.4837C86.564 15.43 87.3507 14.8225 88.7473 14.7362L90.3374 14.6448V14.1395C90.3374 13.5212 89.9275 13.1721 89.1356 13.1721C88.4889 13.1721 88.0408 13.4089 87.9122 13.8228H86.7906C86.909 12.8173 87.8574 12.1724 89.1891 12.1724C90.6608 12.1724 91.4908 12.903 91.4908 14.1395V18.1392H90.3756V17.3165H90.284C90.0979 17.6116 89.8366 17.8522 89.5269 18.0136C89.2171 18.1751 88.8699 18.2517 88.5207 18.2356C88.2743 18.2612 88.0252 18.2349 87.7896 18.1586C87.5539 18.0823 87.3369 17.9576 87.1526 17.7926C86.9682 17.6275 86.8206 17.4258 86.7192 17.2003C86.6178 16.9749 86.5649 16.7308 86.564 16.4837V16.4837ZM90.3374 15.9835V15.4941L88.9039 15.5855C88.0955 15.6394 87.7288 15.9137 87.7288 16.4297C87.7288 16.9566 88.1871 17.2632 88.8174 17.2632C89.002 17.2818 89.1886 17.2632 89.3659 17.2085C89.5432 17.1538 89.7076 17.0641 89.8494 16.9447C89.9913 16.8253 90.1076 16.6786 90.1914 16.5135C90.2752 16.3484 90.3249 16.1681 90.3374 15.9835V15.9835Z" fill="white"/>
<path d="M93.0134 15.2095C93.0134 13.3598 93.967 12.1881 95.4501 12.1881C95.817 12.1712 96.1811 12.2588 96.4999 12.4407C96.8187 12.6225 97.0789 12.8911 97.2503 13.2151H97.3369V10H98.4954V18.139H97.3852V17.2141H97.2936C97.109 17.5358 96.8396 17.8011 96.5147 17.9811C96.1898 18.1611 95.8216 18.2491 95.4501 18.2354C93.9568 18.2355 93.0134 17.0637 93.0134 15.2095ZM94.2102 15.2095C94.2102 16.4511 94.7971 17.1983 95.7786 17.1983C96.7551 17.1983 97.3585 16.4404 97.3585 15.2146C97.3585 13.9946 96.7487 13.2259 95.7786 13.2259C94.8034 13.2259 94.2101 13.9781 94.2101 15.2095H94.2102Z" fill="white"/>
<path d="M103.289 15.2097C103.252 14.825 103.296 14.4368 103.418 14.0701C103.541 13.7034 103.738 13.3663 103.999 13.0803C104.26 12.7943 104.577 12.5658 104.932 12.4095C105.286 12.2531 105.67 12.1724 106.057 12.1724C106.445 12.1724 106.828 12.2531 107.182 12.4095C107.537 12.5658 107.854 12.7943 108.115 13.0803C108.376 13.3663 108.574 13.7034 108.696 14.0701C108.818 14.4368 108.862 14.825 108.825 15.2097C108.863 15.5947 108.819 15.9834 108.697 16.3507C108.575 16.718 108.378 17.0557 108.117 17.3423C107.856 17.6288 107.538 17.8578 107.184 18.0145C106.829 18.1712 106.445 18.2521 106.057 18.2521C105.669 18.2521 105.285 18.1712 104.931 18.0145C104.576 17.8578 104.258 17.6288 103.997 17.3423C103.736 17.0557 103.539 16.718 103.417 16.3507C103.295 15.9834 103.251 15.5947 103.289 15.2097V15.2097ZM107.634 15.2097C107.634 13.9408 107.062 13.1987 106.059 13.1987C105.052 13.1987 104.485 13.9408 104.485 15.2097C104.485 16.4887 105.052 17.225 106.059 17.225C107.062 17.225 107.634 16.4836 107.634 15.2097Z" fill="white"/>
<path d="M110.38 12.2853H111.495V13.2152H111.582C111.729 12.8812 111.976 12.6012 112.29 12.4143C112.604 12.2273 112.969 12.1427 113.333 12.1723C113.619 12.1509 113.906 12.1938 114.173 12.2979C114.439 12.402 114.679 12.5647 114.874 12.7738C115.069 12.9829 115.215 13.2331 115.3 13.5058C115.385 13.7786 115.407 14.0669 115.365 14.3495V18.139H114.207V14.6396C114.207 13.6989 113.797 13.2311 112.94 13.2311C112.746 13.2221 112.553 13.255 112.373 13.3276C112.193 13.4001 112.03 13.5107 111.897 13.6516C111.764 13.7925 111.663 13.9604 111.601 14.1439C111.539 14.3273 111.518 14.522 111.538 14.7145V18.1391H110.38V12.2853Z" fill="white"/>
<path d="M121.912 10.8276V12.3117H123.183V13.2848H121.912V16.2949C121.912 16.9081 122.165 17.1766 122.742 17.1766C122.889 17.1761 123.037 17.1672 123.183 17.1499V18.1122C122.975 18.1493 122.764 18.1691 122.553 18.1712C121.265 18.1712 120.752 17.7193 120.752 16.5907V13.2848H119.82V12.3117H120.752V10.8276H121.912Z" fill="white"/>
<path d="M124.766 10H125.914V13.2259H126.006C126.16 12.8888 126.414 12.6072 126.735 12.4195C127.055 12.2319 127.425 12.1473 127.796 12.1773C128.08 12.1618 128.364 12.2091 128.628 12.3158C128.891 12.4224 129.128 12.5858 129.321 12.7943C129.514 13.0027 129.659 13.2511 129.745 13.5216C129.831 13.7922 129.855 14.0783 129.817 14.3596V18.139H128.658V14.6446C128.658 13.7096 128.221 13.236 127.403 13.236C127.203 13.2197 127.003 13.247 126.816 13.316C126.628 13.385 126.458 13.494 126.317 13.6353C126.177 13.7767 126.068 13.947 126.001 14.1344C125.933 14.3218 125.907 14.5217 125.924 14.7201V18.1389H124.766L124.766 10Z" fill="white"/>
<path d="M136.573 16.5582C136.415 17.0932 136.074 17.556 135.609 17.8656C135.144 18.1752 134.585 18.3119 134.029 18.2517C133.642 18.2619 133.258 18.1881 132.903 18.0353C132.547 17.8825 132.23 17.6544 131.972 17.367C131.714 17.0795 131.522 16.7395 131.409 16.3705C131.296 16.0015 131.264 15.6124 131.317 15.2303C131.266 14.8469 131.297 14.457 131.41 14.0869C131.523 13.7169 131.714 13.3753 131.971 13.0853C132.227 12.7953 132.544 12.5637 132.898 12.4061C133.252 12.2485 133.636 12.1687 134.024 12.172C135.657 12.172 136.643 13.2848 136.643 15.123V15.5261H132.497V15.5908C132.479 15.8056 132.506 16.0219 132.577 16.2257C132.647 16.4294 132.76 16.6163 132.907 16.7741C133.054 16.932 133.233 17.0575 133.432 17.1425C133.63 17.2275 133.845 17.2702 134.061 17.2678C134.338 17.301 134.619 17.2512 134.867 17.1249C135.116 16.9985 135.321 16.8012 135.457 16.5582L136.573 16.5582ZM132.497 14.6717H135.462C135.477 14.4752 135.45 14.2779 135.384 14.0923C135.317 13.9068 135.213 13.7372 135.077 13.5944C134.941 13.4516 134.776 13.3387 134.594 13.2631C134.411 13.1874 134.215 13.1507 134.017 13.1552C133.817 13.1527 133.618 13.1902 133.433 13.2656C133.247 13.3409 133.078 13.4525 132.937 13.5938C132.795 13.7352 132.683 13.9033 132.608 14.0885C132.532 14.2736 132.495 14.4719 132.497 14.6717H132.497Z" fill="white"/>
</svg>
