<svg width="139" height="41" viewBox="0 0 139 41" fill="none" xmlns="http://www.w3.org/2000/svg">
<path d="M12.4602 6.30682H17.25C16.8835 2.80398 13.7045 0.306818 9.57955 0.306818C4.875 0.306818 1.05682 3.54545 1.05682 9.30682C1.05682 14.8295 4.51705 18.2386 9.61364 18.2386C14.1818 18.2386 17.4545 15.4432 17.4545 10.6705V8.25H9.71591V11.625H12.8864C12.8438 13.142 11.7699 14.1136 9.64773 14.1136C7.19318 14.1136 5.93182 12.3068 5.93182 9.23864C5.93182 6.21307 7.29545 4.43182 9.68182 4.43182C11.1648 4.43182 12.1705 5.11364 12.4602 6.30682ZM23.38 18.2045C25.0845 18.2045 26.3714 17.625 27.1641 16.1591H27.2663V18H31.6641V9.03409C31.6641 6.61364 29.3714 4.73864 25.63 4.73864C21.718 4.73864 19.7919 6.78409 19.63 9.17045H23.9595C24.0703 8.3608 24.6669 7.97727 25.5618 7.97727C26.38 7.97727 26.9595 8.35227 26.9595 9.03409V9.06818C26.9595 9.8267 26.1243 10.0653 23.9254 10.2273C21.2237 10.4233 19.1186 11.5142 19.1186 14.3864C19.1186 16.9943 20.8743 18.2045 23.38 18.2045ZM24.9141 15.2386C24.1129 15.2386 23.5504 14.8466 23.5504 14.1136C23.5504 13.4403 24.0277 12.9205 25.1186 12.75C25.8686 12.6307 26.4993 12.4773 26.9936 12.2727V13.3636C26.9936 14.5568 25.9794 15.2386 24.9141 15.2386ZM33.9119 18H38.6165V10.3636C38.6165 9.22159 39.2131 8.52273 40.1847 8.52273C41.1562 8.52273 41.7869 9.22159 41.7869 10.3636V18H46.2869V10.3636C46.2869 9.22159 46.8835 8.52273 47.8551 8.52273C48.8267 8.52273 49.4574 9.22159 49.4574 10.3636V18H54.1619V9.17045C54.1619 6.4858 52.4403 4.73864 49.9347 4.73864C47.9915 4.73864 46.4233 5.79545 45.9801 7.39773H45.8438C45.571 5.79545 44.1051 4.73864 42.2642 4.73864C40.4489 4.73864 39.0597 5.76136 38.5142 7.39773H38.3778V4.90909H33.9119V18ZM62.755 18.2386C66.3857 18.2386 68.7209 16.5 69.1641 13.7727H64.8686C64.5959 14.5142 63.8203 14.9318 62.8572 14.9318C61.4595 14.9318 60.6413 14.0114 60.6413 12.75V12.5455H69.1641V11.4545C69.1641 7.28693 66.6072 4.73864 62.6527 4.73864C58.5959 4.73864 56.005 7.43182 56.005 11.4886C56.005 15.7244 58.5618 18.2386 62.755 18.2386ZM60.6413 9.95455C60.6669 8.82102 61.6044 8.04545 62.755 8.04545C63.9226 8.04545 64.8089 8.82955 64.8345 9.95455H60.6413ZM83.0497 9.17045C82.9304 6.40057 80.6293 4.73864 76.8452 4.73864C73.1037 4.73864 70.794 6.27273 70.8111 9C70.794 11.0625 72.1321 12.3835 74.7997 12.8523L77.1179 13.2614C78.1406 13.4489 78.6009 13.7216 78.6179 14.2159C78.6009 14.7614 77.9787 15.0682 77.1179 15.0682C76.0526 15.0682 75.3026 14.608 75.1747 13.7727H70.5043C70.7599 16.4574 73.0781 18.2386 77.0838 18.2386C80.706 18.2386 83.3736 16.4744 83.3906 13.6705C83.3736 11.7358 82.0781 10.6108 79.402 10.125L76.7429 9.64773C75.7457 9.46875 75.4645 9.1108 75.4815 8.72727C75.4645 8.18182 76.1378 7.875 76.9474 7.875C77.8764 7.875 78.652 8.36932 78.7202 9.17045H83.0497ZM89.8977 10.6364C89.9062 9.34091 90.6562 8.55682 91.8068 8.55682C93.0085 8.55682 93.6903 9.34091 93.6818 10.6364V18H98.3864V9.64773C98.3949 6.78409 96.5881 4.73864 93.8182 4.73864C91.8835 4.73864 90.4517 5.72727 89.8636 7.39773H89.7273V0.545454H85.1932V18H89.8977V10.6364ZM107.016 18.2386C111.277 18.2386 113.8 15.5114 113.8 11.4886C113.8 7.46591 111.277 4.73864 107.016 4.73864C102.754 4.73864 100.232 7.46591 100.232 11.4886C100.232 15.5114 102.754 18.2386 107.016 18.2386ZM107.05 14.7614C105.788 14.7614 105.038 13.5085 105.038 11.4545C105.038 9.40057 105.788 8.14773 107.05 8.14773C108.243 8.14773 108.993 9.40057 108.993 11.4545C108.993 13.5085 108.243 14.7614 107.05 14.7614ZM123.516 4.90909H121.266V1.77273H116.561V4.90909H114.891V8.31818H116.561V14.233C116.527 16.9773 118.223 18.3665 121.47 18.1875C122.536 18.1278 123.328 17.9062 123.754 17.7784L123.072 14.4716C122.893 14.5142 122.433 14.608 122.152 14.608C121.538 14.608 121.266 14.3352 121.266 13.7898V8.31818H123.516V4.90909ZM137.261 9.17045C137.141 6.40057 134.84 4.73864 131.056 4.73864C127.315 4.73864 125.005 6.27273 125.022 9C125.005 11.0625 126.343 12.3835 129.011 12.8523L131.329 13.2614C132.352 13.4489 132.812 13.7216 132.829 14.2159C132.812 14.7614 132.19 15.0682 131.329 15.0682C130.263 15.0682 129.513 14.608 129.386 13.7727H124.715C124.971 16.4574 127.289 18.2386 131.295 18.2386C134.917 18.2386 137.585 16.4744 137.602 13.6705C137.585 11.7358 136.289 10.6108 133.613 10.125L130.954 9.64773C129.957 9.46875 129.675 9.1108 129.692 8.72727C129.675 8.18182 130.349 7.875 131.158 7.875C132.087 7.875 132.863 8.36932 132.931 9.17045H137.261Z" fill="white"/>
<path d="M69.8608 33H71.3778V31.9688H71.4673C71.7102 32.446 72.2173 33.1151 73.3423 33.1151C74.8849 33.1151 76.0398 31.892 76.0398 29.7358C76.0398 27.554 74.8509 26.3693 73.3381 26.3693C72.1832 26.3693 71.7017 27.0639 71.4673 27.5369H71.4034V24.2727H69.8608V33ZM71.3736 29.7273C71.3736 28.4574 71.919 27.6349 72.9119 27.6349C73.9389 27.6349 74.4673 28.5085 74.4673 29.7273C74.4673 30.9545 73.9304 31.8494 72.9119 31.8494C71.9276 31.8494 71.3736 30.9972 71.3736 29.7273ZM78.0874 35.4545C79.2891 35.4545 79.9837 34.8366 80.3544 33.7926L82.9837 26.4631L81.3345 26.4545L79.8217 31.3977H79.7536L78.245 26.4545H76.6087L78.9822 33.1364L78.8501 33.4901C78.5646 34.2358 78.1129 34.2869 77.4396 34.0909L77.0817 35.2926C77.2905 35.3778 77.6655 35.4545 78.0874 35.4545Z" fill="white"/>
<g clip-path="url(#clip0_982_4486)">
<path fill-rule="evenodd" clip-rule="evenodd" d="M92.6305 29.0806C92.2755 29.0806 91.9873 28.7927 91.9873 28.4377C91.9873 28.0831 92.2755 27.7953 92.6305 27.7953C92.985 27.7953 93.2731 28.0831 93.2731 28.4377C93.2731 28.7927 92.985 29.0806 92.6305 29.0806ZM91.4918 30.2185C91.137 30.2185 90.8491 29.9306 90.8491 29.5762C90.8491 29.2211 91.137 28.9333 91.4918 28.9333C91.8467 28.9333 92.1347 29.2211 92.1347 29.5762C92.1347 29.9306 91.8467 30.2185 91.4918 30.2185ZM90.3538 29.0806C89.9989 29.0806 89.7109 28.7927 89.7109 28.4377C89.7109 28.0831 89.9989 27.7953 90.3538 27.7953C90.7081 27.7953 90.9964 28.0831 90.9964 28.4377C90.9964 28.7927 90.7081 29.0806 90.3538 29.0806ZM91.4918 26.657C91.8467 26.657 92.1347 26.945 92.1347 27.2997C92.1347 27.6537 91.8467 27.9419 91.4918 27.9419C91.137 27.9419 90.8491 27.6537 90.8491 27.2997C90.8491 26.945 91.137 26.657 91.4918 26.657ZM93.6461 30.5853C94.3518 30.0777 94.7481 29.3227 94.7604 28.5551C94.7853 28.0104 94.6244 27.4038 94.1786 26.9086L94.9709 25.9679L93.3243 24.7917C93.126 25.0518 92.8785 25.3613 92.6679 25.6336C92.2594 25.485 91.8259 25.3984 91.405 25.3984C89.5107 25.3984 88 26.6116 88 28.5304C88 30.2545 89.1189 31.3936 90.8699 31.5841V31.3602C90.8699 31.0181 91.1501 30.738 91.4923 30.738C91.8346 30.738 92.1148 31.0181 92.1148 31.3602V31.8926H92.6474C92.9896 31.8926 93.2697 32.1727 93.2697 32.5149C93.2697 32.857 92.9896 33.1373 92.6474 33.1373H92.1148V33.6695C92.1148 34.0118 91.8346 34.292 91.4923 34.292C91.1501 34.292 90.8699 34.0118 90.8699 33.6695V33.1373H90.3376C89.9952 33.1373 89.7149 32.857 89.7149 32.5149C89.7149 32.3765 89.7613 32.2487 89.8385 32.1452H88.0867C87.963 34.0143 89.1889 35.1533 91.3804 35.1533C93.126 35.1533 94.8472 34.4105 94.8472 32.4299C94.8472 32.0956 94.7728 31.229 93.6461 30.5853Z" fill="white"/>
<path fill-rule="evenodd" clip-rule="evenodd" d="M97.4841 28.77C97.4841 29.6059 98.0172 30.0783 98.6837 30.0783C99.4348 30.0783 99.9195 29.4726 99.9195 28.77C99.9195 27.9705 99.4712 27.4496 98.6837 27.4496C98.0172 27.4496 97.4841 27.9342 97.4841 28.77ZM100.041 25.7778H102.137V31.7623H100.077L99.98 31.1202C99.4711 31.7016 98.6714 31.9076 98.005 31.8712C96.2481 31.7623 95.2666 30.5145 95.2666 28.77C95.2666 27.0014 96.4298 25.6445 98.1746 25.6445C99.0228 25.6445 99.6165 25.9354 99.9315 26.4198L100.041 25.7778Z" fill="white"/>
<path fill-rule="evenodd" clip-rule="evenodd" d="M106.741 31.7622V28.4429C106.741 27.7524 106.511 27.5222 106.111 27.5222C105.736 27.5222 105.336 27.8251 105.324 28.4793V31.7622H103.106V25.7778H104.985L105.142 26.4198C105.518 25.8989 106.172 25.6445 106.79 25.6566C107.396 25.6688 107.977 25.9474 108.28 26.5046C108.777 25.8868 109.443 25.6445 110.267 25.6445C111.564 25.6445 112.557 26.4441 112.557 28.4308V31.7622H110.328V28.4429C110.328 27.813 110.037 27.5586 109.71 27.5586C109.334 27.5586 108.934 27.813 108.934 28.4671V31.7622H106.741Z" fill="white"/>
<path fill-rule="evenodd" clip-rule="evenodd" d="M117.63 27.9743C117.569 27.0295 115.606 26.9931 115.461 27.9743H117.63ZM119.629 29.404H115.449C115.606 29.937 116.297 30.1671 116.782 30.1671C117.436 30.1671 117.933 29.9734 118.321 29.6826L119.411 30.9061C118.696 31.5724 117.715 31.8995 116.685 31.8995C114.795 31.8995 113.195 30.9667 113.195 28.7861C113.195 26.6055 114.904 25.6365 116.527 25.6365C118.648 25.6365 120.138 27.0417 119.629 29.404Z" fill="white"/>
<path fill-rule="evenodd" clip-rule="evenodd" d="M121.317 29.6666C122.94 29.6666 122.928 31.8592 121.317 31.8592C119.729 31.8592 119.705 29.6666 121.317 29.6666Z" fill="white"/>
<path fill-rule="evenodd" clip-rule="evenodd" d="M125.837 24.0819V25.8142H127.181V27.5223H125.824V29.4849C125.837 29.9088 126.079 30.0663 126.418 30.0663C126.636 30.0663 126.891 29.9815 127.072 29.8603L127.557 31.5079C127.048 31.7987 126.455 31.9077 125.837 31.9077C124.649 31.9077 123.583 31.3626 123.619 29.4849V27.5223H122.662V25.8142H123.619V24.3242L125.837 24.0819Z" fill="white"/>
<path fill-rule="evenodd" clip-rule="evenodd" d="M130.247 27.4496L130.889 29.3879L131.495 27.4496L132.137 25.7778H134.5L132.028 31.7986H129.811L127.23 25.7778H129.593L130.247 27.4496Z" fill="white"/>
</g>
<defs>
<clipPath id="clip0_982_4486">
<rect width="46.5" height="17.8846" fill="white" transform="translate(88 20.0577)"/>
</clipPath>
</defs>
</svg>
