<svg width="237" height="57" viewBox="0 0 237 57" fill="none" xmlns="http://www.w3.org/2000/svg">
<path fill-rule="evenodd" clip-rule="evenodd" d="M23.6022 25.4776C21.7927 25.4776 20.324 24.0102 20.324 22.201C20.324 20.3936 21.7927 18.9269 23.6022 18.9269C25.4093 18.9269 26.8776 20.3936 26.8776 22.201C26.8776 24.0102 25.4093 25.4776 23.6022 25.4776M17.7989 31.2774C15.9908 31.2774 14.5235 29.8101 14.5235 28.0036C14.5235 26.1938 15.9908 24.7271 17.7989 24.7271C19.6077 24.7271 21.0757 26.1938 21.0757 28.0036C21.0757 29.8101 19.6077 31.2774 17.7989 31.2774M11.9981 25.4776C10.1893 25.4776 8.72161 24.0102 8.72161 22.201C8.72161 20.3936 10.1893 18.9269 11.9981 18.9269C13.8038 18.9269 15.2735 20.3936 15.2735 22.201C15.2735 24.0102 13.8038 25.4776 11.9981 25.4776M17.7989 13.1258C19.6077 13.1258 21.0757 14.5935 21.0757 16.4016C21.0757 18.206 19.6077 19.6748 17.7989 19.6748C15.9908 19.6748 14.5235 18.206 14.5235 16.4016C14.5235 14.5935 15.9908 13.1258 17.7989 13.1258M28.7769 33.1468C32.3738 30.5596 34.3935 26.7114 34.4564 22.7993C34.5829 20.023 33.7629 16.9311 31.4908 14.4075L35.5292 9.61294L27.1368 3.61829C26.1263 4.94352 24.8644 6.52142 23.7913 7.90888C21.7094 7.15156 19.4996 6.71015 17.3547 6.71015C7.6995 6.71015 0 12.8935 0 22.6731C0 31.4607 5.7026 37.2667 14.6272 38.2375V37.0963C14.6272 35.3524 16.0554 33.9248 17.7993 33.9248C19.5441 33.9248 20.972 35.3524 20.972 37.0963V39.81H23.6866C25.4308 39.81 26.8583 41.2372 26.8583 42.9814C26.8583 44.7253 25.4308 46.1536 23.6866 46.1536H20.972V48.8663C20.972 50.6108 19.5441 52.0387 17.7993 52.0387C16.0554 52.0387 14.6272 50.6108 14.6272 48.8663V46.1536H11.914C10.1688 46.1536 8.74063 44.7253 8.74063 42.9814C8.74063 42.2761 8.97702 41.6249 9.37021 41.0971H0.441827C-0.188431 50.6234 6.0594 56.4286 17.2289 56.4286C26.1263 56.4286 34.8986 52.643 34.8986 42.5482C34.8986 40.8445 34.5193 36.4277 28.7769 33.1468" fill="white"/>
<path fill-rule="evenodd" clip-rule="evenodd" d="M48.3368 23.8944C48.3368 28.1548 51.0537 30.5628 54.4506 30.5628C58.2791 30.5628 60.7494 27.4757 60.7494 23.8944C60.7494 19.8194 58.4644 17.1646 54.4506 17.1646C51.0537 17.1646 48.3368 19.6344 48.3368 23.8944V23.8944ZM61.3671 8.64399H72.0509V39.1454H61.5521L61.0582 35.873C58.4644 38.8363 54.3887 39.8861 50.9921 39.7007C42.0376 39.1454 37.0353 32.7858 37.0353 23.8945C37.0353 14.8801 42.9637 7.96454 51.8567 7.96454C56.1798 7.96454 59.2056 9.44688 60.8113 11.9161L61.3671 8.64399Z" fill="white"/>
<path fill-rule="evenodd" clip-rule="evenodd" d="M95.5178 39.1453V22.2274C95.5178 18.7081 94.3447 17.5349 92.3067 17.5349C90.3924 17.5349 88.354 19.0784 88.2925 22.4128V39.1453H76.9913V8.64423H86.5636L87.3663 11.9163C89.2805 9.26145 92.6155 7.96478 95.7651 8.02633C98.8528 8.08823 101.817 9.50834 103.361 12.3486C105.893 9.19956 109.289 7.96478 113.489 7.96478C120.097 7.96478 125.16 12.0398 125.16 22.1655V39.1453H113.797V22.2274C113.797 19.0169 112.315 17.7202 110.648 17.7202C108.734 17.7202 106.695 19.0169 106.695 22.3509V39.1453H95.5178Z" fill="white"/>
<path fill-rule="evenodd" clip-rule="evenodd" d="M151.015 19.8392C150.707 15.0235 140.702 14.8382 139.961 19.8392H151.015ZM161.205 27.125H139.899C140.702 29.8418 144.222 31.0147 146.692 31.0147C150.027 31.0147 152.559 30.0271 154.535 28.5451L160.093 34.7812C156.45 38.1771 151.447 39.8441 146.198 39.8441C136.565 39.8441 128.413 35.09 128.413 23.976C128.413 12.862 137.12 7.92291 145.395 7.92291C156.203 7.92291 163.798 15.085 161.205 27.125V27.125Z" fill="white"/>
<path fill-rule="evenodd" clip-rule="evenodd" d="M169.81 28.4637C178.086 28.4637 178.024 39.6389 169.81 39.6389C161.72 39.6389 161.597 28.4637 169.81 28.4637" fill="white"/>
<path fill-rule="evenodd" clip-rule="evenodd" d="M192.845 0V8.8291H199.7V17.5347H192.783V27.5377C192.845 29.6985 194.08 30.5011 195.809 30.5011C196.921 30.5011 198.218 30.0688 199.144 29.4513L201.614 37.8488C199.02 39.3305 195.995 39.8862 192.845 39.8862C186.793 39.8862 181.359 37.1078 181.544 27.5377V17.5347H176.665V8.8291H181.544V1.23477L192.845 0Z" fill="white"/>
<path fill-rule="evenodd" clip-rule="evenodd" d="M215.324 17.1646L218.597 27.0435L221.685 17.1646L224.958 8.64392H237L224.402 39.3307H213.101L199.947 8.64392H211.989L215.324 17.1646Z" fill="white"/>
</svg>
