<svg width="176" height="52" viewBox="0 0 176 52" fill="none" xmlns="http://www.w3.org/2000/svg">
<rect width="176" height="52" fill="black"/>
<path d="M60.8291 12.3938C60.8505 12.8706 60.7749 13.3467 60.6069 13.7935C60.4388 14.2404 60.1818 14.6487 59.8513 14.9938C59.481 15.3751 59.034 15.6741 58.5398 15.8712C58.0455 16.0684 57.5151 16.1592 56.9832 16.1378C56.4482 16.1497 55.9165 16.052 55.4209 15.8508C54.9253 15.6495 54.4764 15.349 54.102 14.9678C53.3423 14.193 52.917 13.1524 52.917 12.0688C52.917 10.9852 53.3423 9.94466 54.102 9.16981C54.6828 8.6039 55.4184 8.22177 56.2163 8.07143C57.0142 7.92109 57.8389 8.00924 58.5867 8.32482C59.0568 8.51751 59.4762 8.81554 59.8122 9.19582L59.1212 9.88481C58.8623 9.57382 58.5343 9.32729 58.1632 9.16481C57.792 9.00233 57.388 8.92838 56.9832 8.94881C56.4722 8.95234 55.9698 9.08062 55.52 9.32245C55.0701 9.56428 54.6866 9.9123 54.4028 10.3361C54.119 10.7599 53.9436 11.2465 53.8919 11.7535C53.8403 12.2605 53.914 12.7723 54.1065 13.2444C54.2991 13.7164 54.6047 14.1342 54.9965 14.4613C55.3884 14.7883 55.8547 15.0147 56.3546 15.1206C56.8544 15.2265 57.3727 15.2087 57.8641 15.0688C58.3555 14.9288 58.805 14.671 59.1734 14.3178C59.5716 13.8824 59.8025 13.3206 59.8252 12.7318H56.9832V11.7958H60.7769C60.8066 11.9939 60.824 12.1936 60.8291 12.3938Z" fill="white" stroke="white" stroke-width="0.2" stroke-miterlimit="10"/>
<path d="M66.8001 9.14413H63.2801V11.6141H66.4872V12.5501H63.2801V15.0201H66.8001V15.9821H62.2632V8.18213H66.8001V9.14413Z" fill="white" stroke="white" stroke-width="0.2" stroke-miterlimit="10"/>
<path d="M71.0764 15.9821H70.0725V9.14413H67.8823V8.18213H73.3188V9.14413H71.0764V15.9821Z" fill="white" stroke="white" stroke-width="0.2" stroke-miterlimit="10"/>
<path d="M77.1516 15.9821V8.18213H78.1555V15.9821H77.1516Z" fill="white" stroke="white" stroke-width="0.2" stroke-miterlimit="10"/>
<path d="M82.614 15.9821H81.6101V9.14413H79.4199V8.18213H84.7912V9.14413H82.614V15.9821Z" fill="white" stroke="white" stroke-width="0.2" stroke-miterlimit="10"/>
<path d="M94.9733 14.968C94.5967 15.3438 94.1496 15.6419 93.6575 15.8453C93.1653 16.0487 92.6378 16.1534 92.1051 16.1534C91.5724 16.1534 91.0449 16.0487 90.5528 15.8453C90.0606 15.6419 89.6135 15.3438 89.237 14.968C88.5 14.1868 88.0896 13.1546 88.0896 12.082C88.0896 11.0094 88.5 9.97726 89.237 9.19602C89.6054 8.80966 90.0511 8.50473 90.5451 8.30094C91.0392 8.09716 91.5706 7.99907 92.1051 8.01302C92.6388 8.0046 93.1686 8.10522 93.6619 8.30867C94.1552 8.51212 94.6015 8.8141 94.9733 9.19602C95.3481 9.57626 95.6428 10.0275 95.8398 10.5232C96.0369 11.0189 96.1323 11.5489 96.1205 12.082C96.1376 12.6158 96.0446 13.1473 95.8473 13.6438C95.6499 14.1402 95.3525 14.5909 94.9733 14.968V14.968ZM89.9801 14.318C90.2578 14.5987 90.5887 14.8215 90.9535 14.9736C91.3183 15.1257 91.7097 15.204 92.1051 15.204C92.5005 15.204 92.892 15.1257 93.2568 14.9736C93.6216 14.8215 93.9524 14.5987 94.2302 14.318C94.7927 13.7085 95.1049 12.9104 95.1049 12.082C95.1049 11.2537 94.7927 10.4556 94.2302 9.84602C93.9524 9.56538 93.6216 9.34255 93.2568 9.19045C92.892 9.03836 92.5005 8.96004 92.1051 8.96004C91.7097 8.96004 91.3183 9.03836 90.9535 9.19045C90.5887 9.34255 90.2578 9.56538 89.9801 9.84602C89.4175 10.4556 89.1053 11.2537 89.1053 12.082C89.1053 12.9104 89.4175 13.7085 89.9801 14.318V14.318Z" fill="white" stroke="white" stroke-width="0.2" stroke-miterlimit="10"/>
<path d="M97.5415 15.9821V8.18213H98.7539L102.561 14.2531V12.7451V8.18213H103.565V15.9821H102.522L98.5454 9.62513V11.1201V15.9821H97.5415Z" fill="white" stroke="white" stroke-width="0.2" stroke-miterlimit="10"/>
<path d="M87.8419 27.3572C86.7434 27.3598 85.6704 27.6871 84.7586 28.2978C83.8467 28.9084 83.1369 29.775 82.7189 30.7879C82.3009 31.8008 82.1936 32.9146 82.4104 33.9884C82.6272 35.0621 83.1585 36.0477 83.937 36.8203C84.7156 37.593 85.7064 38.1182 86.7842 38.3293C87.862 38.5405 88.9785 38.4282 89.9923 38.0067C91.0061 37.5851 91.8718 36.8733 92.4799 35.9611C93.0881 35.049 93.4113 33.9775 93.4087 32.8822C93.4193 32.1515 93.2824 31.4262 93.0061 30.7494C92.7297 30.0725 92.3196 29.4581 91.8002 28.9426C91.2808 28.4271 90.6627 28.021 89.9827 27.7487C89.3026 27.4763 88.5746 27.3432 87.8419 27.3572ZM87.8419 36.2362C87.1686 36.2832 86.4967 36.1271 85.9136 35.7882C85.3305 35.4494 84.8631 34.9434 84.5722 34.3362C84.2813 33.7289 84.1803 33.0485 84.2823 32.3832C84.3844 31.718 84.6848 31.0987 85.1445 30.606C85.6041 30.1132 86.2018 29.7698 86.8599 29.6202C87.5179 29.4707 88.2058 29.522 88.8342 29.7675C89.4626 30.013 90.0024 30.4414 90.3834 30.9968C90.7645 31.5523 90.9691 32.2092 90.9708 32.8822C90.9918 33.3086 90.9269 33.7349 90.7801 34.136C90.6332 34.537 90.4073 34.9047 90.1157 35.2173C89.8241 35.5298 89.4727 35.7811 89.0821 35.9561C88.6916 36.1311 88.2699 36.2263 87.8419 36.2362ZM75.6913 27.3572C74.5929 27.3598 73.5199 27.6871 72.608 28.2978C71.6962 28.9084 70.9864 29.775 70.5684 30.7879C70.1504 31.8008 70.0431 32.9146 70.2599 33.9884C70.4767 35.0621 71.008 36.0477 71.7865 36.8203C72.565 37.593 73.5559 38.1182 74.6337 38.3293C75.7115 38.5405 76.8279 38.4282 77.8418 38.0067C78.8556 37.5851 79.7213 36.8733 80.3294 35.9611C80.9375 35.049 81.2607 33.9775 81.2582 32.8822C81.2688 32.1515 81.1319 31.4262 80.8555 30.7494C80.5792 30.0725 80.1691 29.4581 79.6497 28.9426C79.1303 28.4271 78.5122 28.021 77.8321 27.7487C77.1521 27.4763 76.424 27.3432 75.6913 27.3572ZM75.6913 36.2362C75.0181 36.2832 74.3462 36.1271 73.7631 35.7882C73.18 35.4494 72.7126 34.9434 72.4217 34.3362C72.1307 33.7289 72.0298 33.0485 72.1318 32.3832C72.2339 31.718 72.5343 31.0987 72.9939 30.606C73.4536 30.1132 74.0513 29.7698 74.7094 29.6202C75.3674 29.4707 76.0553 29.522 76.6837 29.7675C77.3121 30.013 77.8519 30.4414 78.2329 30.9968C78.614 31.5523 78.8186 32.2092 78.8202 32.8822C78.8412 33.3086 78.7764 33.7349 78.6295 34.136C78.4827 34.537 78.2568 34.9047 77.9652 35.2173C77.6736 35.5298 77.3221 35.7811 76.9316 35.9561C76.5411 36.1311 76.1194 36.2263 75.6913 36.2362ZM61.2463 29.0602V31.4002H66.8783C66.79 32.5024 66.3305 33.5424 65.5746 34.3512C65.0096 34.9252 64.3302 35.3745 63.5801 35.6701C62.83 35.9657 62.026 36.101 61.2202 36.0672C59.5606 36.0672 57.9689 35.4098 56.7953 34.2396C55.6217 33.0693 54.9624 31.4822 54.9624 29.8272C54.9624 28.1723 55.6217 26.5851 56.7953 25.4149C57.9689 24.2447 59.5606 23.5872 61.2202 23.5872C62.8113 23.5636 64.3477 24.1661 65.4964 25.2642L67.1521 23.6132C66.3751 22.8469 65.4525 22.2429 64.4384 21.8366C63.4243 21.4303 62.3391 21.23 61.2463 21.2472C60.0873 21.2022 58.9311 21.391 57.8471 21.8023C56.763 22.2135 55.7733 22.8388 54.9374 23.6405C54.1014 24.4423 53.4364 25.4041 52.9821 26.4683C52.5279 27.5325 52.2937 28.6771 52.2937 29.8337C52.2937 30.9903 52.5279 32.135 52.9821 33.1992C53.4364 34.2634 54.1014 35.2251 54.9374 36.0269C55.7733 36.8287 56.763 37.4539 57.8471 37.8652C58.9311 38.2764 60.0873 38.4652 61.2463 38.4202C62.3615 38.4646 63.4735 38.2733 64.5093 37.8588C65.5452 37.4443 66.4813 36.816 67.2564 36.0152C68.6254 34.5156 69.3549 32.5432 69.2902 30.5162C69.2948 30.0284 69.2556 29.5411 69.1728 29.0602H61.2463ZM120.317 30.8802C119.977 29.8828 119.341 29.0118 118.494 28.3827C117.646 27.7536 116.627 27.396 115.572 27.3572C114.859 27.3558 114.153 27.5003 113.498 27.7817C112.843 28.0631 112.253 28.4755 111.764 28.9933C111.275 29.5111 110.898 30.1234 110.656 30.7923C110.414 31.4612 110.312 32.1725 110.357 32.8822C110.346 34.0689 110.72 35.2274 111.423 36.1846C112.127 37.1417 113.122 37.8463 114.26 38.1929C115.399 38.5396 116.619 38.5097 117.739 38.1078C118.858 37.706 119.818 36.9536 120.474 35.9632L118.583 34.6632C118.301 35.1316 117.902 35.5184 117.424 35.7852C116.946 36.052 116.406 36.1895 115.858 36.1842C115.293 36.2075 114.734 36.0598 114.255 35.7605C113.776 35.4612 113.399 35.0243 113.173 34.5072L120.591 31.4522L120.317 30.8802ZM112.756 32.7262C112.729 32.3224 112.784 31.9174 112.916 31.5349C113.049 31.1524 113.257 30.8002 113.527 30.4987C113.798 30.1973 114.126 29.9527 114.493 29.7794C114.86 29.606 115.257 29.5074 115.663 29.4892C116.083 29.4637 116.501 29.5623 116.865 29.7727C117.229 29.9832 117.523 30.2961 117.71 30.6722L112.756 32.7262ZM106.733 38.0822H109.17V21.8322H106.733V38.0822ZM102.743 28.5922H102.652C102.288 28.1786 101.838 27.8484 101.334 27.624C100.83 27.3996 100.284 27.2865 99.7316 27.2922C98.3069 27.3611 96.9634 27.974 95.9795 29.0038C94.9957 30.0336 94.4469 31.4014 94.4469 32.8237C94.4469 34.2461 94.9957 35.6139 95.9795 36.6437C96.9634 37.6735 98.3069 38.2863 99.7316 38.3552C100.284 38.3663 100.833 38.2555 101.338 38.0308C101.842 37.806 102.291 37.4729 102.652 37.0552H102.743V37.8482C102.743 39.9672 101.609 41.0982 99.7838 41.0982C99.1741 41.0849 98.5821 40.8911 98.083 40.5416C97.584 40.1921 97.2003 39.7026 96.9808 39.1352L94.8688 40.0062C95.2593 40.9841 95.9382 41.8209 96.8158 42.4058C97.6934 42.9908 98.7283 43.2964 99.7838 43.2822C102.639 43.2822 104.999 41.6052 104.999 37.5232V27.6822H102.743V28.5922ZM99.9402 36.2362C99.086 36.1831 98.2843 35.8073 97.6983 35.1854C97.1122 34.5634 96.786 33.7421 96.786 32.8887C96.786 32.0353 97.1122 31.214 97.6983 30.5921C98.2843 29.9701 99.086 29.5943 99.9402 29.5412C100.358 29.5592 100.767 29.6607 101.145 29.8398C101.522 30.0188 101.859 30.2717 102.137 30.5834C102.414 30.8951 102.626 31.2593 102.759 31.6542C102.892 32.0491 102.945 32.4667 102.913 32.8822C102.948 33.2991 102.899 33.7189 102.767 34.1161C102.635 34.5134 102.424 34.8798 102.146 35.1933C101.868 35.5069 101.529 35.7609 101.15 35.9402C100.771 36.1194 100.36 36.2202 99.9402 36.2362ZM131.738 21.8322H125.897V38.0822H128.335V31.9202H131.738C132.432 31.97 133.13 31.8765 133.787 31.6456C134.444 31.4146 135.046 31.0512 135.556 30.578C136.066 30.1047 136.473 29.5318 136.751 28.8949C137.029 28.258 137.172 27.5708 137.172 26.8762C137.172 26.1816 137.029 25.4944 136.751 24.8575C136.473 24.2207 136.066 23.6477 135.556 23.1745C135.046 22.7012 134.444 22.3378 133.787 22.1069C133.13 21.8759 132.432 21.7824 131.738 21.8322ZM131.738 29.6322H128.335V24.0942H131.79C132.156 24.0942 132.519 24.1662 132.857 24.306C133.196 24.4458 133.503 24.6507 133.762 24.9091C134.022 25.1674 134.227 25.4741 134.367 25.8116C134.507 26.1491 134.58 26.5109 134.58 26.8762C134.58 27.2416 134.507 27.6033 134.367 27.9409C134.227 28.2784 134.022 28.5851 133.762 28.8434C133.503 29.1017 133.196 29.3066 132.857 29.4465C132.519 29.5863 132.156 29.6582 131.79 29.6582L131.738 29.6322ZM146.782 27.3052C145.894 27.2506 145.01 27.4567 144.239 27.898C143.467 28.3393 142.842 28.9965 142.441 29.7882L144.592 30.6852C144.809 30.2944 145.136 29.9748 145.531 29.7649C145.927 29.5549 146.375 29.4637 146.821 29.5022C147.131 29.4662 147.444 29.492 147.744 29.578C148.043 29.6641 148.322 29.8088 148.565 30.0036C148.808 30.1985 149.009 30.4396 149.158 30.7128C149.306 30.9861 149.398 31.286 149.429 31.5952V31.7512C148.645 31.3403 147.772 31.1261 146.887 31.1272C144.566 31.1272 142.193 32.4272 142.193 34.7932C142.216 35.2961 142.34 35.7893 142.558 36.2434C142.776 36.6976 143.083 37.1034 143.461 37.4369C143.839 37.7704 144.281 38.0247 144.76 38.1847C145.238 38.3446 145.744 38.4071 146.248 38.3682C146.86 38.402 147.469 38.2729 148.015 37.9942C148.56 37.7155 149.021 37.2972 149.351 36.7822H149.429V38.0822H151.775V31.8292C151.775 28.9822 149.611 27.3312 146.834 27.3312L146.782 27.3052ZM146.482 36.2102C145.687 36.2102 144.579 35.8072 144.579 34.8322C144.579 33.5322 145.961 33.0902 147.186 33.0902C147.961 33.0712 148.726 33.2597 149.403 33.6362C149.321 34.3422 148.985 34.9947 148.458 35.4728C147.93 35.9508 147.247 36.2221 146.535 36.2362L146.482 36.2102ZM160.328 27.6822L157.538 34.7282H157.46L154.565 27.6822H151.958L156.299 37.5362L153.822 43.0092H156.365L163.04 27.6822H160.328ZM138.426 38.0822H140.85V21.8322H138.426V38.0822Z" fill="white"/>
<path d="M12.6183 8.88397C12.1887 9.39048 11.9695 10.0416 12.0056 10.704V39.46C11.9612 40.1235 12.1815 40.7776 12.6183 41.28L12.7096 41.384L28.8625 25.277V24.887L12.7096 8.79297L12.6183 8.88397Z" fill="url(#paint0_linear_139_4026)"/>
<path d="M34.2075 30.6461L28.8623 25.2771V24.8871L34.2075 19.5181L34.3248 19.5961L40.726 23.2101C42.5512 24.2371 42.5512 25.9271 40.726 26.9671L34.3509 30.5811L34.2075 30.6461Z" fill="url(#paint1_linear_139_4026)"/>
<path d="M34.3639 30.568L28.8623 25.082L12.6182 41.28C12.9866 41.607 13.4581 41.7951 13.951 41.8117C14.4439 41.8284 14.9271 41.6724 15.3168 41.371L34.3639 30.568" fill="url(#paint2_linear_139_4026)"/>
<path d="M34.3639 19.5959L15.3168 8.80594C14.9297 8.50033 14.4468 8.34062 13.9533 8.35488C13.4597 8.36915 12.9869 8.55648 12.6182 8.88394L28.8623 25.0819L34.3639 19.5959Z" fill="url(#paint3_linear_139_4026)"/>
<path opacity="0.2" d="M34.2075 30.4512L15.3168 41.1762C14.9413 41.4588 14.4836 41.6117 14.0131 41.6117C13.5426 41.6117 13.085 41.4588 12.7094 41.1762V41.1762L12.6182 41.2672L12.7094 41.3712C13.085 41.6538 13.5426 41.8067 14.0131 41.8067C14.4836 41.8067 14.9413 41.6538 15.3168 41.3712L34.3639 30.5682L34.2075 30.4512Z" fill="black"/>
<path opacity="0.12" d="M12.6182 41.0981C12.1995 40.5825 11.9942 39.9267 12.0446 39.2651V39.4601C12.0002 40.1236 12.2204 40.7777 12.6573 41.2801L12.7486 41.1891L12.6182 41.0981Z" fill="black"/>
<path opacity="0.12" d="M40.726 26.772L34.2075 30.451L34.3249 30.568L40.726 26.954C41.1039 26.7947 41.4317 26.5368 41.6749 26.2073C41.9181 25.8779 42.0677 25.4891 42.108 25.082C42.0265 25.452 41.8589 25.7976 41.6189 26.0912C41.3789 26.3847 41.073 26.6179 40.726 26.772Z" fill="black"/>
<path opacity="0.25" d="M15.317 8.9882L40.7262 23.3922C41.0732 23.5463 41.379 23.7795 41.6191 24.073C41.8591 24.3666 42.0266 24.7123 42.1081 25.0822C42.0679 24.6751 41.9182 24.2864 41.675 23.9569C41.4318 23.6275 41.1041 23.3695 40.7262 23.2102L15.317 8.8062C13.5049 7.7662 12.0056 8.6242 12.0056 10.7042V10.8992C12.0447 8.8192 13.5049 7.9612 15.317 8.9882Z" fill="white"/>
<defs>
<linearGradient id="paint0_linear_139_4026" x1="27.4284" y1="10.405" x2="5.61451" y2="32.281" gradientUnits="userSpaceOnUse">
<stop stop-color="#00A0FF"/>
<stop offset="0.01" stop-color="#00A1FF"/>
<stop offset="0.26" stop-color="#00BEFF"/>
<stop offset="0.51" stop-color="#00D2FF"/>
<stop offset="0.76" stop-color="#00DFFF"/>
<stop offset="1" stop-color="#00E3FF"/>
</linearGradient>
<linearGradient id="paint1_linear_139_4026" x1="43.1118" y1="25.0821" x2="11.5752" y2="25.0821" gradientUnits="userSpaceOnUse">
<stop stop-color="#FFE000"/>
<stop offset="0.41" stop-color="#FFBD00"/>
<stop offset="0.78" stop-color="#FFA500"/>
<stop offset="1" stop-color="#FF9C00"/>
</linearGradient>
<linearGradient id="paint2_linear_139_4026" x1="31.3785" y1="28.072" x2="1.79054" y2="57.7312" gradientUnits="userSpaceOnUse">
<stop stop-color="#FF3A44"/>
<stop offset="1" stop-color="#C31162"/>
</linearGradient>
<linearGradient id="paint3_linear_139_4026" x1="8.52453" y1="-0.684058" x2="21.7325" y2="12.5615" gradientUnits="userSpaceOnUse">
<stop stop-color="#32A071"/>
<stop offset="0.07" stop-color="#2DA771"/>
<stop offset="0.48" stop-color="#15CF74"/>
<stop offset="0.8" stop-color="#06E775"/>
<stop offset="1" stop-color="#00F076"/>
</linearGradient>
</defs>
</svg>
