<svg width="483" height="86" viewBox="0 0 483 86" fill="none" xmlns="http://www.w3.org/2000/svg">
<path d="M139.862 23.728C139.534 22.8846 139.112 22.1818 138.503 21.5727C134.755 17.8243 126.274 19.9328 117.325 26.1176C114.279 28.2261 111.234 30.7562 108.282 33.7081C107.719 34.2704 107.157 34.8326 106.642 35.3949C102.753 39.5181 102.753 45.9841 106.642 50.1073C107.157 50.6695 107.719 51.2318 108.282 51.7941C111.234 54.7459 114.326 57.323 117.325 59.3846C126.274 65.5694 134.802 67.6778 138.503 63.9295C139.112 63.3204 139.581 62.5707 139.862 61.7742C139.909 61.6336 139.956 61.493 140.002 61.3524C143.376 51.1849 143.891 33.1458 139.862 23.728Z" fill="#FFCC48"/>
<path d="M92.304 16.5276C88.743 12.5918 83.7764 9.9679 78.107 9.40565C68.4081 8.46855 58.7091 8 49.0101 8C39.3112 8 29.5654 8.46855 19.9133 9.40565C8.62129 10.4833 0 19.948 0 31.3337V54.7611C0 60.4306 2.15533 65.6314 5.7163 69.5672C9.27726 73.503 14.2439 76.1269 19.9133 76.6892C39.2644 78.5634 58.756 78.5634 78.107 76.6892C89.399 75.6115 98.0203 66.1468 98.0203 54.7611V31.3337C98.0203 25.6643 95.865 20.4165 92.304 16.5276ZM49.0101 66.8028C36.1719 66.8028 25.7702 56.401 25.7702 43.5628C25.7702 30.7246 36.1719 20.3228 49.0101 20.3228C61.8484 20.3228 72.2502 30.7246 72.2502 43.5628C72.2502 56.401 61.8484 66.8028 49.0101 66.8028Z" fill="#FFCC48"/>
<path d="M40.3888 50.919C37.7649 50.919 35.6096 48.7637 35.6096 46.1399V41.0327C35.6096 38.4088 37.7649 36.2535 40.3888 36.2535C43.0127 36.2535 45.168 38.4088 45.168 41.0327V46.1399C45.168 48.7637 43.0595 50.919 40.3888 50.919Z" fill="#FFCC48"/>
<path d="M57.6315 50.9191C55.0076 50.9191 52.8523 48.7638 52.8523 46.1399V41.0327C52.8523 38.4089 55.0076 36.2535 57.6315 36.2535C60.2554 36.2535 62.4107 38.4089 62.4107 41.0327V46.1399C62.4107 48.7638 60.2554 50.9191 57.6315 50.9191Z" fill="#FFCC48"/>
<path d="M374.313 67.9561L374.061 69.214H370.539V53.6783H374.564V59.2133C375.445 58.3956 376.514 58.0182 377.772 58.0182C380.791 58.0182 382.93 60.3454 382.93 63.7419C382.93 67.0755 380.791 69.4656 377.772 69.4656C376.389 69.4656 375.193 68.9624 374.313 67.9561ZM376.766 66.132C378.087 66.132 378.967 65.1885 378.967 63.7419C378.967 62.2953 378.087 61.3518 376.766 61.3518C375.445 61.3518 374.564 62.2953 374.564 63.7419C374.564 65.1885 375.445 66.132 376.766 66.132Z" fill="white"/>
<path d="M387.27 68.9624L383.056 58.2698H387.396L388.339 60.9114L389.534 64.6853L390.792 60.9114L391.861 58.2698H396.201L389.408 73.8055H385.131L387.27 68.9624Z" fill="white"/>
<path d="M420.291 58.5213H424.065V69.2139H420.354L420.165 68.0818C419.285 69.1511 417.838 69.4655 416.643 69.4026C413.498 69.2139 411.737 67.0125 411.737 63.8676C411.737 60.7228 413.813 58.2698 416.958 58.2698C418.467 58.2698 419.536 58.7729 420.102 59.6535L420.291 58.5213ZM415.762 63.8676C415.762 65.3772 416.706 66.1949 417.901 66.1949C419.222 66.1949 420.102 65.1256 420.102 63.8676C420.102 62.421 419.285 61.5404 417.901 61.5404C416.706 61.5404 415.762 62.421 415.762 63.8676Z" fill="white"/>
<path d="M432.305 69.2139V63.3016C432.305 62.0436 431.864 61.6662 431.172 61.6662C430.481 61.6662 429.789 62.2323 429.789 63.3645V69.2139H425.826V58.5213H429.16L429.411 59.6535C430.103 58.71 431.235 58.2698 432.368 58.2698C433.437 58.2698 434.506 58.7729 435.009 59.7793C435.89 58.6471 437.085 58.2698 438.594 58.2698C440.922 58.2698 442.683 59.7164 442.683 63.2387V69.2139H438.72V63.3016C438.72 62.1694 438.217 61.7291 437.588 61.7291C436.896 61.7291 436.204 62.1694 436.204 63.3645V69.2139H432.305Z" fill="white"/>
<path d="M455.262 64.9998H447.777C448.029 65.9432 449.287 66.3835 450.168 66.3835C451.363 66.3835 452.243 66.0062 452.935 65.503L454.885 67.7044C453.627 68.8995 451.866 69.4655 449.979 69.4655C446.582 69.4655 443.752 67.8302 443.752 63.9305C443.752 60.0309 446.834 58.3326 449.727 58.3326C453.501 58.2697 456.143 60.7856 455.262 64.9998ZM451.677 62.4839C451.551 60.7856 448.029 60.7227 447.777 62.4839H451.677Z" fill="white"/>
<path d="M458.407 65.503C461.301 65.503 461.301 69.4026 458.407 69.4026C455.577 69.4026 455.514 65.503 458.407 65.503Z" fill="white"/>
<path d="M466.458 55.5023V58.5843H468.848V61.6033H466.395V65.1256C466.395 65.8804 466.836 66.132 467.464 66.132C467.842 66.132 468.282 66.0061 468.66 65.7546L469.54 68.7108C468.66 69.2139 467.59 69.4026 466.458 69.4026C464.32 69.4026 462.433 68.4592 462.496 65.0627V61.5404H460.797V58.5213H462.496V55.8796L466.458 55.5023Z" fill="white"/>
<path d="M474.383 61.5404L475.515 64.9998L476.584 61.5404L477.717 58.5843H481.931L477.528 69.3398H473.565L468.974 58.5843H473.188L474.383 61.5404Z" fill="white"/>
<path d="M408.844 67.1383C410.102 66.2577 410.794 64.874 410.857 63.4903C410.92 62.5468 410.605 61.4146 409.787 60.5341L411.234 58.8358L408.278 56.7602C407.9 57.2005 407.46 57.7666 407.083 58.2698C406.328 58.0182 405.573 57.8295 404.818 57.8295C401.422 57.8295 398.717 59.968 398.717 63.4273C398.717 66.5093 400.73 68.522 403.875 68.8994V68.5221C403.875 67.8931 404.378 67.3899 405.007 67.3899C405.636 67.3899 406.139 67.8931 406.139 68.5221V69.4655H407.083C407.712 69.4655 408.215 69.9687 408.215 70.5977C408.215 71.2267 407.712 71.7298 407.083 71.7298H406.139V72.6733C406.139 73.3023 405.636 73.8054 405.007 73.8054C404.378 73.8054 403.875 73.3023 403.875 72.6733V71.7298H402.931C402.303 71.7298 401.799 71.2267 401.799 70.5977C401.799 70.3461 401.862 70.0945 402.051 69.9687H398.906C398.654 73.3023 400.856 75.315 404.818 75.315C407.963 75.315 411.045 73.9941 411.045 70.4719C411.045 69.8429 410.857 68.2705 408.844 67.1383ZM405.007 60.0938C405.636 60.0938 406.139 60.5969 406.139 61.2259C406.139 61.8549 405.636 62.3581 405.007 62.3581C404.378 62.3581 403.875 61.8549 403.875 61.2259C403.875 60.5969 404.378 60.0938 405.007 60.0938ZM402.994 64.4337C402.365 64.4337 401.862 63.9305 401.862 63.3016C401.862 62.6726 402.365 62.1694 402.994 62.1694C403.623 62.1694 404.126 62.6726 404.126 63.3016C404.126 63.9305 403.623 64.4337 402.994 64.4337ZM405.007 66.4464C404.378 66.4464 403.875 65.9432 403.875 65.3143C403.875 64.6853 404.378 64.1821 405.007 64.1821C405.636 64.1821 406.139 64.6853 406.139 65.3143C406.139 65.9432 405.636 66.4464 405.007 66.4464ZM407.083 64.4337C406.454 64.4337 405.951 63.9305 405.951 63.3016C405.951 62.6726 406.454 62.1694 407.083 62.1694C407.712 62.1694 408.215 62.6726 408.215 63.3016C408.215 63.9305 407.712 64.4337 407.083 64.4337Z" fill="white"/>
<path d="M167.002 52.7977H177.129C177.003 56.4458 178.827 58.3327 182.601 58.3327C185.746 58.3327 187.947 56.6345 187.947 54.1814C187.947 51.6655 186.123 50.2818 182.727 50.2818C172.915 50.2818 166.562 44.4952 166.562 35.5009C166.562 26.9468 173.166 20.9086 182.727 20.9086C184.677 20.9086 186.689 21.286 188.639 22.1037L191.784 18.0153L199.583 23.6132L195.809 28.0789C197.571 30.0288 198.514 32.5446 198.514 35.5637C198.514 39.5263 196.501 43.0485 193.231 45.5015C196.879 47.4514 198.954 50.6592 198.954 54.7475C198.954 62.2323 192.539 67.0755 182.601 67.0755C172.286 67.0126 165.933 61.2889 167.002 52.7977ZM182.664 41.3503C185.997 41.3503 188.262 39.0231 188.262 35.5009C188.262 31.9786 186.06 29.6514 182.664 29.6514C179.33 29.6514 177.066 31.9786 177.066 35.5009C177.066 39.0231 179.33 41.3503 182.664 41.3503Z" fill="white"/>
<path d="M202.665 36.2557C202.665 27.3871 208.326 21.1603 216.314 21.1603C220.088 21.1603 223.107 22.4811 225.56 25.1228L226.126 21.7892H235.435V50.785H226.189L225.623 47.3885C223.17 50.0302 220.025 51.3511 216.377 51.3511C208.326 51.3511 202.665 45.1243 202.665 36.2557ZM219.082 42.5454C222.541 42.5454 224.868 40.0295 224.868 36.2557C224.868 32.4818 222.541 29.9659 219.082 29.9659C215.622 29.9659 213.295 32.4818 213.295 36.2557C213.232 40.0295 215.622 42.5454 219.082 42.5454Z" fill="white"/>
<path d="M241.788 21.7263H251.034L251.537 24.8083C253.738 22.4182 256.569 21.0973 259.839 21.0973C263.424 21.0973 266.318 22.6069 268.016 25.3744C270.28 22.544 273.677 21.0973 277.765 21.0973C284.998 21.0973 289.464 25.5631 289.464 32.8592V50.785H278.771V34.4316C278.771 31.6012 277.451 29.903 275.06 29.903C272.545 29.903 270.909 31.9157 270.909 34.9977V50.7221H260.342V34.4316C260.342 31.6012 259.022 29.903 256.631 29.903C254.116 29.903 252.48 31.9157 252.48 34.9977V50.7221H241.788V21.7263Z" fill="white"/>
<path d="M293.992 36.3814C293.992 27.2613 300.471 21.0973 309.968 21.0973C321.038 21.0973 327.265 28.5821 325.19 39.2118H304.811C305.377 41.4133 307.767 43.1744 311.415 43.1744C314.057 43.1744 316.698 42.4825 318.9 40.973L324.12 46.8225C320.535 49.9045 315.944 51.4769 310.786 51.4769C300.408 51.414 293.992 45.6903 293.992 36.3814ZM315.441 33.8655C315.378 30.9723 313.491 29.2111 310.346 29.2111C307.138 29.2111 305 30.9723 304.874 33.8655H315.441Z" fill="white"/>
<path d="M328.146 47.8918L331.857 40.6585C334.813 42.231 338.964 43.1115 342.424 43.1115C344.248 43.1115 345.191 42.6712 345.191 41.7278C345.191 40.7843 344.311 40.2811 341.543 40.1553C334.373 39.8408 329.404 36.1928 329.404 30.7207C329.404 24.8083 334.436 20.9715 342.801 20.9715C347.518 20.9715 352.047 22.2924 354.689 23.9907L350.726 30.9723C348.776 29.9659 346.198 29.3998 343.179 29.3998C340.977 29.3998 339.845 29.8401 339.845 30.8465C339.845 31.6641 340.6 32.1045 342.738 32.1673C350.726 32.6076 355.695 35.8783 355.695 41.7278C355.695 47.8917 350.663 51.6027 341.606 51.6027C336.071 51.6027 331.354 50.0303 328.146 47.8918Z" fill="white"/>
<path d="M360.161 9.65001H370.853V24.8083C372.866 22.4811 375.697 21.0974 379.408 21.0974C386.389 21.0974 390.603 26.0034 390.603 34.1172V50.785H379.911V34.7462C379.911 31.7271 378.338 29.903 375.697 29.903C372.74 29.903 370.853 32.1045 370.853 35.5009V50.785H360.161V9.65001Z" fill="white"/>
<path d="M395.132 36.2557C395.132 27.0097 401.422 21.0973 411.36 21.0973C421.297 21.0973 427.587 26.9468 427.587 36.2557C427.587 45.5016 421.297 51.414 411.36 51.414C401.422 51.414 395.132 45.5016 395.132 36.2557ZM411.36 42.6083C414.693 42.6083 417.02 40.0924 417.02 36.2557C417.02 32.4189 414.756 29.903 411.36 29.903C408.026 29.903 405.699 32.4189 405.699 36.2557C405.699 40.0924 408.026 42.6083 411.36 42.6083Z" fill="white"/>
<path d="M434.694 39.7151V30.0917H430.04V21.7263H434.694V14.7447L445.324 13.5496V21.7263H451.928V30.0917H445.324V39.7151C445.324 41.7907 446.645 42.5454 448.28 42.5454C449.35 42.5454 450.545 42.1681 451.362 41.7907L453.752 49.5271C451.174 50.9108 448.406 51.4769 445.387 51.4769C439.6 51.4769 434.694 48.8352 434.694 39.7151Z" fill="white"/>
<path d="M455.451 47.8917L459.162 40.6585C462.118 42.231 466.269 43.1115 469.728 43.1115C471.552 43.1115 472.496 42.6712 472.496 41.7277C472.496 40.7843 471.615 40.2811 468.848 40.1553C461.677 39.8408 456.709 36.1928 456.709 30.7207C456.709 24.8083 461.74 20.9715 470.106 20.9715C474.823 20.9715 479.352 22.2924 481.993 23.9906L478.031 30.9723C476.081 29.9659 473.502 29.3998 470.483 29.3998C468.282 29.3998 467.15 29.8401 467.15 30.8465C467.15 31.6641 467.904 32.1044 470.043 32.1673C478.031 32.6076 483 35.8783 483 41.7277C483 47.8917 477.968 51.6027 468.911 51.6027C463.376 51.6027 458.658 50.0303 455.451 47.8917Z" fill="white"/>
</svg>
